999
FreeCAD v0.19 24267 +99 (Git)
  0
SECTION
  2
HEADER
  9
$ACADVER
  1
AC1014
  9
$ACADMAINTVER
 70
     9
  9
$DWGCODEPAGE
  3
ANSI_1252
  9
$TEXTSTYLE
  7
STANDARD
  9
$DIMSTYLE
  2
STANDARD
  9
$DIMTXSTY
  7
STANDARD
  9
$CMLSTYLE
  2
STANDARD
  9
$PEXTMAX
 10
50
 20
50
 30
50
  9
$PEXTMIN
 10
0
 20
0
 30
0
  9
$HANDSEED
  5
FFFF
  0
ENDSEC
  0
SECTION
  2
CLASSES
  0
CLASS
  1
ACDBDICTIONARYWDFLT
  2
AcDbDictionaryWithDefault
  3
ObjectDBX Classes
 90
        0
280
     0
281
     0
  0
CLASS
  1
XRECORD
  2
AcDbXrecord
  3
ObjectDBX Classes
 90
        0
280
     0
281
     0
  0
CLASS
  1
LWPOLYLINE
  2
AcDbPolyline
  3
ObjectDBX Classes
 90
        0
280
     0
281
     1
  0
ENDSEC
  0
SECTION
  2
TABLES
  0
TABLE
  2
VPORT
  5
20
330
0
100
AcDbSymbolTable
 70
     1
  0
VPORT
  5
21
330
20
100
AcDbSymbolTableRecord
100
AcDbViewportTableRecord
  2
*ACTIVE
 70
     0
  0
ENDTAB
  0
TABLE
  2
LTYPE
  5
22
330
0
100
AcDbSymbolTable
 70
     1
  0
LTYPE
  5
23
330
21
100
AcDbSymbolTableRecord
100
AcDbLinetypeTableRecord
  2
BYBLOCK
 70
     0
  3

 72
    65
 73
     0
 40
0.0
  0
LTYPE
  5
24
330
21
100
AcDbSymbolTableRecord
100
AcDbLinetypeTableRecord
  2
BYLAYER
 70
     0
  3

 72
    65
 73
     0
 40
0.0
  0
LTYPE
  5
25
330
21
100
AcDbSymbolTableRecord
100
AcDbLinetypeTableRecord
  2
CONTINUOUS
 70
     0
  3
Solid line
 72
    65
 73
     0
 40
0.0
  0
ENDTAB
  0
TABLE
  2
LAYER
  5
BD6
330
0
100
AcDbSymbolTable
 70
3
  0
LAYER
  5
BD7
330
BD6
100
AcDbSymbolTableRecord
100
AcDbLayerTableRecord
  2
0
 70
   0
 62
   7
  6
CONTINUOUS
  0
LAYER
  5
BD8
330
BD6
100
AcDbSymbolTableRecord
100
AcDbLayerTableRecord
  2
none
 70
    0
 62
    7
  6
CONTINUOUS
  0
LAYER
  5
BD9
330
BD6
100
AcDbSymbolTableRecord
100
AcDbLayerTableRecord
  2
Body003
 70
    0
 62
    7
  6
CONTINUOUS
  0
ENDTAB
  0
TABLE
  2
STYLE
  5
70
330
0
100
AcDbSymbolTable
 70
     2
  0
STYLE
  5
71
330
70
100
AcDbSymbolTableRecord
100
AcDbTextStyleTableRecord
  2
STANDARD
 70
     0
 40
0.0
 41
1.0
 50
0.0
 71
     0
 42
2.5
  3
arial.ttf
  4

  0
STYLE
  5
72
330
70
100
AcDbSymbolTableRecord
100
AcDbTextStyleTableRecord
  2
ANNOTATIVE
 70
     0
 40
0.0
 41
1.0
 50
0.0
 71
     0
 42
2.5
  3
arial.ttf
  4

  0
ENDTAB
  0
TABLE
  2
VIEW
  5
73
330
0
100
AcDbSymbolTable
 70
     0
  0
ENDTAB
  0
TABLE
  2
UCS
  5
74
330
0
100
AcDbSymbolTable
 70
     0
  0
ENDTAB
  0
TABLE
  2
APPID
  5
75
330
0
100
AcDbSymbolTable
 70
     2
  0
APPID
  5
76
330
75
100
AcDbSymbolTableRecord
100
AcDbRegAppTableRecord
  2
ACAD
 70
     0
  0
APPID
  5
77
330
75
100
AcDbSymbolTableRecord
100
AcDbRegAppTableRecord
  2
ACADANNOTATIVE
 70
     0
  0
ENDTAB
  0
TABLE
  2
DIMSTYLE
  5
78
330
0
100
AcDbSymbolTable
 70
     2
  0
DIMSTYLE
105
79
330
78
100
AcDbSymbolTableRecord
100
AcDbDimStyleTableRecord
  2
STANDARD
 70
     0
  3

  4

  5

  6

  7

 40
0.0
 41
2.5
 42
0.625
 43
3.75
 44
1.25
 45
0.0
 46
0.0
 47
0.0
 48
0.0
140
2.5
141
2.5
142
0.0
143
0.03937007874016
144
1.0
145
0.0
146
1.0
147
0.625
 71
     0
 72
     0
 73
     0
 74
     0
 75
     0
 76
     0
 77
     1
 78
     8
170
     0
171
     3
172
     1
173
     0
174
     0
175
     0
176
     0
177
     0
178
     0
270
     2
271
     2
272
     2
273
     2
274
     3
340
71
275
     0
280
     0
281
     0
282
     0
283
     0
284
     8
285
     0
286
     0
287
     3
288
     0
  0
ENDTAB
  0
TABLE
  2
BLOCK_RECORD
  5
A01
330
0
100
AcDbSymbolTable
  70
5
  0
BLOCK_RECORD
  5
A02
330
A01
100
AcDbSymbolTableRecord
100
AcDbBlockTableRecord
  2
*MODEL_SPACE
  0
BLOCK_RECORD
  5
A03
330
A01
100
AcDbSymbolTableRecord
100
AcDbBlockTableRecord
  2
*PAPER_SPACE
  0
ENDTAB
  0
ENDSEC
  0
SECTION
  2
BLOCKS
  0
BLOCK
  5
A04
330
A02
100
AcDbEntity
  8
0
100
AcDbBlockBegin
  2
*MODEL_SPACE
 70
   0
 10
0
 20
0
 30
0
  3
*MODEL_SPACE
  1
 
  0
ENDBLK
  5
A05
330
A02
100
AcDbEntity
  8
0
100
AcDbBlockEnd
  0
BLOCK
  5
A06
330
A03
100
AcDbEntity
 67
1
  8
0
100
AcDbBlockBegin
  2
*PAPER_SPACE
 70
   0
 10
0
 20
0
 30
0
  3
*PAPER_SPACE
  1
 
  0
ENDBLK
  5
A07
330
A03
100
AcDbEntity
 67
    1
  8
0
100
AcDbBlockEnd
  0
ENDSEC
  0
SECTION
  2
ENTITIES
  0
LINE
  5
A08
330
A02
100
AcDbEntity
  8
Body003
100
AcDbLine
 10
6
 20
-1
 30
7
 11
14
 21
-1
 31
7
  0
LINE
  5
A09
330
A02
100
AcDbEntity
  8
Body003
100
AcDbLine
 10
14
 20
-1
 30
8
 11
14
 21
-1
 31
7
  0
LINE
  5
A0A
330
A02
100
AcDbEntity
  8
Body003
100
AcDbLine
 10
6
 20
-1
 30
8
 11
14
 21
-1
 31
8
  0
LINE
  5
A0B
330
A02
100
AcDbEntity
  8
Body003
100
AcDbLine
 10
6
 20
-1
 30
7
 11
6
 21
-1
 31
8
  0
LINE
  5
A0C
330
A02
100
AcDbEntity
  8
Body003
100
AcDbLine
 10
6
 20
63
 30
7
 11
6
 21
-1
 31
7
  0
ARC
  5
A0D
330
A02
100
AcDbEntity
  8
Body003
100
AcDbCircle
 10
8
 20
63
 30
7
 40
2
100
AcDbArc
 50
90
 51
180
  0
LINE
  5
A0E
330
A02
100
AcDbEntity
  8
Body003
100
AcDbLine
 10
6
 20
-1
 30
7
 11
14
 21
-1
 31
7
  0
LINE
  5
A0F
330
A02
100
AcDbEntity
  8
Body003
100
AcDbLine
 10
185
 20
65
 30
7
 11
8
 21
65
 31
7
  0
LINE
  5
A10
330
A02
100
AcDbEntity
  8
Body003
100
AcDbLine
 10
14
 20
-1
 30
7
 11
14
 21
5
 31
7
  0
ARC
  5
A11
330
A02
100
AcDbEntity
  8
Body003
100
AcDbCircle
 10
185
 20
63
 30
7
 40
2
100
AcDbArc
 50
0
 51
90
  0
LINE
  5
A12
330
A02
100
AcDbEntity
  8
Body003
100
AcDbLine
 10
14
 20
5
 30
7
 11
70
 21
5
 31
7
  0
LINE
  5
A13
330
A02
100
AcDbEntity
  8
Body003
100
AcDbLine
 10
187
 20
-1
 30
7
 11
187
 21
63
 31
7
  0
ARC
  5
A14
330
A02
100
AcDbEntity
  8
Body003
100
AcDbCircle
 10
70
 20
7
 30
7
 40
2
100
AcDbArc
 50
-90
 51
-2.54444e-14
  0
LINE
  5
A15
330
A02
100
AcDbEntity
  8
Body003
100
AcDbLine
 10
179
 20
-1
 30
7
 11
187
 21
-1
 31
7
  0
LINE
  5
A16
330
A02
100
AcDbEntity
  8
Body003
100
AcDbLine
 10
72
 20
7
 30
7
 11
72
 21
21
 31
7
  0
LINE
  5
A17
330
A02
100
AcDbEntity
  8
Body003
100
AcDbLine
 10
179
 20
5
 30
7
 11
179
 21
-1
 31
7
  0
ARC
  5
A18
330
A02
100
AcDbEntity
  8
Body003
100
AcDbCircle
 10
74
 20
21
 30
7
 40
2
100
AcDbArc
 50
90
 51
180
  0
LINE
  5
A19
330
A02
100
AcDbEntity
  8
Body003
100
AcDbLine
 10
123
 20
5
 30
7
 11
179
 21
5
 31
7
  0
LINE
  5
A1A
330
A02
100
AcDbEntity
  8
Body003
100
AcDbLine
 10
74
 20
23
 30
7
 11
119
 21
23
 31
7
  0
ARC
  5
A1B
330
A02
100
AcDbEntity
  8
Body003
100
AcDbCircle
 10
123
 20
7
 30
7
 40
2
100
AcDbArc
 50
180
 51
-90
  0
ARC
  5
A1C
330
A02
100
AcDbEntity
  8
Body003
100
AcDbCircle
 10
119
 20
21
 30
7
 40
2
100
AcDbArc
 50
0
 51
90
  0
LINE
  5
A1D
330
A02
100
AcDbEntity
  8
Body003
100
AcDbLine
 10
121
 20
21
 30
7
 11
121
 21
7
 31
7
  0
CIRCLE
  5
A1E
330
A02
100
AcDbEntity
  8
Body003
100
AcDbCircle
 10
17
 20
60
 40
2
  0
CIRCLE
  5
A1F
330
A02
100
AcDbEntity
  8
Body003
100
AcDbCircle
 10
9
 20
44
 40
2
  0
CIRCLE
  5
A20
330
A02
100
AcDbEntity
  8
Body003
100
AcDbCircle
 10
42
 20
35
 40
28
  0
CIRCLE
  5
A21
330
A02
100
AcDbEntity
  8
Body003
100
AcDbCircle
 10
67
 20
60
 40
2
  0
CIRCLE
  5
A22
330
A02
100
AcDbEntity
  8
Body003
100
AcDbCircle
 10
80.5
 20
60
 40
2
  0
LINE
  5
A23
330
A02
100
AcDbEntity
  8
Body003
100
AcDbLine
 10
12.8732
 20
22.4454
 30
7
 11
12.8732
 21
14
 31
7
  0
LINE
  5
A24
330
A02
100
AcDbEntity
  8
Body003
100
AcDbLine
 10
11.4752
 20
22.4454
 30
7
 11
12.8732
 21
22.4454
 31
7
  0
LINE
  5
A25
330
A02
100
AcDbEntity
  8
Body003
100
AcDbLine
 10
12.8732
 20
14
 30
7
 11
11.4752
 21
14
 31
7
  0
LINE
  5
A26
330
A02
100
AcDbEntity
  8
Body003
100
AcDbLine
 10
9.33231
 20
20.3025
 30
7
 11
11.4752
 21
22.4454
 31
7
  0
LINE
  5
A27
330
A02
100
AcDbEntity
  8
Body003
100
AcDbLine
 10
11.4752
 20
14
 30
7
 11
11.4752
 21
20.4744
 31
7
  0
LINE
  5
A28
330
A02
100
AcDbEntity
  8
Body003
100
AcDbLine
 10
10.3178
 20
19.317
 30
7
 11
9.33231
 21
20.3025
 31
7
  0
LINE
  5
A29
330
A02
100
AcDbEntity
  8
Body003
100
AcDbLine
 10
11.4752
 20
20.4744
 30
7
 11
10.3178
 21
19.317
 31
7
  0
CIRCLE
  5
A2A
330
A02
100
AcDbEntity
  8
Body003
100
AcDbCircle
 10
17
 20
10
 40
2
  0
CIRCLE
  5
A2B
330
A02
100
AcDbEntity
  8
Body003
100
AcDbCircle
 10
9
 20
4
 40
2
  0
CIRCLE
  5
A2C
330
A02
100
AcDbEntity
  8
Body003
100
AcDbCircle
 10
80.5
 20
28
 40
2
  0
CIRCLE
  5
A2D
330
A02
100
AcDbEntity
  8
Body003
100
AcDbCircle
 10
67
 20
10
 40
2
  0
CIRCLE
  5
A2E
330
A02
100
AcDbEntity
  8
Body003
100
AcDbCircle
 10
112.5
 20
60
 40
2
  0
CIRCLE
  5
A2F
330
A02
100
AcDbEntity
  8
Body003
100
AcDbCircle
 10
126
 20
60
 40
2
  0
CIRCLE
  5
A30
330
A02
100
AcDbEntity
  8
Body003
100
AcDbCircle
 10
96.5
 20
44
 40
18
  0
CIRCLE
  5
A31
330
A02
100
AcDbEntity
  8
Body003
100
AcDbCircle
 10
176
 20
60
 40
2
  0
CIRCLE
  5
A32
330
A02
100
AcDbEntity
  8
Body003
100
AcDbCircle
 10
151
 20
35
 40
28
  0
CIRCLE
  5
A33
330
A02
100
AcDbEntity
  8
Body003
100
AcDbCircle
 10
184
 20
44
 40
2
  0
CIRCLE
  5
A34
330
A02
100
AcDbEntity
  8
Body003
100
AcDbCircle
 10
112.5
 20
28
 40
2
  0
CIRCLE
  5
A35
330
A02
100
AcDbEntity
  8
Body003
100
AcDbCircle
 10
126
 20
10
 40
2
  0
SPLINE
  5
A36
330
A02
100
AcDbEntity
  8
Body003
100
AcDbSpline
210
0
220
0
230
1
 70
8
 71
2
 72
6
 73
3
 74
0
 40
0
 40
0
 40
0
 40
1
 40
1
 40
1
 10
180.266
 20
21.288
 30
7
 10
180.618
 20
21.4501
 30
7
 10
181.034
 20
21.4484
 30
7
  0
SPLINE
  5
A37
330
A02
100
AcDbEntity
  8
Body003
100
AcDbSpline
210
0
220
0
230
1
 70
8
 71
3
 72
8
 73
4
 74
0
 40
0
 40
0
 40
0
 40
0
 40
1
 40
1
 40
1
 40
1
 10
181.034
 20
21.4484
 30
7
 10
181.34
 20
21.4493
 30
7
 10
181.63
 20
21.3689
 30
7
 10
181.882
 20
21.2078
 30
7
  0
LINE
  5
A38
330
A02
100
AcDbEntity
  8
Body003
100
AcDbLine
 10
182.386
 20
22.285
 30
7
 11
181.882
 21
21.2078
 31
7
  0
SPLINE
  5
A39
330
A02
100
AcDbEntity
  8
Body003
100
AcDbSpline
210
0
220
0
230
1
 70
8
 71
3
 72
8
 73
4
 74
0
 40
0
 40
0
 40
0
 40
0
 40
1
 40
1
 40
1
 40
1
 10
182.386
 20
22.285
 30
7
 10
181.969
 20
22.4942
 30
7
 10
181.491
 20
22.5836
 30
7
 10
180.999
 20
22.5829
 30
7
  0
SPLINE
  5
A3A
330
A02
100
AcDbEntity
  8
Body003
100
AcDbSpline
210
0
220
0
230
1
 70
8
 71
3
 72
8
 73
4
 74
0
 40
0
 40
0
 40
0
 40
0
 40
1
 40
1
 40
1
 40
1
 10
180.999
 20
22.5829
 30
7
 10
180.526
 20
22.5836
 30
7
 10
180.064
 20
22.4947
 30
7
 10
179.651
 20
22.3002
 30
7
  0
SPLINE
  5
A3B
330
A02
100
AcDbEntity
  8
Body003
100
AcDbSpline
210
0
220
0
230
1
 70
8
 71
3
 72
8
 73
4
 74
0
 40
0
 40
0
 40
0
 40
0
 40
1
 40
1
 40
1
 40
1
 10
179.651
 20
22.3002
 30
7
 10
179.251
 20
22.1155
 30
7
 10
178.904
 20
21.8346
 30
7
 10
178.631
 20
21.4828
 30
7
  0
SPLINE
  5
A3C
330
A02
100
AcDbEntity
  8
Body003
100
AcDbSpline
210
0
220
0
230
1
 70
8
 71
3
 72
8
 73
4
 74
0
 40
0
 40
0
 40
0
 40
0
 40
1
 40
1
 40
1
 40
1
 10
178.631
 20
21.4828
 30
7
 10
178.334
 20
21.0986
 30
7
 10
178.128
 20
20.6323
 30
7
 10
177.99
 20
20.1345
 30
7
  0
SPLINE
  5
A3D
330
A02
100
AcDbEntity
  8
Body003
100
AcDbSpline
210
0
220
0
230
1
 70
8
 71
3
 72
8
 73
4
 74
0
 40
0
 40
0
 40
0
 40
0
 40
1
 40
1
 40
1
 40
1
 10
177.99
 20
20.1345
 30
7
 10
177.828
 20
19.5435
 30
7
 10
177.768
 20
18.9077
 30
7
 10
177.768
 20
18.2628
 30
7
  0
SPLINE
  5
A3E
330
A02
100
AcDbEntity
  8
Body003
100
AcDbSpline
210
0
220
0
230
1
 70
8
 71
3
 72
8
 73
4
 74
0
 40
0
 40
0
 40
0
 40
0
 40
1
 40
1
 40
1
 40
1
 10
177.768
 20
18.2628
 30
7
 10
177.769
 20
17.5399
 30
7
 10
177.84
 20
16.8228
 30
7
 10
178.054
 20
16.1696
 30
7
  0
SPLINE
  5
A3F
330
A02
100
AcDbEntity
  8
Body003
100
AcDbSpline
210
0
220
0
230
1
 70
8
 71
3
 72
8
 73
4
 74
0
 40
0
 40
0
 40
0
 40
0
 40
1
 40
1
 40
1
 40
1
 10
178.054
 20
16.1696
 30
7
 10
178.23
 20
15.6386
 30
7
 10
178.494
 20
15.1485
 30
7
 10
178.868
 20
14.7678
 30
7
  0
LINE
  5
A40
330
A02
100
AcDbEntity
  8
Body003
100
AcDbLine
 10
179.498
 20
16.1085
 30
7
 11
178.868
 21
14.7678
 31
7
  0
SPLINE
  5
A41
330
A02
100
AcDbEntity
  8
Body003
100
AcDbSpline
210
0
220
0
230
1
 70
8
 71
3
 72
8
 73
4
 74
0
 40
0
 40
0
 40
0
 40
0
 40
1
 40
1
 40
1
 40
1
 10
179.498
 20
16.1085
 30
7
 10
179.384
 20
16.3776
 30
7
 10
179.308
 20
16.6901
 30
7
 10
179.258
 20
17.0252
 30
7
  0
SPLINE
  5
A42
330
A02
100
AcDbEntity
  8
Body003
100
AcDbSpline
210
0
220
0
230
1
 70
8
 71
2
 72
6
 73
3
 74
0
 40
0
 40
0
 40
0
 40
1
 40
1
 40
1
 10
179.258
 20
17.0252
 30
7
 10
179.174
 20
17.6105
 30
7
 10
179.166
 20
18.2628
 30
7
  0
SPLINE
  5
A43
330
A02
100
AcDbEntity
  8
Body003
100
AcDbSpline
210
0
220
0
230
1
 70
8
 71
3
 72
8
 73
4
 74
0
 40
0
 40
0
 40
0
 40
0
 40
1
 40
1
 40
1
 40
1
 10
179.166
 20
18.2628
 30
7
 10
179.173
 20
18.7851
 30
7
 10
179.21
 20
19.2935
 30
7
 10
179.307
 20
19.7525
 30
7
  0
SPLINE
  5
A44
330
A02
100
AcDbEntity
  8
Body003
100
AcDbSpline
210
0
220
0
230
1
 70
8
 71
3
 72
8
 73
4
 74
0
 40
0
 40
0
 40
0
 40
0
 40
1
 40
1
 40
1
 40
1
 10
179.307
 20
19.7525
 30
7
 10
179.389
 20
20.1227
 30
7
 10
179.508
 20
20.4652
 30
7
 10
179.682
 20
20.7418
 30
7
  0
SPLINE
  5
A45
330
A02
100
AcDbEntity
  8
Body003
100
AcDbSpline
210
0
220
0
230
1
 70
8
 71
3
 72
8
 73
4
 74
0
 40
0
 40
0
 40
0
 40
0
 40
1
 40
1
 40
1
 40
1
 10
179.682
 20
20.7418
 30
7
 10
179.834
 20
20.9872
 30
7
 10
180.03
 20
21.1788
 30
7
 10
180.266
 20
21.288
 30
7
  0
SPLINE
  5
A46
330
A02
100
AcDbEntity
  8
Body003
100
AcDbSpline
210
0
220
0
230
1
 70
8
 71
3
 72
8
 73
4
 74
0
 40
0
 40
0
 40
0
 40
0
 40
1
 40
1
 40
1
 40
1
 10
183.948
 20
20.3827
 30
7
 10
183.771
 20
20.9237
 30
7
 10
183.494
 20
21.4205
 30
7
 10
183.096
 20
21.7922
 30
7
  0
LINE
  5
A47
330
A02
100
AcDbEntity
  8
Body003
100
AcDbLine
 10
182.466
 20
20.4629
 30
7
 11
183.096
 21
21.7922
 31
7
  0
SPLINE
  5
A48
330
A02
100
AcDbEntity
  8
Body003
100
AcDbSpline
210
0
220
0
230
1
 70
8
 71
2
 72
6
 73
3
 74
0
 40
0
 40
0
 40
0
 40
1
 40
1
 40
1
 10
182.466
 20
20.4629
 30
7
 10
182.466
 20
20.4515
 30
7
 10
182.478
 20
20.44
 30
7
  0
SPLINE
  5
A49
330
A02
100
AcDbEntity
  8
Body003
100
AcDbSpline
210
0
220
0
230
1
 70
8
 71
3
 72
8
 73
4
 74
0
 40
0
 40
0
 40
0
 40
0
 40
1
 40
1
 40
1
 40
1
 10
182.478
 20
20.44
 30
7
 10
182.6
 20
20.1713
 30
7
 10
182.684
 20
19.8588
 30
7
 10
182.741
 20
19.5233
 30
7
  0
SPLINE
  5
A4A
330
A02
100
AcDbEntity
  8
Body003
100
AcDbSpline
210
0
220
0
230
1
 70
8
 71
3
 72
8
 73
4
 74
0
 40
0
 40
0
 40
0
 40
0
 40
1
 40
1
 40
1
 40
1
 10
182.741
 20
19.5233
 30
7
 10
182.808
 20
19.1316
 30
7
 10
182.837
 20
18.7049
 30
7
 10
182.844
 20
18.2628
 30
7
  0
SPLINE
  5
A4B
330
A02
100
AcDbEntity
  8
Body003
100
AcDbSpline
210
0
220
0
230
1
 70
8
 71
3
 72
8
 73
4
 74
0
 40
0
 40
0
 40
0
 40
0
 40
1
 40
1
 40
1
 40
1
 10
182.844
 20
18.2628
 30
7
 10
182.837
 20
17.7386
 30
7
 10
182.799
 20
17.2281
 30
7
 10
182.699
 20
16.7655
 30
7
  0
SPLINE
  5
A4C
330
A02
100
AcDbEntity
  8
Body003
100
AcDbSpline
210
0
220
0
230
1
 70
8
 71
3
 72
8
 73
4
 74
0
 40
0
 40
0
 40
0
 40
0
 40
1
 40
1
 40
1
 40
1
 10
182.699
 20
16.7655
 30
7
 10
182.62
 20
16.3942
 30
7
 10
182.503
 20
16.0508
 30
7
 10
182.329
 20
15.7762
 30
7
  0
SPLINE
  5
A4D
330
A02
100
AcDbEntity
  8
Body003
100
AcDbSpline
210
0
220
0
230
1
 70
8
 71
3
 72
8
 73
4
 74
0
 40
0
 40
0
 40
0
 40
0
 40
1
 40
1
 40
1
 40
1
 10
182.329
 20
15.7762
 30
7
 10
182.175
 20
15.5334
 30
7
 10
181.976
 20
15.3436
 30
7
 10
181.737
 20
15.2299
 30
7
  0
SPLINE
  5
A4E
330
A02
100
AcDbEntity
  8
Body003
100
AcDbSpline
210
0
220
0
230
1
 70
8
 71
2
 72
6
 73
3
 74
0
 40
0
 40
0
 40
0
 40
1
 40
1
 40
1
 10
181.737
 20
15.2299
 30
7
 10
181.381
 20
15.0642
 30
7
 10
180.965
 20
15.0657
 30
7
  0
SPLINE
  5
A4F
330
A02
100
AcDbEntity
  8
Body003
100
AcDbSpline
210
0
220
0
230
1
 70
8
 71
3
 72
8
 73
4
 74
0
 40
0
 40
0
 40
0
 40
0
 40
1
 40
1
 40
1
 40
1
 10
180.965
 20
15.0657
 30
7
 10
180.627
 20
15.0643
 30
7
 10
180.313
 20
15.1551
 30
7
 10
180.071
 20
15.3522
 30
7
  0
LINE
  5
A50
330
A02
100
AcDbEntity
  8
Body003
100
AcDbLine
 10
179.556
 20
14.2636
 30
7
 11
180.071
 21
15.3522
 31
7
  0
SPLINE
  5
A51
330
A02
100
AcDbEntity
  8
Body003
100
AcDbSpline
210
0
220
0
230
1
 70
8
 71
3
 72
8
 73
4
 74
0
 40
0
 40
0
 40
0
 40
0
 40
1
 40
1
 40
1
 40
1
 10
179.556
 20
14.2636
 30
7
 10
179.992
 20
14.0404
 30
7
 10
180.489
 20
13.9418
 30
7
 10
180.999
 20
13.9427
 30
7
  0
SPLINE
  5
A52
330
A02
100
AcDbEntity
  8
Body003
100
AcDbSpline
210
0
220
0
230
1
 70
8
 71
3
 72
8
 73
4
 74
0
 40
0
 40
0
 40
0
 40
0
 40
1
 40
1
 40
1
 40
1
 10
180.999
 20
13.9427
 30
7
 10
181.476
 20
13.9421
 30
7
 10
181.939
 20
14.0265
 30
7
 10
182.352
 20
14.2177
 30
7
  0
SPLINE
  5
A53
330
A02
100
AcDbEntity
  8
Body003
100
AcDbSpline
210
0
220
0
230
1
 70
8
 71
3
 72
8
 73
4
 74
0
 40
0
 40
0
 40
0
 40
0
 40
1
 40
1
 40
1
 40
1
 10
182.352
 20
14.2177
 30
7
 10
182.75
 20
14.4006
 30
7
 10
183.097
 20
14.6807
 30
7
 10
183.371
 20
15.0313
 30
7
  0
SPLINE
  5
A54
330
A02
100
AcDbEntity
  8
Body003
100
AcDbSpline
210
0
220
0
230
1
 70
8
 71
3
 72
8
 73
4
 74
0
 40
0
 40
0
 40
0
 40
0
 40
1
 40
1
 40
1
 40
1
 10
183.371
 20
15.0313
 30
7
 10
183.674
 20
15.4148
 30
7
 10
183.881
 20
15.8832
 30
7
 10
184.017
 20
16.3835
 30
7
  0
SPLINE
  5
A55
330
A02
100
AcDbEntity
  8
Body003
100
AcDbSpline
210
0
220
0
230
1
 70
8
 71
3
 72
8
 73
4
 74
0
 40
0
 40
0
 40
0
 40
0
 40
1
 40
1
 40
1
 40
1
 10
184.017
 20
16.3835
 30
7
 10
184.181
 20
16.9776
 30
7
 10
184.242
 20
17.6157
 30
7
 10
184.242
 20
18.2628
 30
7
  0
SPLINE
  5
A56
330
A02
100
AcDbEntity
  8
Body003
100
AcDbSpline
210
0
220
0
230
1
 70
8
 71
3
 72
8
 73
4
 74
0
 40
0
 40
0
 40
0
 40
0
 40
1
 40
1
 40
1
 40
1
 10
184.242
 20
18.2628
 30
7
 10
184.242
 20
18.9944
 30
7
 10
184.168
 20
19.7204
 30
7
 10
183.948
 20
20.3827
 30
7
  0
CIRCLE
  5
A57
330
A02
100
AcDbEntity
  8
Body003
100
AcDbCircle
 10
176
 20
10
 40
2
  0
CIRCLE
  5
A58
330
A02
100
AcDbEntity
  8
Body003
100
AcDbCircle
 10
184
 20
4
 40
2
  0
LINE
  5
A59
330
A02
100
AcDbEntity
  8
Body003
100
AcDbLine
 10
14
 20
-1
 30
8
 11
14
 21
5
 31
8
  0
LINE
  5
A5A
330
A02
100
AcDbEntity
  8
Body003
100
AcDbLine
 10
14
 20
5
 30
8
 11
14
 21
5
 31
7
  0
LINE
  5
A5B
330
A02
100
AcDbEntity
  8
Body003
100
AcDbLine
 10
14
 20
-1
 30
7
 11
14
 21
5
 31
7
  0
LINE
  5
A5C
330
A02
100
AcDbEntity
  8
Body003
100
AcDbLine
 10
14
 20
-1
 30
8
 11
14
 21
-1
 31
7
  0
LINE
  5
A5D
330
A02
100
AcDbEntity
  8
Body003
100
AcDbLine
 10
6
 20
63
 30
8
 11
6
 21
-1
 31
8
  0
ARC
  5
A5E
330
A02
100
AcDbEntity
  8
Body003
100
AcDbCircle
 10
8
 20
63
 30
8
 40
2
100
AcDbArc
 50
90
 51
180
  0
LINE
  5
A5F
330
A02
100
AcDbEntity
  8
Body003
100
AcDbLine
 10
6
 20
-1
 30
8
 11
14
 21
-1
 31
8
  0
LINE
  5
A60
330
A02
100
AcDbEntity
  8
Body003
100
AcDbLine
 10
185
 20
65
 30
8
 11
8
 21
65
 31
8
  0
LINE
  5
A61
330
A02
100
AcDbEntity
  8
Body003
100
AcDbLine
 10
14
 20
-1
 30
8
 11
14
 21
5
 31
8
  0
ARC
  5
A62
330
A02
100
AcDbEntity
  8
Body003
100
AcDbCircle
 10
185
 20
63
 30
8
 40
2
100
AcDbArc
 50
0
 51
90
  0
LINE
  5
A63
330
A02
100
AcDbEntity
  8
Body003
100
AcDbLine
 10
14
 20
5
 30
8
 11
70
 21
5
 31
8
  0
LINE
  5
A64
330
A02
100
AcDbEntity
  8
Body003
100
AcDbLine
 10
187
 20
-1
 30
8
 11
187
 21
63
 31
8
  0
ARC
  5
A65
330
A02
100
AcDbEntity
  8
Body003
100
AcDbCircle
 10
70
 20
7
 30
8
 40
2
100
AcDbArc
 50
-90
 51
-2.54444e-14
  0
LINE
  5
A66
330
A02
100
AcDbEntity
  8
Body003
100
AcDbLine
 10
179
 20
-1
 30
8
 11
187
 21
-1
 31
8
  0
LINE
  5
A67
330
A02
100
AcDbEntity
  8
Body003
100
AcDbLine
 10
72
 20
7
 30
8
 11
72
 21
21
 31
8
  0
LINE
  5
A68
330
A02
100
AcDbEntity
  8
Body003
100
AcDbLine
 10
179
 20
5
 30
8
 11
179
 21
-1
 31
8
  0
ARC
  5
A69
330
A02
100
AcDbEntity
  8
Body003
100
AcDbCircle
 10
74
 20
21
 30
8
 40
2
100
AcDbArc
 50
90
 51
180
  0
LINE
  5
A6A
330
A02
100
AcDbEntity
  8
Body003
100
AcDbLine
 10
123
 20
5
 30
8
 11
179
 21
5
 31
8
  0
LINE
  5
A6B
330
A02
100
AcDbEntity
  8
Body003
100
AcDbLine
 10
74
 20
23
 30
8
 11
119
 21
23
 31
8
  0
ARC
  5
A6C
330
A02
100
AcDbEntity
  8
Body003
100
AcDbCircle
 10
123
 20
7
 30
8
 40
2
100
AcDbArc
 50
180
 51
-90
  0
ARC
  5
A6D
330
A02
100
AcDbEntity
  8
Body003
100
AcDbCircle
 10
119
 20
21
 30
8
 40
2
100
AcDbArc
 50
0
 51
90
  0
LINE
  5
A6E
330
A02
100
AcDbEntity
  8
Body003
100
AcDbLine
 10
121
 20
21
 30
8
 11
121
 21
7
 31
8
  0
CIRCLE
  5
A6F
330
A02
100
AcDbEntity
  8
Body003
100
AcDbCircle
 10
17
 20
60
 40
2
  0
CIRCLE
  5
A70
330
A02
100
AcDbEntity
  8
Body003
100
AcDbCircle
 10
9
 20
44
 40
2
  0
CIRCLE
  5
A71
330
A02
100
AcDbEntity
  8
Body003
100
AcDbCircle
 10
42
 20
35
 40
28
  0
CIRCLE
  5
A72
330
A02
100
AcDbEntity
  8
Body003
100
AcDbCircle
 10
67
 20
60
 40
2
  0
CIRCLE
  5
A73
330
A02
100
AcDbEntity
  8
Body003
100
AcDbCircle
 10
80.5
 20
60
 40
2
  0
LINE
  5
A74
330
A02
100
AcDbEntity
  8
Body003
100
AcDbLine
 10
12.8732
 20
22.4454
 30
8
 11
12.8732
 21
14
 31
8
  0
LINE
  5
A75
330
A02
100
AcDbEntity
  8
Body003
100
AcDbLine
 10
11.4752
 20
22.4454
 30
8
 11
12.8732
 21
22.4454
 31
8
  0
LINE
  5
A76
330
A02
100
AcDbEntity
  8
Body003
100
AcDbLine
 10
12.8732
 20
14
 30
8
 11
11.4752
 21
14
 31
8
  0
LINE
  5
A77
330
A02
100
AcDbEntity
  8
Body003
100
AcDbLine
 10
9.33231
 20
20.3025
 30
8
 11
11.4752
 21
22.4454
 31
8
  0
LINE
  5
A78
330
A02
100
AcDbEntity
  8
Body003
100
AcDbLine
 10
11.4752
 20
14
 30
8
 11
11.4752
 21
20.4744
 31
8
  0
LINE
  5
A79
330
A02
100
AcDbEntity
  8
Body003
100
AcDbLine
 10
10.3178
 20
19.317
 30
8
 11
9.33231
 21
20.3025
 31
8
  0
LINE
  5
A7A
330
A02
100
AcDbEntity
  8
Body003
100
AcDbLine
 10
11.4752
 20
20.4744
 30
8
 11
10.3178
 21
19.317
 31
8
  0
CIRCLE
  5
A7B
330
A02
100
AcDbEntity
  8
Body003
100
AcDbCircle
 10
17
 20
10
 40
2
  0
CIRCLE
  5
A7C
330
A02
100
AcDbEntity
  8
Body003
100
AcDbCircle
 10
9
 20
4
 40
2
  0
CIRCLE
  5
A7D
330
A02
100
AcDbEntity
  8
Body003
100
AcDbCircle
 10
80.5
 20
28
 40
2
  0
CIRCLE
  5
A7E
330
A02
100
AcDbEntity
  8
Body003
100
AcDbCircle
 10
67
 20
10
 40
2
  0
CIRCLE
  5
A7F
330
A02
100
AcDbEntity
  8
Body003
100
AcDbCircle
 10
112.5
 20
60
 40
2
  0
CIRCLE
  5
A80
330
A02
100
AcDbEntity
  8
Body003
100
AcDbCircle
 10
126
 20
60
 40
2
  0
CIRCLE
  5
A81
330
A02
100
AcDbEntity
  8
Body003
100
AcDbCircle
 10
96.5
 20
44
 40
18
  0
CIRCLE
  5
A82
330
A02
100
AcDbEntity
  8
Body003
100
AcDbCircle
 10
176
 20
60
 40
2
  0
CIRCLE
  5
A83
330
A02
100
AcDbEntity
  8
Body003
100
AcDbCircle
 10
151
 20
35
 40
28
  0
CIRCLE
  5
A84
330
A02
100
AcDbEntity
  8
Body003
100
AcDbCircle
 10
184
 20
44
 40
2
  0
CIRCLE
  5
A85
330
A02
100
AcDbEntity
  8
Body003
100
AcDbCircle
 10
112.5
 20
28
 40
2
  0
CIRCLE
  5
A86
330
A02
100
AcDbEntity
  8
Body003
100
AcDbCircle
 10
126
 20
10
 40
2
  0
SPLINE
  5
A87
330
A02
100
AcDbEntity
  8
Body003
100
AcDbSpline
210
0
220
0
230
1
 70
8
 71
2
 72
6
 73
3
 74
0
 40
0
 40
0
 40
0
 40
1
 40
1
 40
1
 10
180.266
 20
21.288
 30
8
 10
180.618
 20
21.4501
 30
8
 10
181.034
 20
21.4484
 30
8
  0
SPLINE
  5
A88
330
A02
100
AcDbEntity
  8
Body003
100
AcDbSpline
210
0
220
0
230
1
 70
8
 71
3
 72
8
 73
4
 74
0
 40
0
 40
0
 40
0
 40
0
 40
1
 40
1
 40
1
 40
1
 10
181.034
 20
21.4484
 30
8
 10
181.34
 20
21.4493
 30
8
 10
181.63
 20
21.3689
 30
8
 10
181.882
 20
21.2078
 30
8
  0
LINE
  5
A89
330
A02
100
AcDbEntity
  8
Body003
100
AcDbLine
 10
182.386
 20
22.285
 30
8
 11
181.882
 21
21.2078
 31
8
  0
SPLINE
  5
A8A
330
A02
100
AcDbEntity
  8
Body003
100
AcDbSpline
210
0
220
0
230
1
 70
8
 71
3
 72
8
 73
4
 74
0
 40
0
 40
0
 40
0
 40
0
 40
1
 40
1
 40
1
 40
1
 10
182.386
 20
22.285
 30
8
 10
181.969
 20
22.4942
 30
8
 10
181.491
 20
22.5836
 30
8
 10
180.999
 20
22.5829
 30
8
  0
SPLINE
  5
A8B
330
A02
100
AcDbEntity
  8
Body003
100
AcDbSpline
210
0
220
0
230
1
 70
8
 71
3
 72
8
 73
4
 74
0
 40
0
 40
0
 40
0
 40
0
 40
1
 40
1
 40
1
 40
1
 10
180.999
 20
22.5829
 30
8
 10
180.526
 20
22.5836
 30
8
 10
180.064
 20
22.4947
 30
8
 10
179.651
 20
22.3002
 30
8
  0
SPLINE
  5
A8C
330
A02
100
AcDbEntity
  8
Body003
100
AcDbSpline
210
0
220
0
230
1
 70
8
 71
3
 72
8
 73
4
 74
0
 40
0
 40
0
 40
0
 40
0
 40
1
 40
1
 40
1
 40
1
 10
179.651
 20
22.3002
 30
8
 10
179.251
 20
22.1155
 30
8
 10
178.904
 20
21.8346
 30
8
 10
178.631
 20
21.4828
 30
8
  0
SPLINE
  5
A8D
330
A02
100
AcDbEntity
  8
Body003
100
AcDbSpline
210
0
220
0
230
1
 70
8
 71
3
 72
8
 73
4
 74
0
 40
0
 40
0
 40
0
 40
0
 40
1
 40
1
 40
1
 40
1
 10
178.631
 20
21.4828
 30
8
 10
178.334
 20
21.0986
 30
8
 10
178.128
 20
20.6323
 30
8
 10
177.99
 20
20.1345
 30
8
  0
SPLINE
  5
A8E
330
A02
100
AcDbEntity
  8
Body003
100
AcDbSpline
210
0
220
0
230
1
 70
8
 71
3
 72
8
 73
4
 74
0
 40
0
 40
0
 40
0
 40
0
 40
1
 40
1
 40
1
 40
1
 10
177.99
 20
20.1345
 30
8
 10
177.828
 20
19.5435
 30
8
 10
177.768
 20
18.9077
 30
8
 10
177.768
 20
18.2628
 30
8
  0
SPLINE
  5
A8F
330
A02
100
AcDbEntity
  8
Body003
100
AcDbSpline
210
0
220
0
230
1
 70
8
 71
3
 72
8
 73
4
 74
0
 40
0
 40
0
 40
0
 40
0
 40
1
 40
1
 40
1
 40
1
 10
177.768
 20
18.2628
 30
8
 10
177.769
 20
17.5399
 30
8
 10
177.84
 20
16.8228
 30
8
 10
178.054
 20
16.1696
 30
8
  0
SPLINE
  5
A90
330
A02
100
AcDbEntity
  8
Body003
100
AcDbSpline
210
0
220
0
230
1
 70
8
 71
3
 72
8
 73
4
 74
0
 40
0
 40
0
 40
0
 40
0
 40
1
 40
1
 40
1
 40
1
 10
178.054
 20
16.1696
 30
8
 10
178.23
 20
15.6386
 30
8
 10
178.494
 20
15.1485
 30
8
 10
178.868
 20
14.7678
 30
8
  0
LINE
  5
A91
330
A02
100
AcDbEntity
  8
Body003
100
AcDbLine
 10
179.498
 20
16.1085
 30
8
 11
178.868
 21
14.7678
 31
8
  0
SPLINE
  5
A92
330
A02
100
AcDbEntity
  8
Body003
100
AcDbSpline
210
0
220
0
230
1
 70
8
 71
3
 72
8
 73
4
 74
0
 40
0
 40
0
 40
0
 40
0
 40
1
 40
1
 40
1
 40
1
 10
179.498
 20
16.1085
 30
8
 10
179.384
 20
16.3776
 30
8
 10
179.308
 20
16.6901
 30
8
 10
179.258
 20
17.0252
 30
8
  0
SPLINE
  5
A93
330
A02
100
AcDbEntity
  8
Body003
100
AcDbSpline
210
0
220
0
230
1
 70
8
 71
2
 72
6
 73
3
 74
0
 40
0
 40
0
 40
0
 40
1
 40
1
 40
1
 10
179.258
 20
17.0252
 30
8
 10
179.174
 20
17.6105
 30
8
 10
179.166
 20
18.2628
 30
8
  0
SPLINE
  5
A94
330
A02
100
AcDbEntity
  8
Body003
100
AcDbSpline
210
0
220
0
230
1
 70
8
 71
3
 72
8
 73
4
 74
0
 40
0
 40
0
 40
0
 40
0
 40
1
 40
1
 40
1
 40
1
 10
179.166
 20
18.2628
 30
8
 10
179.173
 20
18.7851
 30
8
 10
179.21
 20
19.2935
 30
8
 10
179.307
 20
19.7525
 30
8
  0
SPLINE
  5
A95
330
A02
100
AcDbEntity
  8
Body003
100
AcDbSpline
210
0
220
0
230
1
 70
8
 71
3
 72
8
 73
4
 74
0
 40
0
 40
0
 40
0
 40
0
 40
1
 40
1
 40
1
 40
1
 10
179.307
 20
19.7525
 30
8
 10
179.389
 20
20.1227
 30
8
 10
179.508
 20
20.4652
 30
8
 10
179.682
 20
20.7418
 30
8
  0
SPLINE
  5
A96
330
A02
100
AcDbEntity
  8
Body003
100
AcDbSpline
210
0
220
0
230
1
 70
8
 71
3
 72
8
 73
4
 74
0
 40
0
 40
0
 40
0
 40
0
 40
1
 40
1
 40
1
 40
1
 10
179.682
 20
20.7418
 30
8
 10
179.834
 20
20.9872
 30
8
 10
180.03
 20
21.1788
 30
8
 10
180.266
 20
21.288
 30
8
  0
SPLINE
  5
A97
330
A02
100
AcDbEntity
  8
Body003
100
AcDbSpline
210
0
220
0
230
1
 70
8
 71
3
 72
8
 73
4
 74
0
 40
0
 40
0
 40
0
 40
0
 40
1
 40
1
 40
1
 40
1
 10
183.948
 20
20.3827
 30
8
 10
183.771
 20
20.9237
 30
8
 10
183.494
 20
21.4205
 30
8
 10
183.096
 20
21.7922
 30
8
  0
LINE
  5
A98
330
A02
100
AcDbEntity
  8
Body003
100
AcDbLine
 10
182.466
 20
20.4629
 30
8
 11
183.096
 21
21.7922
 31
8
  0
SPLINE
  5
A99
330
A02
100
AcDbEntity
  8
Body003
100
AcDbSpline
210
0
220
0
230
1
 70
8
 71
2
 72
6
 73
3
 74
0
 40
0
 40
0
 40
0
 40
1
 40
1
 40
1
 10
182.466
 20
20.4629
 30
8
 10
182.466
 20
20.4515
 30
8
 10
182.478
 20
20.44
 30
8
  0
SPLINE
  5
A9A
330
A02
100
AcDbEntity
  8
Body003
100
AcDbSpline
210
0
220
0
230
1
 70
8
 71
3
 72
8
 73
4
 74
0
 40
0
 40
0
 40
0
 40
0
 40
1
 40
1
 40
1
 40
1
 10
182.478
 20
20.44
 30
8
 10
182.6
 20
20.1713
 30
8
 10
182.684
 20
19.8588
 30
8
 10
182.741
 20
19.5233
 30
8
  0
SPLINE
  5
A9B
330
A02
100
AcDbEntity
  8
Body003
100
AcDbSpline
210
0
220
0
230
1
 70
8
 71
3
 72
8
 73
4
 74
0
 40
0
 40
0
 40
0
 40
0
 40
1
 40
1
 40
1
 40
1
 10
182.741
 20
19.5233
 30
8
 10
182.808
 20
19.1316
 30
8
 10
182.837
 20
18.7049
 30
8
 10
182.844
 20
18.2628
 30
8
  0
SPLINE
  5
A9C
330
A02
100
AcDbEntity
  8
Body003
100
AcDbSpline
210
0
220
0
230
1
 70
8
 71
3
 72
8
 73
4
 74
0
 40
0
 40
0
 40
0
 40
0
 40
1
 40
1
 40
1
 40
1
 10
182.844
 20
18.2628
 30
8
 10
182.837
 20
17.7386
 30
8
 10
182.799
 20
17.2281
 30
8
 10
182.699
 20
16.7655
 30
8
  0
SPLINE
  5
A9D
330
A02
100
AcDbEntity
  8
Body003
100
AcDbSpline
210
0
220
0
230
1
 70
8
 71
3
 72
8
 73
4
 74
0
 40
0
 40
0
 40
0
 40
0
 40
1
 40
1
 40
1
 40
1
 10
182.699
 20
16.7655
 30
8
 10
182.62
 20
16.3942
 30
8
 10
182.503
 20
16.0508
 30
8
 10
182.329
 20
15.7762
 30
8
  0
SPLINE
  5
A9E
330
A02
100
AcDbEntity
  8
Body003
100
AcDbSpline
210
0
220
0
230
1
 70
8
 71
3
 72
8
 73
4
 74
0
 40
0
 40
0
 40
0
 40
0
 40
1
 40
1
 40
1
 40
1
 10
182.329
 20
15.7762
 30
8
 10
182.175
 20
15.5334
 30
8
 10
181.976
 20
15.3436
 30
8
 10
181.737
 20
15.2299
 30
8
  0
SPLINE
  5
A9F
330
A02
100
AcDbEntity
  8
Body003
100
AcDbSpline
210
0
220
0
230
1
 70
8
 71
2
 72
6
 73
3
 74
0
 40
0
 40
0
 40
0
 40
1
 40
1
 40
1
 10
181.737
 20
15.2299
 30
8
 10
181.381
 20
15.0642
 30
8
 10
180.965
 20
15.0657
 30
8
  0
SPLINE
  5
AA0
330
A02
100
AcDbEntity
  8
Body003
100
AcDbSpline
210
0
220
0
230
1
 70
8
 71
3
 72
8
 73
4
 74
0
 40
0
 40
0
 40
0
 40
0
 40
1
 40
1
 40
1
 40
1
 10
180.965
 20
15.0657
 30
8
 10
180.627
 20
15.0643
 30
8
 10
180.313
 20
15.1551
 30
8
 10
180.071
 20
15.3522
 30
8
  0
LINE
  5
AA1
330
A02
100
AcDbEntity
  8
Body003
100
AcDbLine
 10
179.556
 20
14.2636
 30
8
 11
180.071
 21
15.3522
 31
8
  0
SPLINE
  5
AA2
330
A02
100
AcDbEntity
  8
Body003
100
AcDbSpline
210
0
220
0
230
1
 70
8
 71
3
 72
8
 73
4
 74
0
 40
0
 40
0
 40
0
 40
0
 40
1
 40
1
 40
1
 40
1
 10
179.556
 20
14.2636
 30
8
 10
179.992
 20
14.0404
 30
8
 10
180.489
 20
13.9418
 30
8
 10
180.999
 20
13.9427
 30
8
  0
SPLINE
  5
AA3
330
A02
100
AcDbEntity
  8
Body003
100
AcDbSpline
210
0
220
0
230
1
 70
8
 71
3
 72
8
 73
4
 74
0
 40
0
 40
0
 40
0
 40
0
 40
1
 40
1
 40
1
 40
1
 10
180.999
 20
13.9427
 30
8
 10
181.476
 20
13.9421
 30
8
 10
181.939
 20
14.0265
 30
8
 10
182.352
 20
14.2177
 30
8
  0
SPLINE
  5
AA4
330
A02
100
AcDbEntity
  8
Body003
100
AcDbSpline
210
0
220
0
230
1
 70
8
 71
3
 72
8
 73
4
 74
0
 40
0
 40
0
 40
0
 40
0
 40
1
 40
1
 40
1
 40
1
 10
182.352
 20
14.2177
 30
8
 10
182.75
 20
14.4006
 30
8
 10
183.097
 20
14.6807
 30
8
 10
183.371
 20
15.0313
 30
8
  0
SPLINE
  5
AA5
330
A02
100
AcDbEntity
  8
Body003
100
AcDbSpline
210
0
220
0
230
1
 70
8
 71
3
 72
8
 73
4
 74
0
 40
0
 40
0
 40
0
 40
0
 40
1
 40
1
 40
1
 40
1
 10
183.371
 20
15.0313
 30
8
 10
183.674
 20
15.4148
 30
8
 10
183.881
 20
15.8832
 30
8
 10
184.017
 20
16.3835
 30
8
  0
SPLINE
  5
AA6
330
A02
100
AcDbEntity
  8
Body003
100
AcDbSpline
210
0
220
0
230
1
 70
8
 71
3
 72
8
 73
4
 74
0
 40
0
 40
0
 40
0
 40
0
 40
1
 40
1
 40
1
 40
1
 10
184.017
 20
16.3835
 30
8
 10
184.181
 20
16.9776
 30
8
 10
184.242
 20
17.6157
 30
8
 10
184.242
 20
18.2628
 30
8
  0
SPLINE
  5
AA7
330
A02
100
AcDbEntity
  8
Body003
100
AcDbSpline
210
0
220
0
230
1
 70
8
 71
3
 72
8
 73
4
 74
0
 40
0
 40
0
 40
0
 40
0
 40
1
 40
1
 40
1
 40
1
 10
184.242
 20
18.2628
 30
8
 10
184.242
 20
18.9944
 30
8
 10
184.168
 20
19.7204
 30
8
 10
183.948
 20
20.3827
 30
8
  0
CIRCLE
  5
AA8
330
A02
100
AcDbEntity
  8
Body003
100
AcDbCircle
 10
176
 20
10
 40
2
  0
CIRCLE
  5
AA9
330
A02
100
AcDbEntity
  8
Body003
100
AcDbCircle
 10
184
 20
4
 40
2
  0
LINE
  5
AAA
330
A02
100
AcDbEntity
  8
Body003
100
AcDbLine
 10
6
 20
63
 30
7
 11
6
 21
-1
 31
7
  0
LINE
  5
AAB
330
A02
100
AcDbEntity
  8
Body003
100
AcDbLine
 10
6
 20
-1
 30
7
 11
6
 21
-1
 31
8
  0
LINE
  5
AAC
330
A02
100
AcDbEntity
  8
Body003
100
AcDbLine
 10
6
 20
63
 30
8
 11
6
 21
-1
 31
8
  0
LINE
  5
AAD
330
A02
100
AcDbEntity
  8
Body003
100
AcDbLine
 10
6
 20
63
 30
8
 11
6
 21
63
 31
7
  0
ARC
  5
AAE
330
A02
100
AcDbEntity
  8
Body003
100
AcDbCircle
 10
8
 20
63
 30
8
 40
2
100
AcDbArc
 50
90
 51
180
  0
LINE
  5
AAF
330
A02
100
AcDbEntity
  8
Body003
100
AcDbLine
 10
6
 20
63
 30
8
 11
6
 21
63
 31
7
  0
ARC
  5
AB0
330
A02
100
AcDbEntity
  8
Body003
100
AcDbCircle
 10
8
 20
63
 30
7
 40
2
100
AcDbArc
 50
90
 51
180
  0
LINE
  5
AB1
330
A02
100
AcDbEntity
  8
Body003
100
AcDbLine
 10
8
 20
65
 30
8
 11
8
 21
65
 31
7
  0
LINE
  5
AB2
330
A02
100
AcDbEntity
  8
Body003
100
AcDbLine
 10
185
 20
65
 30
7
 11
8
 21
65
 31
7
  0
LINE
  5
AB3
330
A02
100
AcDbEntity
  8
Body003
100
AcDbLine
 10
8
 20
65
 30
8
 11
8
 21
65
 31
7
  0
LINE
  5
AB4
330
A02
100
AcDbEntity
  8
Body003
100
AcDbLine
 10
185
 20
65
 30
8
 11
8
 21
65
 31
8
  0
LINE
  5
AB5
330
A02
100
AcDbEntity
  8
Body003
100
AcDbLine
 10
185
 20
65
 30
8
 11
185
 21
65
 31
7
  0
ARC
  5
AB6
330
A02
100
AcDbEntity
  8
Body003
100
AcDbCircle
 10
185
 20
63
 30
8
 40
2
100
AcDbArc
 50
0
 51
90
  0
LINE
  5
AB7
330
A02
100
AcDbEntity
  8
Body003
100
AcDbLine
 10
185
 20
65
 30
8
 11
185
 21
65
 31
7
  0
ARC
  5
AB8
330
A02
100
AcDbEntity
  8
Body003
100
AcDbCircle
 10
185
 20
63
 30
7
 40
2
100
AcDbArc
 50
0
 51
90
  0
LINE
  5
AB9
330
A02
100
AcDbEntity
  8
Body003
100
AcDbLine
 10
187
 20
63
 30
8
 11
187
 21
63
 31
7
  0
LINE
  5
ABA
330
A02
100
AcDbEntity
  8
Body003
100
AcDbLine
 10
14
 20
5
 30
8
 11
70
 21
5
 31
8
  0
LINE
  5
ABB
330
A02
100
AcDbEntity
  8
Body003
100
AcDbLine
 10
70
 20
5
 30
8
 11
70
 21
5
 31
7
  0
LINE
  5
ABC
330
A02
100
AcDbEntity
  8
Body003
100
AcDbLine
 10
14
 20
5
 30
7
 11
70
 21
5
 31
7
  0
LINE
  5
ABD
330
A02
100
AcDbEntity
  8
Body003
100
AcDbLine
 10
14
 20
5
 30
8
 11
14
 21
5
 31
7
  0
LINE
  5
ABE
330
A02
100
AcDbEntity
  8
Body003
100
AcDbLine
 10
187
 20
-1
 30
7
 11
187
 21
63
 31
7
  0
LINE
  5
ABF
330
A02
100
AcDbEntity
  8
Body003
100
AcDbLine
 10
187
 20
63
 30
8
 11
187
 21
63
 31
7
  0
LINE
  5
AC0
330
A02
100
AcDbEntity
  8
Body003
100
AcDbLine
 10
187
 20
-1
 30
8
 11
187
 21
63
 31
8
  0
LINE
  5
AC1
330
A02
100
AcDbEntity
  8
Body003
100
AcDbLine
 10
187
 20
-1
 30
7
 11
187
 21
-1
 31
8
  0
ARC
  5
AC2
330
A02
100
AcDbEntity
  8
Body003
100
AcDbCircle
 10
70
 20
7
 30
8
 40
2
100
AcDbArc
 50
-90
 51
-2.54444e-14
  0
LINE
  5
AC3
330
A02
100
AcDbEntity
  8
Body003
100
AcDbLine
 10
72
 20
7
 30
8
 11
72
 21
7
 31
7
  0
ARC
  5
AC4
330
A02
100
AcDbEntity
  8
Body003
100
AcDbCircle
 10
70
 20
7
 30
7
 40
2
100
AcDbArc
 50
-90
 51
-2.54444e-14
  0
LINE
  5
AC5
330
A02
100
AcDbEntity
  8
Body003
100
AcDbLine
 10
70
 20
5
 30
8
 11
70
 21
5
 31
7
  0
LINE
  5
AC6
330
A02
100
AcDbEntity
  8
Body003
100
AcDbLine
 10
179
 20
-1
 30
7
 11
187
 21
-1
 31
7
  0
LINE
  5
AC7
330
A02
100
AcDbEntity
  8
Body003
100
AcDbLine
 10
187
 20
-1
 30
7
 11
187
 21
-1
 31
8
  0
LINE
  5
AC8
330
A02
100
AcDbEntity
  8
Body003
100
AcDbLine
 10
179
 20
-1
 30
8
 11
187
 21
-1
 31
8
  0
LINE
  5
AC9
330
A02
100
AcDbEntity
  8
Body003
100
AcDbLine
 10
179
 20
-1
 30
8
 11
179
 21
-1
 31
7
  0
LINE
  5
ACA
330
A02
100
AcDbEntity
  8
Body003
100
AcDbLine
 10
72
 20
7
 30
8
 11
72
 21
21
 31
8
  0
LINE
  5
ACB
330
A02
100
AcDbEntity
  8
Body003
100
AcDbLine
 10
72
 20
21
 30
8
 11
72
 21
21
 31
7
  0
LINE
  5
ACC
330
A02
100
AcDbEntity
  8
Body003
100
AcDbLine
 10
72
 20
7
 30
7
 11
72
 21
21
 31
7
  0
LINE
  5
ACD
330
A02
100
AcDbEntity
  8
Body003
100
AcDbLine
 10
72
 20
7
 30
8
 11
72
 21
7
 31
7
  0
LINE
  5
ACE
330
A02
100
AcDbEntity
  8
Body003
100
AcDbLine
 10
179
 20
5
 30
8
 11
179
 21
-1
 31
8
  0
LINE
  5
ACF
330
A02
100
AcDbEntity
  8
Body003
100
AcDbLine
 10
179
 20
-1
 30
8
 11
179
 21
-1
 31
7
  0
LINE
  5
AD0
330
A02
100
AcDbEntity
  8
Body003
100
AcDbLine
 10
179
 20
5
 30
7
 11
179
 21
-1
 31
7
  0
LINE
  5
AD1
330
A02
100
AcDbEntity
  8
Body003
100
AcDbLine
 10
179
 20
5
 30
8
 11
179
 21
5
 31
7
  0
ARC
  5
AD2
330
A02
100
AcDbEntity
  8
Body003
100
AcDbCircle
 10
74
 20
21
 30
8
 40
2
100
AcDbArc
 50
90
 51
180
  0
LINE
  5
AD3
330
A02
100
AcDbEntity
  8
Body003
100
AcDbLine
 10
72
 20
21
 30
8
 11
72
 21
21
 31
7
  0
ARC
  5
AD4
330
A02
100
AcDbEntity
  8
Body003
100
AcDbCircle
 10
74
 20
21
 30
7
 40
2
100
AcDbArc
 50
90
 51
180
  0
LINE
  5
AD5
330
A02
100
AcDbEntity
  8
Body003
100
AcDbLine
 10
74
 20
23
 30
8
 11
74
 21
23
 31
7
  0
LINE
  5
AD6
330
A02
100
AcDbEntity
  8
Body003
100
AcDbLine
 10
123
 20
5
 30
8
 11
179
 21
5
 31
8
  0
LINE
  5
AD7
330
A02
100
AcDbEntity
  8
Body003
100
AcDbLine
 10
179
 20
5
 30
8
 11
179
 21
5
 31
7
  0
LINE
  5
AD8
330
A02
100
AcDbEntity
  8
Body003
100
AcDbLine
 10
123
 20
5
 30
7
 11
179
 21
5
 31
7
  0
LINE
  5
AD9
330
A02
100
AcDbEntity
  8
Body003
100
AcDbLine
 10
123
 20
5
 30
8
 11
123
 21
5
 31
7
  0
LINE
  5
ADA
330
A02
100
AcDbEntity
  8
Body003
100
AcDbLine
 10
74
 20
23
 30
8
 11
119
 21
23
 31
8
  0
LINE
  5
ADB
330
A02
100
AcDbEntity
  8
Body003
100
AcDbLine
 10
119
 20
23
 30
8
 11
119
 21
23
 31
7
  0
LINE
  5
ADC
330
A02
100
AcDbEntity
  8
Body003
100
AcDbLine
 10
74
 20
23
 30
7
 11
119
 21
23
 31
7
  0
LINE
  5
ADD
330
A02
100
AcDbEntity
  8
Body003
100
AcDbLine
 10
74
 20
23
 30
8
 11
74
 21
23
 31
7
  0
ARC
  5
ADE
330
A02
100
AcDbEntity
  8
Body003
100
AcDbCircle
 10
123
 20
7
 30
8
 40
2
100
AcDbArc
 50
180
 51
-90
  0
LINE
  5
ADF
330
A02
100
AcDbEntity
  8
Body003
100
AcDbLine
 10
123
 20
5
 30
8
 11
123
 21
5
 31
7
  0
ARC
  5
AE0
330
A02
100
AcDbEntity
  8
Body003
100
AcDbCircle
 10
123
 20
7
 30
7
 40
2
100
AcDbArc
 50
180
 51
-90
  0
LINE
  5
AE1
330
A02
100
AcDbEntity
  8
Body003
100
AcDbLine
 10
121
 20
7
 30
8
 11
121
 21
7
 31
7
  0
ARC
  5
AE2
330
A02
100
AcDbEntity
  8
Body003
100
AcDbCircle
 10
119
 20
21
 30
8
 40
2
100
AcDbArc
 50
0
 51
90
  0
LINE
  5
AE3
330
A02
100
AcDbEntity
  8
Body003
100
AcDbLine
 10
119
 20
23
 30
8
 11
119
 21
23
 31
7
  0
ARC
  5
AE4
330
A02
100
AcDbEntity
  8
Body003
100
AcDbCircle
 10
119
 20
21
 30
7
 40
2
100
AcDbArc
 50
0
 51
90
  0
LINE
  5
AE5
330
A02
100
AcDbEntity
  8
Body003
100
AcDbLine
 10
121
 20
21
 30
8
 11
121
 21
21
 31
7
  0
LINE
  5
AE6
330
A02
100
AcDbEntity
  8
Body003
100
AcDbLine
 10
121
 20
21
 30
8
 11
121
 21
7
 31
8
  0
LINE
  5
AE7
330
A02
100
AcDbEntity
  8
Body003
100
AcDbLine
 10
121
 20
7
 30
8
 11
121
 21
7
 31
7
  0
LINE
  5
AE8
330
A02
100
AcDbEntity
  8
Body003
100
AcDbLine
 10
121
 20
21
 30
7
 11
121
 21
7
 31
7
  0
LINE
  5
AE9
330
A02
100
AcDbEntity
  8
Body003
100
AcDbLine
 10
121
 20
21
 30
8
 11
121
 21
21
 31
7
  0
CIRCLE
  5
AEA
330
A02
100
AcDbEntity
  8
Body003
100
AcDbCircle
 10
17
 20
60
 40
2
  0
LINE
  5
AEB
330
A02
100
AcDbEntity
  8
Body003
100
AcDbLine
 10
19
 20
60
 30
8
 11
19
 21
60
 31
7
  0
CIRCLE
  5
AEC
330
A02
100
AcDbEntity
  8
Body003
100
AcDbCircle
 10
17
 20
60
 40
2
  0
LINE
  5
AED
330
A02
100
AcDbEntity
  8
Body003
100
AcDbLine
 10
19
 20
60
 30
8
 11
19
 21
60
 31
7
  0
CIRCLE
  5
AEE
330
A02
100
AcDbEntity
  8
Body003
100
AcDbCircle
 10
9
 20
44
 40
2
  0
LINE
  5
AEF
330
A02
100
AcDbEntity
  8
Body003
100
AcDbLine
 10
11
 20
44
 30
8
 11
11
 21
44
 31
7
  0
CIRCLE
  5
AF0
330
A02
100
AcDbEntity
  8
Body003
100
AcDbCircle
 10
9
 20
44
 40
2
  0
LINE
  5
AF1
330
A02
100
AcDbEntity
  8
Body003
100
AcDbLine
 10
11
 20
44
 30
8
 11
11
 21
44
 31
7
  0
CIRCLE
  5
AF2
330
A02
100
AcDbEntity
  8
Body003
100
AcDbCircle
 10
42
 20
35
 40
28
  0
LINE
  5
AF3
330
A02
100
AcDbEntity
  8
Body003
100
AcDbLine
 10
70
 20
35
 30
8
 11
70
 21
35
 31
7
  0
CIRCLE
  5
AF4
330
A02
100
AcDbEntity
  8
Body003
100
AcDbCircle
 10
42
 20
35
 40
28
  0
LINE
  5
AF5
330
A02
100
AcDbEntity
  8
Body003
100
AcDbLine
 10
70
 20
35
 30
8
 11
70
 21
35
 31
7
  0
CIRCLE
  5
AF6
330
A02
100
AcDbEntity
  8
Body003
100
AcDbCircle
 10
67
 20
60
 40
2
  0
LINE
  5
AF7
330
A02
100
AcDbEntity
  8
Body003
100
AcDbLine
 10
69
 20
60
 30
8
 11
69
 21
60
 31
7
  0
CIRCLE
  5
AF8
330
A02
100
AcDbEntity
  8
Body003
100
AcDbCircle
 10
67
 20
60
 40
2
  0
LINE
  5
AF9
330
A02
100
AcDbEntity
  8
Body003
100
AcDbLine
 10
69
 20
60
 30
8
 11
69
 21
60
 31
7
  0
CIRCLE
  5
AFA
330
A02
100
AcDbEntity
  8
Body003
100
AcDbCircle
 10
80.5
 20
60
 40
2
  0
LINE
  5
AFB
330
A02
100
AcDbEntity
  8
Body003
100
AcDbLine
 10
82.5
 20
60
 30
8
 11
82.5
 21
60
 31
7
  0
CIRCLE
  5
AFC
330
A02
100
AcDbEntity
  8
Body003
100
AcDbCircle
 10
80.5
 20
60
 40
2
  0
LINE
  5
AFD
330
A02
100
AcDbEntity
  8
Body003
100
AcDbLine
 10
82.5
 20
60
 30
8
 11
82.5
 21
60
 31
7
  0
LINE
  5
AFE
330
A02
100
AcDbEntity
  8
Body003
100
AcDbLine
 10
12.8732
 20
22.4454
 30
8
 11
12.8732
 21
14
 31
8
  0
LINE
  5
AFF
330
A02
100
AcDbEntity
  8
Body003
100
AcDbLine
 10
12.8732
 20
14
 30
8
 11
12.8732
 21
14
 31
7
  0
LINE
  5
B00
330
A02
100
AcDbEntity
  8
Body003
100
AcDbLine
 10
12.8732
 20
22.4454
 30
7
 11
12.8732
 21
14
 31
7
  0
LINE
  5
B01
330
A02
100
AcDbEntity
  8
Body003
100
AcDbLine
 10
12.8732
 20
22.4454
 30
8
 11
12.8732
 21
22.4454
 31
7
  0
LINE
  5
B02
330
A02
100
AcDbEntity
  8
Body003
100
AcDbLine
 10
11.4752
 20
22.4454
 30
8
 11
12.8732
 21
22.4454
 31
8
  0
LINE
  5
B03
330
A02
100
AcDbEntity
  8
Body003
100
AcDbLine
 10
12.8732
 20
22.4454
 30
8
 11
12.8732
 21
22.4454
 31
7
  0
LINE
  5
B04
330
A02
100
AcDbEntity
  8
Body003
100
AcDbLine
 10
11.4752
 20
22.4454
 30
7
 11
12.8732
 21
22.4454
 31
7
  0
LINE
  5
B05
330
A02
100
AcDbEntity
  8
Body003
100
AcDbLine
 10
11.4752
 20
22.4454
 30
8
 11
11.4752
 21
22.4454
 31
7
  0
LINE
  5
B06
330
A02
100
AcDbEntity
  8
Body003
100
AcDbLine
 10
12.8732
 20
14
 30
8
 11
11.4752
 21
14
 31
8
  0
LINE
  5
B07
330
A02
100
AcDbEntity
  8
Body003
100
AcDbLine
 10
11.4752
 20
14
 30
8
 11
11.4752
 21
14
 31
7
  0
LINE
  5
B08
330
A02
100
AcDbEntity
  8
Body003
100
AcDbLine
 10
12.8732
 20
14
 30
7
 11
11.4752
 21
14
 31
7
  0
LINE
  5
B09
330
A02
100
AcDbEntity
  8
Body003
100
AcDbLine
 10
12.8732
 20
14
 30
8
 11
12.8732
 21
14
 31
7
  0
LINE
  5
B0A
330
A02
100
AcDbEntity
  8
Body003
100
AcDbLine
 10
9.33231
 20
20.3025
 30
8
 11
11.4752
 21
22.4454
 31
8
  0
LINE
  5
B0B
330
A02
100
AcDbEntity
  8
Body003
100
AcDbLine
 10
11.4752
 20
22.4454
 30
8
 11
11.4752
 21
22.4454
 31
7
  0
LINE
  5
B0C
330
A02
100
AcDbEntity
  8
Body003
100
AcDbLine
 10
9.33231
 20
20.3025
 30
7
 11
11.4752
 21
22.4454
 31
7
  0
LINE
  5
B0D
330
A02
100
AcDbEntity
  8
Body003
100
AcDbLine
 10
9.33231
 20
20.3025
 30
8
 11
9.33231
 21
20.3025
 31
7
  0
LINE
  5
B0E
330
A02
100
AcDbEntity
  8
Body003
100
AcDbLine
 10
11.4752
 20
14
 30
8
 11
11.4752
 21
20.4744
 31
8
  0
LINE
  5
B0F
330
A02
100
AcDbEntity
  8
Body003
100
AcDbLine
 10
11.4752
 20
20.4744
 30
8
 11
11.4752
 21
20.4744
 31
7
  0
LINE
  5
B10
330
A02
100
AcDbEntity
  8
Body003
100
AcDbLine
 10
11.4752
 20
14
 30
7
 11
11.4752
 21
20.4744
 31
7
  0
LINE
  5
B11
330
A02
100
AcDbEntity
  8
Body003
100
AcDbLine
 10
11.4752
 20
14
 30
8
 11
11.4752
 21
14
 31
7
  0
LINE
  5
B12
330
A02
100
AcDbEntity
  8
Body003
100
AcDbLine
 10
10.3178
 20
19.317
 30
8
 11
9.33231
 21
20.3025
 31
8
  0
LINE
  5
B13
330
A02
100
AcDbEntity
  8
Body003
100
AcDbLine
 10
9.33231
 20
20.3025
 30
8
 11
9.33231
 21
20.3025
 31
7
  0
LINE
  5
B14
330
A02
100
AcDbEntity
  8
Body003
100
AcDbLine
 10
10.3178
 20
19.317
 30
7
 11
9.33231
 21
20.3025
 31
7
  0
LINE
  5
B15
330
A02
100
AcDbEntity
  8
Body003
100
AcDbLine
 10
10.3178
 20
19.317
 30
8
 11
10.3178
 21
19.317
 31
7
  0
LINE
  5
B16
330
A02
100
AcDbEntity
  8
Body003
100
AcDbLine
 10
11.4752
 20
20.4744
 30
8
 11
10.3178
 21
19.317
 31
8
  0
LINE
  5
B17
330
A02
100
AcDbEntity
  8
Body003
100
AcDbLine
 10
10.3178
 20
19.317
 30
8
 11
10.3178
 21
19.317
 31
7
  0
LINE
  5
B18
330
A02
100
AcDbEntity
  8
Body003
100
AcDbLine
 10
11.4752
 20
20.4744
 30
7
 11
10.3178
 21
19.317
 31
7
  0
LINE
  5
B19
330
A02
100
AcDbEntity
  8
Body003
100
AcDbLine
 10
11.4752
 20
20.4744
 30
8
 11
11.4752
 21
20.4744
 31
7
  0
CIRCLE
  5
B1A
330
A02
100
AcDbEntity
  8
Body003
100
AcDbCircle
 10
17
 20
10
 40
2
  0
LINE
  5
B1B
330
A02
100
AcDbEntity
  8
Body003
100
AcDbLine
 10
19
 20
10
 30
8
 11
19
 21
10
 31
7
  0
CIRCLE
  5
B1C
330
A02
100
AcDbEntity
  8
Body003
100
AcDbCircle
 10
17
 20
10
 40
2
  0
LINE
  5
B1D
330
A02
100
AcDbEntity
  8
Body003
100
AcDbLine
 10
19
 20
10
 30
8
 11
19
 21
10
 31
7
  0
CIRCLE
  5
B1E
330
A02
100
AcDbEntity
  8
Body003
100
AcDbCircle
 10
9
 20
4
 40
2
  0
LINE
  5
B1F
330
A02
100
AcDbEntity
  8
Body003
100
AcDbLine
 10
11
 20
4
 30
8
 11
11
 21
4
 31
7
  0
CIRCLE
  5
B20
330
A02
100
AcDbEntity
  8
Body003
100
AcDbCircle
 10
9
 20
4
 40
2
  0
LINE
  5
B21
330
A02
100
AcDbEntity
  8
Body003
100
AcDbLine
 10
11
 20
4
 30
8
 11
11
 21
4
 31
7
  0
CIRCLE
  5
B22
330
A02
100
AcDbEntity
  8
Body003
100
AcDbCircle
 10
80.5
 20
28
 40
2
  0
LINE
  5
B23
330
A02
100
AcDbEntity
  8
Body003
100
AcDbLine
 10
82.5
 20
28
 30
8
 11
82.5
 21
28
 31
7
  0
CIRCLE
  5
B24
330
A02
100
AcDbEntity
  8
Body003
100
AcDbCircle
 10
80.5
 20
28
 40
2
  0
LINE
  5
B25
330
A02
100
AcDbEntity
  8
Body003
100
AcDbLine
 10
82.5
 20
28
 30
8
 11
82.5
 21
28
 31
7
  0
CIRCLE
  5
B26
330
A02
100
AcDbEntity
  8
Body003
100
AcDbCircle
 10
67
 20
10
 40
2
  0
LINE
  5
B27
330
A02
100
AcDbEntity
  8
Body003
100
AcDbLine
 10
69
 20
10
 30
8
 11
69
 21
10
 31
7
  0
CIRCLE
  5
B28
330
A02
100
AcDbEntity
  8
Body003
100
AcDbCircle
 10
67
 20
10
 40
2
  0
LINE
  5
B29
330
A02
100
AcDbEntity
  8
Body003
100
AcDbLine
 10
69
 20
10
 30
8
 11
69
 21
10
 31
7
  0
CIRCLE
  5
B2A
330
A02
100
AcDbEntity
  8
Body003
100
AcDbCircle
 10
112.5
 20
60
 40
2
  0
LINE
  5
B2B
330
A02
100
AcDbEntity
  8
Body003
100
AcDbLine
 10
114.5
 20
60
 30
8
 11
114.5
 21
60
 31
7
  0
CIRCLE
  5
B2C
330
A02
100
AcDbEntity
  8
Body003
100
AcDbCircle
 10
112.5
 20
60
 40
2
  0
LINE
  5
B2D
330
A02
100
AcDbEntity
  8
Body003
100
AcDbLine
 10
114.5
 20
60
 30
8
 11
114.5
 21
60
 31
7
  0
CIRCLE
  5
B2E
330
A02
100
AcDbEntity
  8
Body003
100
AcDbCircle
 10
126
 20
60
 40
2
  0
LINE
  5
B2F
330
A02
100
AcDbEntity
  8
Body003
100
AcDbLine
 10
128
 20
60
 30
8
 11
128
 21
60
 31
7
  0
CIRCLE
  5
B30
330
A02
100
AcDbEntity
  8
Body003
100
AcDbCircle
 10
126
 20
60
 40
2
  0
LINE
  5
B31
330
A02
100
AcDbEntity
  8
Body003
100
AcDbLine
 10
128
 20
60
 30
8
 11
128
 21
60
 31
7
  0
CIRCLE
  5
B32
330
A02
100
AcDbEntity
  8
Body003
100
AcDbCircle
 10
96.5
 20
44
 40
18
  0
LINE
  5
B33
330
A02
100
AcDbEntity
  8
Body003
100
AcDbLine
 10
114.5
 20
44
 30
8
 11
114.5
 21
44
 31
7
  0
CIRCLE
  5
B34
330
A02
100
AcDbEntity
  8
Body003
100
AcDbCircle
 10
96.5
 20
44
 40
18
  0
LINE
  5
B35
330
A02
100
AcDbEntity
  8
Body003
100
AcDbLine
 10
114.5
 20
44
 30
8
 11
114.5
 21
44
 31
7
  0
CIRCLE
  5
B36
330
A02
100
AcDbEntity
  8
Body003
100
AcDbCircle
 10
176
 20
60
 40
2
  0
LINE
  5
B37
330
A02
100
AcDbEntity
  8
Body003
100
AcDbLine
 10
178
 20
60
 30
8
 11
178
 21
60
 31
7
  0
CIRCLE
  5
B38
330
A02
100
AcDbEntity
  8
Body003
100
AcDbCircle
 10
176
 20
60
 40
2
  0
LINE
  5
B39
330
A02
100
AcDbEntity
  8
Body003
100
AcDbLine
 10
178
 20
60
 30
8
 11
178
 21
60
 31
7
  0
CIRCLE
  5
B3A
330
A02
100
AcDbEntity
  8
Body003
100
AcDbCircle
 10
151
 20
35
 40
28
  0
LINE
  5
B3B
330
A02
100
AcDbEntity
  8
Body003
100
AcDbLine
 10
179
 20
35
 30
8
 11
179
 21
35
 31
7
  0
CIRCLE
  5
B3C
330
A02
100
AcDbEntity
  8
Body003
100
AcDbCircle
 10
151
 20
35
 40
28
  0
LINE
  5
B3D
330
A02
100
AcDbEntity
  8
Body003
100
AcDbLine
 10
179
 20
35
 30
8
 11
179
 21
35
 31
7
  0
CIRCLE
  5
B3E
330
A02
100
AcDbEntity
  8
Body003
100
AcDbCircle
 10
184
 20
44
 40
2
  0
LINE
  5
B3F
330
A02
100
AcDbEntity
  8
Body003
100
AcDbLine
 10
186
 20
44
 30
8
 11
186
 21
44
 31
7
  0
CIRCLE
  5
B40
330
A02
100
AcDbEntity
  8
Body003
100
AcDbCircle
 10
184
 20
44
 40
2
  0
LINE
  5
B41
330
A02
100
AcDbEntity
  8
Body003
100
AcDbLine
 10
186
 20
44
 30
8
 11
186
 21
44
 31
7
  0
CIRCLE
  5
B42
330
A02
100
AcDbEntity
  8
Body003
100
AcDbCircle
 10
112.5
 20
28
 40
2
  0
LINE
  5
B43
330
A02
100
AcDbEntity
  8
Body003
100
AcDbLine
 10
114.5
 20
28
 30
8
 11
114.5
 21
28
 31
7
  0
CIRCLE
  5
B44
330
A02
100
AcDbEntity
  8
Body003
100
AcDbCircle
 10
112.5
 20
28
 40
2
  0
LINE
  5
B45
330
A02
100
AcDbEntity
  8
Body003
100
AcDbLine
 10
114.5
 20
28
 30
8
 11
114.5
 21
28
 31
7
  0
CIRCLE
  5
B46
330
A02
100
AcDbEntity
  8
Body003
100
AcDbCircle
 10
126
 20
10
 40
2
  0
LINE
  5
B47
330
A02
100
AcDbEntity
  8
Body003
100
AcDbLine
 10
128
 20
10
 30
8
 11
128
 21
10
 31
7
  0
CIRCLE
  5
B48
330
A02
100
AcDbEntity
  8
Body003
100
AcDbCircle
 10
126
 20
10
 40
2
  0
LINE
  5
B49
330
A02
100
AcDbEntity
  8
Body003
100
AcDbLine
 10
128
 20
10
 30
8
 11
128
 21
10
 31
7
  0
SPLINE
  5
B4A
330
A02
100
AcDbEntity
  8
Body003
100
AcDbSpline
210
0
220
0
230
1
 70
8
 71
2
 72
6
 73
3
 74
0
 40
0
 40
0
 40
0
 40
1
 40
1
 40
1
 10
180.266
 20
21.288
 30
8
 10
180.618
 20
21.4501
 30
8
 10
181.034
 20
21.4484
 30
8
  0
LINE
  5
B4B
330
A02
100
AcDbEntity
  8
Body003
100
AcDbLine
 10
180.266
 20
21.288
 30
8
 11
180.266
 21
21.288
 31
7
  0
SPLINE
  5
B4C
330
A02
100
AcDbEntity
  8
Body003
100
AcDbSpline
210
0
220
0
230
1
 70
8
 71
2
 72
6
 73
3
 74
0
 40
0
 40
0
 40
0
 40
1
 40
1
 40
1
 10
180.266
 20
21.288
 30
7
 10
180.618
 20
21.4501
 30
7
 10
181.034
 20
21.4484
 30
7
  0
LINE
  5
B4D
330
A02
100
AcDbEntity
  8
Body003
100
AcDbLine
 10
181.034
 20
21.4484
 30
8
 11
181.034
 21
21.4484
 31
7
  0
SPLINE
  5
B4E
330
A02
100
AcDbEntity
  8
Body003
100
AcDbSpline
210
0
220
0
230
1
 70
8
 71
3
 72
8
 73
4
 74
0
 40
0
 40
0
 40
0
 40
0
 40
1
 40
1
 40
1
 40
1
 10
181.034
 20
21.4484
 30
8
 10
181.34
 20
21.4493
 30
8
 10
181.63
 20
21.3689
 30
8
 10
181.882
 20
21.2078
 30
8
  0
LINE
  5
B4F
330
A02
100
AcDbEntity
  8
Body003
100
AcDbLine
 10
181.034
 20
21.4484
 30
8
 11
181.034
 21
21.4484
 31
7
  0
SPLINE
  5
B50
330
A02
100
AcDbEntity
  8
Body003
100
AcDbSpline
210
0
220
0
230
1
 70
8
 71
3
 72
8
 73
4
 74
0
 40
0
 40
0
 40
0
 40
0
 40
1
 40
1
 40
1
 40
1
 10
181.034
 20
21.4484
 30
7
 10
181.34
 20
21.4493
 30
7
 10
181.63
 20
21.3689
 30
7
 10
181.882
 20
21.2078
 30
7
  0
LINE
  5
B51
330
A02
100
AcDbEntity
  8
Body003
100
AcDbLine
 10
181.882
 20
21.2078
 30
8
 11
181.882
 21
21.2078
 31
7
  0
LINE
  5
B52
330
A02
100
AcDbEntity
  8
Body003
100
AcDbLine
 10
182.386
 20
22.285
 30
8
 11
181.882
 21
21.2078
 31
8
  0
LINE
  5
B53
330
A02
100
AcDbEntity
  8
Body003
100
AcDbLine
 10
181.882
 20
21.2078
 30
8
 11
181.882
 21
21.2078
 31
7
  0
LINE
  5
B54
330
A02
100
AcDbEntity
  8
Body003
100
AcDbLine
 10
182.386
 20
22.285
 30
7
 11
181.882
 21
21.2078
 31
7
  0
LINE
  5
B55
330
A02
100
AcDbEntity
  8
Body003
100
AcDbLine
 10
182.386
 20
22.285
 30
8
 11
182.386
 21
22.285
 31
7
  0
SPLINE
  5
B56
330
A02
100
AcDbEntity
  8
Body003
100
AcDbSpline
210
0
220
0
230
1
 70
8
 71
3
 72
8
 73
4
 74
0
 40
0
 40
0
 40
0
 40
0
 40
1
 40
1
 40
1
 40
1
 10
182.386
 20
22.285
 30
8
 10
181.969
 20
22.4942
 30
8
 10
181.491
 20
22.5836
 30
8
 10
180.999
 20
22.5829
 30
8
  0
LINE
  5
B57
330
A02
100
AcDbEntity
  8
Body003
100
AcDbLine
 10
182.386
 20
22.285
 30
8
 11
182.386
 21
22.285
 31
7
  0
SPLINE
  5
B58
330
A02
100
AcDbEntity
  8
Body003
100
AcDbSpline
210
0
220
0
230
1
 70
8
 71
3
 72
8
 73
4
 74
0
 40
0
 40
0
 40
0
 40
0
 40
1
 40
1
 40
1
 40
1
 10
182.386
 20
22.285
 30
7
 10
181.969
 20
22.4942
 30
7
 10
181.491
 20
22.5836
 30
7
 10
180.999
 20
22.5829
 30
7
  0
LINE
  5
B59
330
A02
100
AcDbEntity
  8
Body003
100
AcDbLine
 10
180.999
 20
22.5829
 30
8
 11
180.999
 21
22.5829
 31
7
  0
SPLINE
  5
B5A
330
A02
100
AcDbEntity
  8
Body003
100
AcDbSpline
210
0
220
0
230
1
 70
8
 71
3
 72
8
 73
4
 74
0
 40
0
 40
0
 40
0
 40
0
 40
1
 40
1
 40
1
 40
1
 10
180.999
 20
22.5829
 30
8
 10
180.526
 20
22.5836
 30
8
 10
180.064
 20
22.4947
 30
8
 10
179.651
 20
22.3002
 30
8
  0
LINE
  5
B5B
330
A02
100
AcDbEntity
  8
Body003
100
AcDbLine
 10
180.999
 20
22.5829
 30
8
 11
180.999
 21
22.5829
 31
7
  0
SPLINE
  5
B5C
330
A02
100
AcDbEntity
  8
Body003
100
AcDbSpline
210
0
220
0
230
1
 70
8
 71
3
 72
8
 73
4
 74
0
 40
0
 40
0
 40
0
 40
0
 40
1
 40
1
 40
1
 40
1
 10
180.999
 20
22.5829
 30
7
 10
180.526
 20
22.5836
 30
7
 10
180.064
 20
22.4947
 30
7
 10
179.651
 20
22.3002
 30
7
  0
LINE
  5
B5D
330
A02
100
AcDbEntity
  8
Body003
100
AcDbLine
 10
179.651
 20
22.3002
 30
8
 11
179.651
 21
22.3002
 31
7
  0
SPLINE
  5
B5E
330
A02
100
AcDbEntity
  8
Body003
100
AcDbSpline
210
0
220
0
230
1
 70
8
 71
3
 72
8
 73
4
 74
0
 40
0
 40
0
 40
0
 40
0
 40
1
 40
1
 40
1
 40
1
 10
179.651
 20
22.3002
 30
8
 10
179.251
 20
22.1155
 30
8
 10
178.904
 20
21.8346
 30
8
 10
178.631
 20
21.4828
 30
8
  0
LINE
  5
B5F
330
A02
100
AcDbEntity
  8
Body003
100
AcDbLine
 10
179.651
 20
22.3002
 30
8
 11
179.651
 21
22.3002
 31
7
  0
SPLINE
  5
B60
330
A02
100
AcDbEntity
  8
Body003
100
AcDbSpline
210
0
220
0
230
1
 70
8
 71
3
 72
8
 73
4
 74
0
 40
0
 40
0
 40
0
 40
0
 40
1
 40
1
 40
1
 40
1
 10
179.651
 20
22.3002
 30
7
 10
179.251
 20
22.1155
 30
7
 10
178.904
 20
21.8346
 30
7
 10
178.631
 20
21.4828
 30
7
  0
LINE
  5
B61
330
A02
100
AcDbEntity
  8
Body003
100
AcDbLine
 10
178.631
 20
21.4828
 30
8
 11
178.631
 21
21.4828
 31
7
  0
SPLINE
  5
B62
330
A02
100
AcDbEntity
  8
Body003
100
AcDbSpline
210
0
220
0
230
1
 70
8
 71
3
 72
8
 73
4
 74
0
 40
0
 40
0
 40
0
 40
0
 40
1
 40
1
 40
1
 40
1
 10
178.631
 20
21.4828
 30
8
 10
178.334
 20
21.0986
 30
8
 10
178.128
 20
20.6323
 30
8
 10
177.99
 20
20.1345
 30
8
  0
LINE
  5
B63
330
A02
100
AcDbEntity
  8
Body003
100
AcDbLine
 10
178.631
 20
21.4828
 30
8
 11
178.631
 21
21.4828
 31
7
  0
SPLINE
  5
B64
330
A02
100
AcDbEntity
  8
Body003
100
AcDbSpline
210
0
220
0
230
1
 70
8
 71
3
 72
8
 73
4
 74
0
 40
0
 40
0
 40
0
 40
0
 40
1
 40
1
 40
1
 40
1
 10
178.631
 20
21.4828
 30
7
 10
178.334
 20
21.0986
 30
7
 10
178.128
 20
20.6323
 30
7
 10
177.99
 20
20.1345
 30
7
  0
LINE
  5
B65
330
A02
100
AcDbEntity
  8
Body003
100
AcDbLine
 10
177.99
 20
20.1345
 30
8
 11
177.99
 21
20.1345
 31
7
  0
SPLINE
  5
B66
330
A02
100
AcDbEntity
  8
Body003
100
AcDbSpline
210
0
220
0
230
1
 70
8
 71
3
 72
8
 73
4
 74
0
 40
0
 40
0
 40
0
 40
0
 40
1
 40
1
 40
1
 40
1
 10
177.99
 20
20.1345
 30
8
 10
177.828
 20
19.5435
 30
8
 10
177.768
 20
18.9077
 30
8
 10
177.768
 20
18.2628
 30
8
  0
LINE
  5
B67
330
A02
100
AcDbEntity
  8
Body003
100
AcDbLine
 10
177.99
 20
20.1345
 30
8
 11
177.99
 21
20.1345
 31
7
  0
SPLINE
  5
B68
330
A02
100
AcDbEntity
  8
Body003
100
AcDbSpline
210
0
220
0
230
1
 70
8
 71
3
 72
8
 73
4
 74
0
 40
0
 40
0
 40
0
 40
0
 40
1
 40
1
 40
1
 40
1
 10
177.99
 20
20.1345
 30
7
 10
177.828
 20
19.5435
 30
7
 10
177.768
 20
18.9077
 30
7
 10
177.768
 20
18.2628
 30
7
  0
LINE
  5
B69
330
A02
100
AcDbEntity
  8
Body003
100
AcDbLine
 10
177.768
 20
18.2628
 30
8
 11
177.768
 21
18.2628
 31
7
  0
SPLINE
  5
B6A
330
A02
100
AcDbEntity
  8
Body003
100
AcDbSpline
210
0
220
0
230
1
 70
8
 71
3
 72
8
 73
4
 74
0
 40
0
 40
0
 40
0
 40
0
 40
1
 40
1
 40
1
 40
1
 10
177.768
 20
18.2628
 30
8
 10
177.769
 20
17.5399
 30
8
 10
177.84
 20
16.8228
 30
8
 10
178.054
 20
16.1696
 30
8
  0
LINE
  5
B6B
330
A02
100
AcDbEntity
  8
Body003
100
AcDbLine
 10
177.768
 20
18.2628
 30
8
 11
177.768
 21
18.2628
 31
7
  0
SPLINE
  5
B6C
330
A02
100
AcDbEntity
  8
Body003
100
AcDbSpline
210
0
220
0
230
1
 70
8
 71
3
 72
8
 73
4
 74
0
 40
0
 40
0
 40
0
 40
0
 40
1
 40
1
 40
1
 40
1
 10
177.768
 20
18.2628
 30
7
 10
177.769
 20
17.5399
 30
7
 10
177.84
 20
16.8228
 30
7
 10
178.054
 20
16.1696
 30
7
  0
LINE
  5
B6D
330
A02
100
AcDbEntity
  8
Body003
100
AcDbLine
 10
178.054
 20
16.1696
 30
8
 11
178.054
 21
16.1696
 31
7
  0
SPLINE
  5
B6E
330
A02
100
AcDbEntity
  8
Body003
100
AcDbSpline
210
0
220
0
230
1
 70
8
 71
3
 72
8
 73
4
 74
0
 40
0
 40
0
 40
0
 40
0
 40
1
 40
1
 40
1
 40
1
 10
178.054
 20
16.1696
 30
8
 10
178.23
 20
15.6386
 30
8
 10
178.494
 20
15.1485
 30
8
 10
178.868
 20
14.7678
 30
8
  0
LINE
  5
B6F
330
A02
100
AcDbEntity
  8
Body003
100
AcDbLine
 10
178.054
 20
16.1696
 30
8
 11
178.054
 21
16.1696
 31
7
  0
SPLINE
  5
B70
330
A02
100
AcDbEntity
  8
Body003
100
AcDbSpline
210
0
220
0
230
1
 70
8
 71
3
 72
8
 73
4
 74
0
 40
0
 40
0
 40
0
 40
0
 40
1
 40
1
 40
1
 40
1
 10
178.054
 20
16.1696
 30
7
 10
178.23
 20
15.6386
 30
7
 10
178.494
 20
15.1485
 30
7
 10
178.868
 20
14.7678
 30
7
  0
LINE
  5
B71
330
A02
100
AcDbEntity
  8
Body003
100
AcDbLine
 10
178.868
 20
14.7678
 30
8
 11
178.868
 21
14.7678
 31
7
  0
LINE
  5
B72
330
A02
100
AcDbEntity
  8
Body003
100
AcDbLine
 10
179.498
 20
16.1085
 30
8
 11
178.868
 21
14.7678
 31
8
  0
LINE
  5
B73
330
A02
100
AcDbEntity
  8
Body003
100
AcDbLine
 10
178.868
 20
14.7678
 30
8
 11
178.868
 21
14.7678
 31
7
  0
LINE
  5
B74
330
A02
100
AcDbEntity
  8
Body003
100
AcDbLine
 10
179.498
 20
16.1085
 30
7
 11
178.868
 21
14.7678
 31
7
  0
LINE
  5
B75
330
A02
100
AcDbEntity
  8
Body003
100
AcDbLine
 10
179.498
 20
16.1085
 30
8
 11
179.498
 21
16.1085
 31
7
  0
SPLINE
  5
B76
330
A02
100
AcDbEntity
  8
Body003
100
AcDbSpline
210
0
220
0
230
1
 70
8
 71
3
 72
8
 73
4
 74
0
 40
0
 40
0
 40
0
 40
0
 40
1
 40
1
 40
1
 40
1
 10
179.498
 20
16.1085
 30
8
 10
179.384
 20
16.3776
 30
8
 10
179.308
 20
16.6901
 30
8
 10
179.258
 20
17.0252
 30
8
  0
LINE
  5
B77
330
A02
100
AcDbEntity
  8
Body003
100
AcDbLine
 10
179.498
 20
16.1085
 30
8
 11
179.498
 21
16.1085
 31
7
  0
SPLINE
  5
B78
330
A02
100
AcDbEntity
  8
Body003
100
AcDbSpline
210
0
220
0
230
1
 70
8
 71
3
 72
8
 73
4
 74
0
 40
0
 40
0
 40
0
 40
0
 40
1
 40
1
 40
1
 40
1
 10
179.498
 20
16.1085
 30
7
 10
179.384
 20
16.3776
 30
7
 10
179.308
 20
16.6901
 30
7
 10
179.258
 20
17.0252
 30
7
  0
LINE
  5
B79
330
A02
100
AcDbEntity
  8
Body003
100
AcDbLine
 10
179.258
 20
17.0252
 30
8
 11
179.258
 21
17.0252
 31
7
  0
SPLINE
  5
B7A
330
A02
100
AcDbEntity
  8
Body003
100
AcDbSpline
210
0
220
0
230
1
 70
8
 71
2
 72
6
 73
3
 74
0
 40
0
 40
0
 40
0
 40
1
 40
1
 40
1
 10
179.258
 20
17.0252
 30
8
 10
179.174
 20
17.6105
 30
8
 10
179.166
 20
18.2628
 30
8
  0
LINE
  5
B7B
330
A02
100
AcDbEntity
  8
Body003
100
AcDbLine
 10
179.258
 20
17.0252
 30
8
 11
179.258
 21
17.0252
 31
7
  0
SPLINE
  5
B7C
330
A02
100
AcDbEntity
  8
Body003
100
AcDbSpline
210
0
220
0
230
1
 70
8
 71
2
 72
6
 73
3
 74
0
 40
0
 40
0
 40
0
 40
1
 40
1
 40
1
 10
179.258
 20
17.0252
 30
7
 10
179.174
 20
17.6105
 30
7
 10
179.166
 20
18.2628
 30
7
  0
LINE
  5
B7D
330
A02
100
AcDbEntity
  8
Body003
100
AcDbLine
 10
179.166
 20
18.2628
 30
8
 11
179.166
 21
18.2628
 31
7
  0
SPLINE
  5
B7E
330
A02
100
AcDbEntity
  8
Body003
100
AcDbSpline
210
0
220
0
230
1
 70
8
 71
3
 72
8
 73
4
 74
0
 40
0
 40
0
 40
0
 40
0
 40
1
 40
1
 40
1
 40
1
 10
179.166
 20
18.2628
 30
8
 10
179.173
 20
18.7851
 30
8
 10
179.21
 20
19.2935
 30
8
 10
179.307
 20
19.7525
 30
8
  0
LINE
  5
B7F
330
A02
100
AcDbEntity
  8
Body003
100
AcDbLine
 10
179.166
 20
18.2628
 30
8
 11
179.166
 21
18.2628
 31
7
  0
SPLINE
  5
B80
330
A02
100
AcDbEntity
  8
Body003
100
AcDbSpline
210
0
220
0
230
1
 70
8
 71
3
 72
8
 73
4
 74
0
 40
0
 40
0
 40
0
 40
0
 40
1
 40
1
 40
1
 40
1
 10
179.166
 20
18.2628
 30
7
 10
179.173
 20
18.7851
 30
7
 10
179.21
 20
19.2935
 30
7
 10
179.307
 20
19.7525
 30
7
  0
LINE
  5
B81
330
A02
100
AcDbEntity
  8
Body003
100
AcDbLine
 10
179.307
 20
19.7525
 30
8
 11
179.307
 21
19.7525
 31
7
  0
SPLINE
  5
B82
330
A02
100
AcDbEntity
  8
Body003
100
AcDbSpline
210
0
220
0
230
1
 70
8
 71
3
 72
8
 73
4
 74
0
 40
0
 40
0
 40
0
 40
0
 40
1
 40
1
 40
1
 40
1
 10
179.307
 20
19.7525
 30
8
 10
179.389
 20
20.1227
 30
8
 10
179.508
 20
20.4652
 30
8
 10
179.682
 20
20.7418
 30
8
  0
LINE
  5
B83
330
A02
100
AcDbEntity
  8
Body003
100
AcDbLine
 10
179.307
 20
19.7525
 30
8
 11
179.307
 21
19.7525
 31
7
  0
SPLINE
  5
B84
330
A02
100
AcDbEntity
  8
Body003
100
AcDbSpline
210
0
220
0
230
1
 70
8
 71
3
 72
8
 73
4
 74
0
 40
0
 40
0
 40
0
 40
0
 40
1
 40
1
 40
1
 40
1
 10
179.307
 20
19.7525
 30
7
 10
179.389
 20
20.1227
 30
7
 10
179.508
 20
20.4652
 30
7
 10
179.682
 20
20.7418
 30
7
  0
LINE
  5
B85
330
A02
100
AcDbEntity
  8
Body003
100
AcDbLine
 10
179.682
 20
20.7418
 30
8
 11
179.682
 21
20.7418
 31
7
  0
SPLINE
  5
B86
330
A02
100
AcDbEntity
  8
Body003
100
AcDbSpline
210
0
220
0
230
1
 70
8
 71
3
 72
8
 73
4
 74
0
 40
0
 40
0
 40
0
 40
0
 40
1
 40
1
 40
1
 40
1
 10
179.682
 20
20.7418
 30
8
 10
179.834
 20
20.9872
 30
8
 10
180.03
 20
21.1788
 30
8
 10
180.266
 20
21.288
 30
8
  0
LINE
  5
B87
330
A02
100
AcDbEntity
  8
Body003
100
AcDbLine
 10
179.682
 20
20.7418
 30
8
 11
179.682
 21
20.7418
 31
7
  0
SPLINE
  5
B88
330
A02
100
AcDbEntity
  8
Body003
100
AcDbSpline
210
0
220
0
230
1
 70
8
 71
3
 72
8
 73
4
 74
0
 40
0
 40
0
 40
0
 40
0
 40
1
 40
1
 40
1
 40
1
 10
179.682
 20
20.7418
 30
7
 10
179.834
 20
20.9872
 30
7
 10
180.03
 20
21.1788
 30
7
 10
180.266
 20
21.288
 30
7
  0
LINE
  5
B89
330
A02
100
AcDbEntity
  8
Body003
100
AcDbLine
 10
180.266
 20
21.288
 30
8
 11
180.266
 21
21.288
 31
7
  0
SPLINE
  5
B8A
330
A02
100
AcDbEntity
  8
Body003
100
AcDbSpline
210
0
220
0
230
1
 70
8
 71
3
 72
8
 73
4
 74
0
 40
0
 40
0
 40
0
 40
0
 40
1
 40
1
 40
1
 40
1
 10
183.948
 20
20.3827
 30
8
 10
183.771
 20
20.9237
 30
8
 10
183.494
 20
21.4205
 30
8
 10
183.096
 20
21.7922
 30
8
  0
LINE
  5
B8B
330
A02
100
AcDbEntity
  8
Body003
100
AcDbLine
 10
183.948
 20
20.3827
 30
8
 11
183.948
 21
20.3827
 31
7
  0
SPLINE
  5
B8C
330
A02
100
AcDbEntity
  8
Body003
100
AcDbSpline
210
0
220
0
230
1
 70
8
 71
3
 72
8
 73
4
 74
0
 40
0
 40
0
 40
0
 40
0
 40
1
 40
1
 40
1
 40
1
 10
183.948
 20
20.3827
 30
7
 10
183.771
 20
20.9237
 30
7
 10
183.494
 20
21.4205
 30
7
 10
183.096
 20
21.7922
 30
7
  0
LINE
  5
B8D
330
A02
100
AcDbEntity
  8
Body003
100
AcDbLine
 10
183.096
 20
21.7922
 30
8
 11
183.096
 21
21.7922
 31
7
  0
LINE
  5
B8E
330
A02
100
AcDbEntity
  8
Body003
100
AcDbLine
 10
182.466
 20
20.4629
 30
8
 11
183.096
 21
21.7922
 31
8
  0
LINE
  5
B8F
330
A02
100
AcDbEntity
  8
Body003
100
AcDbLine
 10
183.096
 20
21.7922
 30
8
 11
183.096
 21
21.7922
 31
7
  0
LINE
  5
B90
330
A02
100
AcDbEntity
  8
Body003
100
AcDbLine
 10
182.466
 20
20.4629
 30
7
 11
183.096
 21
21.7922
 31
7
  0
LINE
  5
B91
330
A02
100
AcDbEntity
  8
Body003
100
AcDbLine
 10
182.466
 20
20.4629
 30
8
 11
182.466
 21
20.4629
 31
7
  0
SPLINE
  5
B92
330
A02
100
AcDbEntity
  8
Body003
100
AcDbSpline
210
0
220
0
230
1
 70
8
 71
2
 72
6
 73
3
 74
0
 40
0
 40
0
 40
0
 40
1
 40
1
 40
1
 10
182.466
 20
20.4629
 30
8
 10
182.466
 20
20.4515
 30
8
 10
182.478
 20
20.44
 30
8
  0
LINE
  5
B93
330
A02
100
AcDbEntity
  8
Body003
100
AcDbLine
 10
182.466
 20
20.4629
 30
8
 11
182.466
 21
20.4629
 31
7
  0
SPLINE
  5
B94
330
A02
100
AcDbEntity
  8
Body003
100
AcDbSpline
210
0
220
0
230
1
 70
8
 71
2
 72
6
 73
3
 74
0
 40
0
 40
0
 40
0
 40
1
 40
1
 40
1
 10
182.466
 20
20.4629
 30
7
 10
182.466
 20
20.4515
 30
7
 10
182.478
 20
20.44
 30
7
  0
LINE
  5
B95
330
A02
100
AcDbEntity
  8
Body003
100
AcDbLine
 10
182.478
 20
20.44
 30
8
 11
182.478
 21
20.44
 31
7
  0
SPLINE
  5
B96
330
A02
100
AcDbEntity
  8
Body003
100
AcDbSpline
210
0
220
0
230
1
 70
8
 71
3
 72
8
 73
4
 74
0
 40
0
 40
0
 40
0
 40
0
 40
1
 40
1
 40
1
 40
1
 10
182.478
 20
20.44
 30
8
 10
182.6
 20
20.1713
 30
8
 10
182.684
 20
19.8588
 30
8
 10
182.741
 20
19.5233
 30
8
  0
LINE
  5
B97
330
A02
100
AcDbEntity
  8
Body003
100
AcDbLine
 10
182.478
 20
20.44
 30
8
 11
182.478
 21
20.44
 31
7
  0
SPLINE
  5
B98
330
A02
100
AcDbEntity
  8
Body003
100
AcDbSpline
210
0
220
0
230
1
 70
8
 71
3
 72
8
 73
4
 74
0
 40
0
 40
0
 40
0
 40
0
 40
1
 40
1
 40
1
 40
1
 10
182.478
 20
20.44
 30
7
 10
182.6
 20
20.1713
 30
7
 10
182.684
 20
19.8588
 30
7
 10
182.741
 20
19.5233
 30
7
  0
LINE
  5
B99
330
A02
100
AcDbEntity
  8
Body003
100
AcDbLine
 10
182.741
 20
19.5233
 30
8
 11
182.741
 21
19.5233
 31
7
  0
SPLINE
  5
B9A
330
A02
100
AcDbEntity
  8
Body003
100
AcDbSpline
210
0
220
0
230
1
 70
8
 71
3
 72
8
 73
4
 74
0
 40
0
 40
0
 40
0
 40
0
 40
1
 40
1
 40
1
 40
1
 10
182.741
 20
19.5233
 30
8
 10
182.808
 20
19.1316
 30
8
 10
182.837
 20
18.7049
 30
8
 10
182.844
 20
18.2628
 30
8
  0
LINE
  5
B9B
330
A02
100
AcDbEntity
  8
Body003
100
AcDbLine
 10
182.741
 20
19.5233
 30
8
 11
182.741
 21
19.5233
 31
7
  0
SPLINE
  5
B9C
330
A02
100
AcDbEntity
  8
Body003
100
AcDbSpline
210
0
220
0
230
1
 70
8
 71
3
 72
8
 73
4
 74
0
 40
0
 40
0
 40
0
 40
0
 40
1
 40
1
 40
1
 40
1
 10
182.741
 20
19.5233
 30
7
 10
182.808
 20
19.1316
 30
7
 10
182.837
 20
18.7049
 30
7
 10
182.844
 20
18.2628
 30
7
  0
LINE
  5
B9D
330
A02
100
AcDbEntity
  8
Body003
100
AcDbLine
 10
182.844
 20
18.2628
 30
8
 11
182.844
 21
18.2628
 31
7
  0
SPLINE
  5
B9E
330
A02
100
AcDbEntity
  8
Body003
100
AcDbSpline
210
0
220
0
230
1
 70
8
 71
3
 72
8
 73
4
 74
0
 40
0
 40
0
 40
0
 40
0
 40
1
 40
1
 40
1
 40
1
 10
182.844
 20
18.2628
 30
8
 10
182.837
 20
17.7386
 30
8
 10
182.799
 20
17.2281
 30
8
 10
182.699
 20
16.7655
 30
8
  0
LINE
  5
B9F
330
A02
100
AcDbEntity
  8
Body003
100
AcDbLine
 10
182.844
 20
18.2628
 30
8
 11
182.844
 21
18.2628
 31
7
  0
SPLINE
  5
BA0
330
A02
100
AcDbEntity
  8
Body003
100
AcDbSpline
210
0
220
0
230
1
 70
8
 71
3
 72
8
 73
4
 74
0
 40
0
 40
0
 40
0
 40
0
 40
1
 40
1
 40
1
 40
1
 10
182.844
 20
18.2628
 30
7
 10
182.837
 20
17.7386
 30
7
 10
182.799
 20
17.2281
 30
7
 10
182.699
 20
16.7655
 30
7
  0
LINE
  5
BA1
330
A02
100
AcDbEntity
  8
Body003
100
AcDbLine
 10
182.699
 20
16.7655
 30
8
 11
182.699
 21
16.7655
 31
7
  0
SPLINE
  5
BA2
330
A02
100
AcDbEntity
  8
Body003
100
AcDbSpline
210
0
220
0
230
1
 70
8
 71
3
 72
8
 73
4
 74
0
 40
0
 40
0
 40
0
 40
0
 40
1
 40
1
 40
1
 40
1
 10
182.699
 20
16.7655
 30
8
 10
182.62
 20
16.3942
 30
8
 10
182.503
 20
16.0508
 30
8
 10
182.329
 20
15.7762
 30
8
  0
LINE
  5
BA3
330
A02
100
AcDbEntity
  8
Body003
100
AcDbLine
 10
182.699
 20
16.7655
 30
8
 11
182.699
 21
16.7655
 31
7
  0
SPLINE
  5
BA4
330
A02
100
AcDbEntity
  8
Body003
100
AcDbSpline
210
0
220
0
230
1
 70
8
 71
3
 72
8
 73
4
 74
0
 40
0
 40
0
 40
0
 40
0
 40
1
 40
1
 40
1
 40
1
 10
182.699
 20
16.7655
 30
7
 10
182.62
 20
16.3942
 30
7
 10
182.503
 20
16.0508
 30
7
 10
182.329
 20
15.7762
 30
7
  0
LINE
  5
BA5
330
A02
100
AcDbEntity
  8
Body003
100
AcDbLine
 10
182.329
 20
15.7762
 30
8
 11
182.329
 21
15.7762
 31
7
  0
SPLINE
  5
BA6
330
A02
100
AcDbEntity
  8
Body003
100
AcDbSpline
210
0
220
0
230
1
 70
8
 71
3
 72
8
 73
4
 74
0
 40
0
 40
0
 40
0
 40
0
 40
1
 40
1
 40
1
 40
1
 10
182.329
 20
15.7762
 30
8
 10
182.175
 20
15.5334
 30
8
 10
181.976
 20
15.3436
 30
8
 10
181.737
 20
15.2299
 30
8
  0
LINE
  5
BA7
330
A02
100
AcDbEntity
  8
Body003
100
AcDbLine
 10
182.329
 20
15.7762
 30
8
 11
182.329
 21
15.7762
 31
7
  0
SPLINE
  5
BA8
330
A02
100
AcDbEntity
  8
Body003
100
AcDbSpline
210
0
220
0
230
1
 70
8
 71
3
 72
8
 73
4
 74
0
 40
0
 40
0
 40
0
 40
0
 40
1
 40
1
 40
1
 40
1
 10
182.329
 20
15.7762
 30
7
 10
182.175
 20
15.5334
 30
7
 10
181.976
 20
15.3436
 30
7
 10
181.737
 20
15.2299
 30
7
  0
LINE
  5
BA9
330
A02
100
AcDbEntity
  8
Body003
100
AcDbLine
 10
181.737
 20
15.2299
 30
8
 11
181.737
 21
15.2299
 31
7
  0
SPLINE
  5
BAA
330
A02
100
AcDbEntity
  8
Body003
100
AcDbSpline
210
0
220
0
230
1
 70
8
 71
2
 72
6
 73
3
 74
0
 40
0
 40
0
 40
0
 40
1
 40
1
 40
1
 10
181.737
 20
15.2299
 30
8
 10
181.381
 20
15.0642
 30
8
 10
180.965
 20
15.0657
 30
8
  0
LINE
  5
BAB
330
A02
100
AcDbEntity
  8
Body003
100
AcDbLine
 10
181.737
 20
15.2299
 30
8
 11
181.737
 21
15.2299
 31
7
  0
SPLINE
  5
BAC
330
A02
100
AcDbEntity
  8
Body003
100
AcDbSpline
210
0
220
0
230
1
 70
8
 71
2
 72
6
 73
3
 74
0
 40
0
 40
0
 40
0
 40
1
 40
1
 40
1
 10
181.737
 20
15.2299
 30
7
 10
181.381
 20
15.0642
 30
7
 10
180.965
 20
15.0657
 30
7
  0
LINE
  5
BAD
330
A02
100
AcDbEntity
  8
Body003
100
AcDbLine
 10
180.965
 20
15.0657
 30
8
 11
180.965
 21
15.0657
 31
7
  0
SPLINE
  5
BAE
330
A02
100
AcDbEntity
  8
Body003
100
AcDbSpline
210
0
220
0
230
1
 70
8
 71
3
 72
8
 73
4
 74
0
 40
0
 40
0
 40
0
 40
0
 40
1
 40
1
 40
1
 40
1
 10
180.965
 20
15.0657
 30
8
 10
180.627
 20
15.0643
 30
8
 10
180.313
 20
15.1551
 30
8
 10
180.071
 20
15.3522
 30
8
  0
LINE
  5
BAF
330
A02
100
AcDbEntity
  8
Body003
100
AcDbLine
 10
180.965
 20
15.0657
 30
8
 11
180.965
 21
15.0657
 31
7
  0
SPLINE
  5
BB0
330
A02
100
AcDbEntity
  8
Body003
100
AcDbSpline
210
0
220
0
230
1
 70
8
 71
3
 72
8
 73
4
 74
0
 40
0
 40
0
 40
0
 40
0
 40
1
 40
1
 40
1
 40
1
 10
180.965
 20
15.0657
 30
7
 10
180.627
 20
15.0643
 30
7
 10
180.313
 20
15.1551
 30
7
 10
180.071
 20
15.3522
 30
7
  0
LINE
  5
BB1
330
A02
100
AcDbEntity
  8
Body003
100
AcDbLine
 10
180.071
 20
15.3522
 30
8
 11
180.071
 21
15.3522
 31
7
  0
LINE
  5
BB2
330
A02
100
AcDbEntity
  8
Body003
100
AcDbLine
 10
179.556
 20
14.2636
 30
8
 11
180.071
 21
15.3522
 31
8
  0
LINE
  5
BB3
330
A02
100
AcDbEntity
  8
Body003
100
AcDbLine
 10
180.071
 20
15.3522
 30
8
 11
180.071
 21
15.3522
 31
7
  0
LINE
  5
BB4
330
A02
100
AcDbEntity
  8
Body003
100
AcDbLine
 10
179.556
 20
14.2636
 30
7
 11
180.071
 21
15.3522
 31
7
  0
LINE
  5
BB5
330
A02
100
AcDbEntity
  8
Body003
100
AcDbLine
 10
179.556
 20
14.2636
 30
8
 11
179.556
 21
14.2636
 31
7
  0
SPLINE
  5
BB6
330
A02
100
AcDbEntity
  8
Body003
100
AcDbSpline
210
0
220
0
230
1
 70
8
 71
3
 72
8
 73
4
 74
0
 40
0
 40
0
 40
0
 40
0
 40
1
 40
1
 40
1
 40
1
 10
179.556
 20
14.2636
 30
8
 10
179.992
 20
14.0404
 30
8
 10
180.489
 20
13.9418
 30
8
 10
180.999
 20
13.9427
 30
8
  0
LINE
  5
BB7
330
A02
100
AcDbEntity
  8
Body003
100
AcDbLine
 10
179.556
 20
14.2636
 30
8
 11
179.556
 21
14.2636
 31
7
  0
SPLINE
  5
BB8
330
A02
100
AcDbEntity
  8
Body003
100
AcDbSpline
210
0
220
0
230
1
 70
8
 71
3
 72
8
 73
4
 74
0
 40
0
 40
0
 40
0
 40
0
 40
1
 40
1
 40
1
 40
1
 10
179.556
 20
14.2636
 30
7
 10
179.992
 20
14.0404
 30
7
 10
180.489
 20
13.9418
 30
7
 10
180.999
 20
13.9427
 30
7
  0
LINE
  5
BB9
330
A02
100
AcDbEntity
  8
Body003
100
AcDbLine
 10
180.999
 20
13.9427
 30
8
 11
180.999
 21
13.9427
 31
7
  0
SPLINE
  5
BBA
330
A02
100
AcDbEntity
  8
Body003
100
AcDbSpline
210
0
220
0
230
1
 70
8
 71
3
 72
8
 73
4
 74
0
 40
0
 40
0
 40
0
 40
0
 40
1
 40
1
 40
1
 40
1
 10
180.999
 20
13.9427
 30
8
 10
181.476
 20
13.9421
 30
8
 10
181.939
 20
14.0265
 30
8
 10
182.352
 20
14.2177
 30
8
  0
LINE
  5
BBB
330
A02
100
AcDbEntity
  8
Body003
100
AcDbLine
 10
180.999
 20
13.9427
 30
8
 11
180.999
 21
13.9427
 31
7
  0
SPLINE
  5
BBC
330
A02
100
AcDbEntity
  8
Body003
100
AcDbSpline
210
0
220
0
230
1
 70
8
 71
3
 72
8
 73
4
 74
0
 40
0
 40
0
 40
0
 40
0
 40
1
 40
1
 40
1
 40
1
 10
180.999
 20
13.9427
 30
7
 10
181.476
 20
13.9421
 30
7
 10
181.939
 20
14.0265
 30
7
 10
182.352
 20
14.2177
 30
7
  0
LINE
  5
BBD
330
A02
100
AcDbEntity
  8
Body003
100
AcDbLine
 10
182.352
 20
14.2177
 30
8
 11
182.352
 21
14.2177
 31
7
  0
SPLINE
  5
BBE
330
A02
100
AcDbEntity
  8
Body003
100
AcDbSpline
210
0
220
0
230
1
 70
8
 71
3
 72
8
 73
4
 74
0
 40
0
 40
0
 40
0
 40
0
 40
1
 40
1
 40
1
 40
1
 10
182.352
 20
14.2177
 30
8
 10
182.75
 20
14.4006
 30
8
 10
183.097
 20
14.6807
 30
8
 10
183.371
 20
15.0313
 30
8
  0
LINE
  5
BBF
330
A02
100
AcDbEntity
  8
Body003
100
AcDbLine
 10
182.352
 20
14.2177
 30
8
 11
182.352
 21
14.2177
 31
7
  0
SPLINE
  5
BC0
330
A02
100
AcDbEntity
  8
Body003
100
AcDbSpline
210
0
220
0
230
1
 70
8
 71
3
 72
8
 73
4
 74
0
 40
0
 40
0
 40
0
 40
0
 40
1
 40
1
 40
1
 40
1
 10
182.352
 20
14.2177
 30
7
 10
182.75
 20
14.4006
 30
7
 10
183.097
 20
14.6807
 30
7
 10
183.371
 20
15.0313
 30
7
  0
LINE
  5
BC1
330
A02
100
AcDbEntity
  8
Body003
100
AcDbLine
 10
183.371
 20
15.0313
 30
8
 11
183.371
 21
15.0313
 31
7
  0
SPLINE
  5
BC2
330
A02
100
AcDbEntity
  8
Body003
100
AcDbSpline
210
0
220
0
230
1
 70
8
 71
3
 72
8
 73
4
 74
0
 40
0
 40
0
 40
0
 40
0
 40
1
 40
1
 40
1
 40
1
 10
183.371
 20
15.0313
 30
8
 10
183.674
 20
15.4148
 30
8
 10
183.881
 20
15.8832
 30
8
 10
184.017
 20
16.3835
 30
8
  0
LINE
  5
BC3
330
A02
100
AcDbEntity
  8
Body003
100
AcDbLine
 10
183.371
 20
15.0313
 30
8
 11
183.371
 21
15.0313
 31
7
  0
SPLINE
  5
BC4
330
A02
100
AcDbEntity
  8
Body003
100
AcDbSpline
210
0
220
0
230
1
 70
8
 71
3
 72
8
 73
4
 74
0
 40
0
 40
0
 40
0
 40
0
 40
1
 40
1
 40
1
 40
1
 10
183.371
 20
15.0313
 30
7
 10
183.674
 20
15.4148
 30
7
 10
183.881
 20
15.8832
 30
7
 10
184.017
 20
16.3835
 30
7
  0
LINE
  5
BC5
330
A02
100
AcDbEntity
  8
Body003
100
AcDbLine
 10
184.017
 20
16.3835
 30
8
 11
184.017
 21
16.3835
 31
7
  0
SPLINE
  5
BC6
330
A02
100
AcDbEntity
  8
Body003
100
AcDbSpline
210
0
220
0
230
1
 70
8
 71
3
 72
8
 73
4
 74
0
 40
0
 40
0
 40
0
 40
0
 40
1
 40
1
 40
1
 40
1
 10
184.017
 20
16.3835
 30
8
 10
184.181
 20
16.9776
 30
8
 10
184.242
 20
17.6157
 30
8
 10
184.242
 20
18.2628
 30
8
  0
LINE
  5
BC7
330
A02
100
AcDbEntity
  8
Body003
100
AcDbLine
 10
184.017
 20
16.3835
 30
8
 11
184.017
 21
16.3835
 31
7
  0
SPLINE
  5
BC8
330
A02
100
AcDbEntity
  8
Body003
100
AcDbSpline
210
0
220
0
230
1
 70
8
 71
3
 72
8
 73
4
 74
0
 40
0
 40
0
 40
0
 40
0
 40
1
 40
1
 40
1
 40
1
 10
184.017
 20
16.3835
 30
7
 10
184.181
 20
16.9776
 30
7
 10
184.242
 20
17.6157
 30
7
 10
184.242
 20
18.2628
 30
7
  0
LINE
  5
BC9
330
A02
100
AcDbEntity
  8
Body003
100
AcDbLine
 10
184.242
 20
18.2628
 30
8
 11
184.242
 21
18.2628
 31
7
  0
SPLINE
  5
BCA
330
A02
100
AcDbEntity
  8
Body003
100
AcDbSpline
210
0
220
0
230
1
 70
8
 71
3
 72
8
 73
4
 74
0
 40
0
 40
0
 40
0
 40
0
 40
1
 40
1
 40
1
 40
1
 10
184.242
 20
18.2628
 30
8
 10
184.242
 20
18.9944
 30
8
 10
184.168
 20
19.7204
 30
8
 10
183.948
 20
20.3827
 30
8
  0
LINE
  5
BCB
330
A02
100
AcDbEntity
  8
Body003
100
AcDbLine
 10
184.242
 20
18.2628
 30
8
 11
184.242
 21
18.2628
 31
7
  0
SPLINE
  5
BCC
330
A02
100
AcDbEntity
  8
Body003
100
AcDbSpline
210
0
220
0
230
1
 70
8
 71
3
 72
8
 73
4
 74
0
 40
0
 40
0
 40
0
 40
0
 40
1
 40
1
 40
1
 40
1
 10
184.242
 20
18.2628
 30
7
 10
184.242
 20
18.9944
 30
7
 10
184.168
 20
19.7204
 30
7
 10
183.948
 20
20.3827
 30
7
  0
LINE
  5
BCD
330
A02
100
AcDbEntity
  8
Body003
100
AcDbLine
 10
183.948
 20
20.3827
 30
8
 11
183.948
 21
20.3827
 31
7
  0
CIRCLE
  5
BCE
330
A02
100
AcDbEntity
  8
Body003
100
AcDbCircle
 10
176
 20
10
 40
2
  0
LINE
  5
BCF
330
A02
100
AcDbEntity
  8
Body003
100
AcDbLine
 10
178
 20
10
 30
8
 11
178
 21
10
 31
7
  0
CIRCLE
  5
BD0
330
A02
100
AcDbEntity
  8
Body003
100
AcDbCircle
 10
176
 20
10
 40
2
  0
LINE
  5
BD1
330
A02
100
AcDbEntity
  8
Body003
100
AcDbLine
 10
178
 20
10
 30
8
 11
178
 21
10
 31
7
  0
CIRCLE
  5
BD2
330
A02
100
AcDbEntity
  8
Body003
100
AcDbCircle
 10
184
 20
4
 40
2
  0
LINE
  5
BD3
330
A02
100
AcDbEntity
  8
Body003
100
AcDbLine
 10
186
 20
4
 30
8
 11
186
 21
4
 31
7
  0
CIRCLE
  5
BD4
330
A02
100
AcDbEntity
  8
Body003
100
AcDbCircle
 10
184
 20
4
 40
2
  0
LINE
  5
BD5
330
A02
100
AcDbEntity
  8
Body003
100
AcDbLine
 10
186
 20
4
 30
8
 11
186
 21
4
 31
7
  0
ENDSEC
  0
SECTION
  2
OBJECTS
  0
DICTIONARY
  5
F000
330
0
100
AcDbDictionary
  3
ACAD_GROUP
350
F001
  0
DICTIONARY
  5
F001
330
F000
100
AcDbDictionary
  0
ENDSEC
  0
EOF