999
FreeCAD v0.19 24267 +99 (Git)
  0
SECTION
  2
HEADER
  9
$ACADVER
  1
AC1014
  9
$ACADMAINTVER
 70
     9
  9
$DWGCODEPAGE
  3
ANSI_1252
  9
$TEXTSTYLE
  7
STANDARD
  9
$DIMSTYLE
  2
STANDARD
  9
$DIMTXSTY
  7
STANDARD
  9
$CMLSTYLE
  2
STANDARD
  9
$PEXTMAX
 10
50
 20
50
 30
50
  9
$PEXTMIN
 10
0
 20
0
 30
0
  9
$HANDSEED
  5
FFFF
  0
ENDSEC
  0
SECTION
  2
CLASSES
  0
CLASS
  1
ACDBDICTIONARYWDFLT
  2
AcDbDictionaryWithDefault
  3
ObjectDBX Classes
 90
        0
280
     0
281
     0
  0
CLASS
  1
XRECORD
  2
AcDbXrecord
  3
ObjectDBX Classes
 90
        0
280
     0
281
     0
  0
CLASS
  1
LWPOLYLINE
  2
AcDbPolyline
  3
ObjectDBX Classes
 90
        0
280
     0
281
     1
  0
ENDSEC
  0
SECTION
  2
TABLES
  0
TABLE
  2
VPORT
  5
20
330
0
100
AcDbSymbolTable
 70
     1
  0
VPORT
  5
21
330
20
100
AcDbSymbolTableRecord
100
AcDbViewportTableRecord
  2
*ACTIVE
 70
     0
  0
ENDTAB
  0
TABLE
  2
LTYPE
  5
22
330
0
100
AcDbSymbolTable
 70
     1
  0
LTYPE
  5
23
330
21
100
AcDbSymbolTableRecord
100
AcDbLinetypeTableRecord
  2
BYBLOCK
 70
     0
  3

 72
    65
 73
     0
 40
0.0
  0
LTYPE
  5
24
330
21
100
AcDbSymbolTableRecord
100
AcDbLinetypeTableRecord
  2
BYLAYER
 70
     0
  3

 72
    65
 73
     0
 40
0.0
  0
LTYPE
  5
25
330
21
100
AcDbSymbolTableRecord
100
AcDbLinetypeTableRecord
  2
CONTINUOUS
 70
     0
  3
Solid line
 72
    65
 73
     0
 40
0.0
  0
ENDTAB
  0
TABLE
  2
LAYER
  5
BA0
330
0
100
AcDbSymbolTable
 70
3
  0
LAYER
  5
BA1
330
BA0
100
AcDbSymbolTableRecord
100
AcDbLayerTableRecord
  2
0
 70
   0
 62
   7
  6
CONTINUOUS
  0
LAYER
  5
BA2
330
BA0
100
AcDbSymbolTableRecord
100
AcDbLayerTableRecord
  2
none
 70
    0
 62
    7
  6
CONTINUOUS
  0
LAYER
  5
BA3
330
BA0
100
AcDbSymbolTableRecord
100
AcDbLayerTableRecord
  2
Body007
 70
    0
 62
    7
  6
CONTINUOUS
  0
ENDTAB
  0
TABLE
  2
STYLE
  5
70
330
0
100
AcDbSymbolTable
 70
     2
  0
STYLE
  5
71
330
70
100
AcDbSymbolTableRecord
100
AcDbTextStyleTableRecord
  2
STANDARD
 70
     0
 40
0.0
 41
1.0
 50
0.0
 71
     0
 42
2.5
  3
arial.ttf
  4

  0
STYLE
  5
72
330
70
100
AcDbSymbolTableRecord
100
AcDbTextStyleTableRecord
  2
ANNOTATIVE
 70
     0
 40
0.0
 41
1.0
 50
0.0
 71
     0
 42
2.5
  3
arial.ttf
  4

  0
ENDTAB
  0
TABLE
  2
VIEW
  5
73
330
0
100
AcDbSymbolTable
 70
     0
  0
ENDTAB
  0
TABLE
  2
UCS
  5
74
330
0
100
AcDbSymbolTable
 70
     0
  0
ENDTAB
  0
TABLE
  2
APPID
  5
75
330
0
100
AcDbSymbolTable
 70
     2
  0
APPID
  5
76
330
75
100
AcDbSymbolTableRecord
100
AcDbRegAppTableRecord
  2
ACAD
 70
     0
  0
APPID
  5
77
330
75
100
AcDbSymbolTableRecord
100
AcDbRegAppTableRecord
  2
ACADANNOTATIVE
 70
     0
  0
ENDTAB
  0
TABLE
  2
DIMSTYLE
  5
78
330
0
100
AcDbSymbolTable
 70
     2
  0
DIMSTYLE
105
79
330
78
100
AcDbSymbolTableRecord
100
AcDbDimStyleTableRecord
  2
STANDARD
 70
     0
  3

  4

  5

  6

  7

 40
0.0
 41
2.5
 42
0.625
 43
3.75
 44
1.25
 45
0.0
 46
0.0
 47
0.0
 48
0.0
140
2.5
141
2.5
142
0.0
143
0.03937007874016
144
1.0
145
0.0
146
1.0
147
0.625
 71
     0
 72
     0
 73
     0
 74
     0
 75
     0
 76
     0
 77
     1
 78
     8
170
     0
171
     3
172
     1
173
     0
174
     0
175
     0
176
     0
177
     0
178
     0
270
     2
271
     2
272
     2
273
     2
274
     3
340
71
275
     0
280
     0
281
     0
282
     0
283
     0
284
     8
285
     0
286
     0
287
     3
288
     0
  0
ENDTAB
  0
TABLE
  2
BLOCK_RECORD
  5
A01
330
0
100
AcDbSymbolTable
  70
5
  0
BLOCK_RECORD
  5
A02
330
A01
100
AcDbSymbolTableRecord
100
AcDbBlockTableRecord
  2
*MODEL_SPACE
  0
BLOCK_RECORD
  5
A03
330
A01
100
AcDbSymbolTableRecord
100
AcDbBlockTableRecord
  2
*PAPER_SPACE
  0
ENDTAB
  0
ENDSEC
  0
SECTION
  2
BLOCKS
  0
BLOCK
  5
A04
330
A02
100
AcDbEntity
  8
0
100
AcDbBlockBegin
  2
*MODEL_SPACE
 70
   0
 10
0
 20
0
 30
0
  3
*MODEL_SPACE
  1
 
  0
ENDBLK
  5
A05
330
A02
100
AcDbEntity
  8
0
100
AcDbBlockEnd
  0
BLOCK
  5
A06
330
A03
100
AcDbEntity
 67
1
  8
0
100
AcDbBlockBegin
  2
*PAPER_SPACE
 70
   0
 10
0
 20
0
 30
0
  3
*PAPER_SPACE
  1
 
  0
ENDBLK
  5
A07
330
A03
100
AcDbEntity
 67
    1
  8
0
100
AcDbBlockEnd
  0
ENDSEC
  0
SECTION
  2
ENTITIES
  0
LINE
  5
A08
330
A02
100
AcDbEntity
  8
Body007
100
AcDbLine
 10
3
 20
-81
 30
71
 11
3
 21
-81
 31
73
  0
LINE
  5
A09
330
A02
100
AcDbEntity
  8
Body007
100
AcDbLine
 10
3
 20
-61
 30
71
 11
3
 21
-61
 31
73
  0
LINE
  5
A0A
330
A02
100
AcDbEntity
  8
Body007
100
AcDbLine
 10
3
 20
-81
 30
71
 11
3
 21
-61
 31
71
  0
LINE
  5
A0B
330
A02
100
AcDbEntity
  8
Body007
100
AcDbLine
 10
3
 20
-81
 30
73
 11
3
 21
-61
 31
73
  0
LINE
  5
A0C
330
A02
100
AcDbEntity
  8
Body007
100
AcDbLine
 10
3
 20
-81
 30
71
 11
3
 21
-81
 31
73
  0
LINE
  5
A0D
330
A02
100
AcDbEntity
  8
Body007
100
AcDbLine
 10
18
 20
-81
 30
71
 11
18
 21
-81
 31
73
  0
LINE
  5
A0E
330
A02
100
AcDbEntity
  8
Body007
100
AcDbLine
 10
3
 20
-81
 30
71
 11
18
 21
-81
 31
71
  0
LINE
  5
A0F
330
A02
100
AcDbEntity
  8
Body007
100
AcDbLine
 10
3
 20
-81
 30
73
 11
18
 21
-81
 31
73
  0
LINE
  5
A10
330
A02
100
AcDbEntity
  8
Body007
100
AcDbLine
 10
3
 20
-61
 30
71
 11
3
 21
-61
 31
73
  0
LINE
  5
A11
330
A02
100
AcDbEntity
  8
Body007
100
AcDbLine
 10
8
 20
-12
 30
71
 11
8
 21
-12
 31
73
  0
LINE
  5
A12
330
A02
100
AcDbEntity
  8
Body007
100
AcDbLine
 10
3
 20
-61
 30
71
 11
8
 21
-12
 31
71
  0
LINE
  5
A13
330
A02
100
AcDbEntity
  8
Body007
100
AcDbLine
 10
3
 20
-61
 30
73
 11
8
 21
-12
 31
73
  0
LINE
  5
A14
330
A02
100
AcDbEntity
  8
Body007
100
AcDbLine
 10
3
 20
-81
 30
71
 11
3
 21
-61
 31
71
  0
LINE
  5
A15
330
A02
100
AcDbEntity
  8
Body007
100
AcDbLine
 10
3
 20
-81
 30
71
 11
18
 21
-81
 31
71
  0
LINE
  5
A16
330
A02
100
AcDbEntity
  8
Body007
100
AcDbLine
 10
3
 20
-61
 30
71
 11
8
 21
-12
 31
71
  0
LINE
  5
A17
330
A02
100
AcDbEntity
  8
Body007
100
AcDbLine
 10
18
 20
-81
 30
71
 11
18
 21
-61
 31
71
  0
LINE
  5
A18
330
A02
100
AcDbEntity
  8
Body007
100
AcDbLine
 10
8
 20
-12
 30
71
 11
8
 21
-2
 31
71
  0
LINE
  5
A19
330
A02
100
AcDbEntity
  8
Body007
100
AcDbLine
 10
18
 20
-61
 30
71
 11
220
 21
-61
 31
71
  0
LINE
  5
A1A
330
A02
100
AcDbEntity
  8
Body007
100
AcDbLine
 10
8
 20
-2
 30
71
 11
185
 21
-2
 31
71
  0
LINE
  5
A1B
330
A02
100
AcDbEntity
  8
Body007
100
AcDbLine
 10
220
 20
-46
 30
71
 11
220
 21
-61
 31
71
  0
LINE
  5
A1C
330
A02
100
AcDbEntity
  8
Body007
100
AcDbLine
 10
185
 20
-2
 30
71
 11
185
 21
-12
 31
71
  0
LINE
  5
A1D
330
A02
100
AcDbEntity
  8
Body007
100
AcDbLine
 10
200
 20
-46
 30
71
 11
220
 21
-46
 31
71
  0
LINE
  5
A1E
330
A02
100
AcDbEntity
  8
Body007
100
AcDbLine
 10
185
 20
-12
 30
71
 11
200
 21
-46
 31
71
  0
CIRCLE
  5
A1F
330
A02
100
AcDbEntity
  8
Body007
100
AcDbCircle
 10
212.5
 20
-53.5
 40
2
  0
CIRCLE
  5
A20
330
A02
100
AcDbEntity
  8
Body007
100
AcDbCircle
 10
172.5
 20
-49.8
 40
2
  0
CIRCLE
  5
A21
330
A02
100
AcDbEntity
  8
Body007
100
AcDbCircle
 10
10.5
 20
-73.5
 40
2
  0
CIRCLE
  5
A22
330
A02
100
AcDbEntity
  8
Body007
100
AcDbCircle
 10
28.5
 20
-49.8
 40
2
  0
CIRCLE
  5
A23
330
A02
100
AcDbEntity
  8
Body007
100
AcDbCircle
 10
172.5
 20
-16.5
 40
2
  0
CIRCLE
  5
A24
330
A02
100
AcDbEntity
  8
Body007
100
AcDbCircle
 10
160
 20
-4
 40
1
  0
SPLINE
  5
A25
330
A02
100
AcDbEntity
  8
Body007
100
AcDbSpline
210
0
220
0
230
1
 70
8
 71
3
 72
8
 73
4
 74
0
 40
0
 40
0
 40
0
 40
0
 40
1
 40
1
 40
1
 40
1
 10
96.811
 20
-36.7158
 30
71
 10
97.0366
 20
-36.7169
 30
71
 10
97.2377
 20
-36.6344
 30
71
 10
97.3954
 20
-36.4752
 30
71
  0
SPLINE
  5
A26
330
A02
100
AcDbEntity
  8
Body007
100
AcDbSpline
210
0
220
0
230
1
 70
8
 71
3
 72
8
 73
4
 74
0
 40
0
 40
0
 40
0
 40
0
 40
1
 40
1
 40
1
 40
1
 10
96.2304
 20
-36.4752
 30
71
 10
96.3857
 20
-36.6346
 30
71
 10
96.5857
 20
-36.717
 30
71
 10
96.811
 20
-36.7158
 30
71
  0
SPLINE
  5
A27
330
A02
100
AcDbEntity
  8
Body007
100
AcDbSpline
210
0
220
0
230
1
 70
8
 71
3
 72
8
 73
4
 74
0
 40
0
 40
0
 40
0
 40
0
 40
1
 40
1
 40
1
 40
1
 10
95.9974
 20
-35.8908
 30
71
 10
95.9964
 20
-36.116
 30
71
 10
96.0757
 20
-36.317
 30
71
 10
96.2304
 20
-36.4752
 30
71
  0
SPLINE
  5
A28
330
A02
100
AcDbEntity
  8
Body007
100
AcDbSpline
210
0
220
0
230
1
 70
8
 71
3
 72
8
 73
4
 74
0
 40
0
 40
0
 40
0
 40
0
 40
1
 40
1
 40
1
 40
1
 10
96.238
 20
-35.314
 30
71
 10
96.0784
 20
-35.4669
 30
71
 10
95.9962
 20
-35.6658
 30
71
 10
95.9974
 20
-35.8908
 30
71
  0
SPLINE
  5
A29
330
A02
100
AcDbEntity
  8
Body007
100
AcDbSpline
210
0
220
0
230
1
 70
8
 71
3
 72
8
 73
4
 74
0
 40
0
 40
0
 40
0
 40
0
 40
1
 40
1
 40
1
 40
1
 10
96.811
 20
-35.0772
 30
71
 10
96.5919
 20
-35.0761
 30
71
 10
96.3952
 20
-35.1579
 30
71
 10
96.238
 20
-35.314
 30
71
  0
SPLINE
  5
A2A
330
A02
100
AcDbEntity
  8
Body007
100
AcDbSpline
210
0
220
0
230
1
 70
8
 71
3
 72
8
 73
4
 74
0
 40
0
 40
0
 40
0
 40
0
 40
1
 40
1
 40
1
 40
1
 10
97.3954
 20
-35.314
 30
71
 10
97.2375
 20
-35.1571
 30
71
 10
97.0364
 20
-35.0761
 30
71
 10
96.811
 20
-35.0772
 30
71
  0
SPLINE
  5
A2B
330
A02
100
AcDbEntity
  8
Body007
100
AcDbSpline
210
0
220
0
230
1
 70
8
 71
3
 72
8
 73
4
 74
0
 40
0
 40
0
 40
0
 40
0
 40
1
 40
1
 40
1
 40
1
 10
97.636
 20
-35.8908
 30
71
 10
97.6372
 20
-35.6658
 30
71
 10
97.555
 20
-35.4669
 30
71
 10
97.3954
 20
-35.314
 30
71
  0
SPLINE
  5
A2C
330
A02
100
AcDbEntity
  8
Body007
100
AcDbSpline
210
0
220
0
230
1
 70
8
 71
3
 72
8
 73
4
 74
0
 40
0
 40
0
 40
0
 40
0
 40
1
 40
1
 40
1
 40
1
 10
97.3954
 20
-36.4752
 30
71
 10
97.5546
 20
-36.3175
 30
71
 10
97.6371
 20
-36.1164
 30
71
 10
97.636
 20
-35.8908
 30
71
  0
SPLINE
  5
A2D
330
A02
100
AcDbEntity
  8
Body007
100
AcDbSpline
210
0
220
0
230
1
 70
8
 71
3
 72
8
 73
4
 74
0
 40
0
 40
0
 40
0
 40
0
 40
1
 40
1
 40
1
 40
1
 10
105.386
 20
-32.4072
 30
71
 10
105.385
 20
-31.6756
 30
71
 10
105.312
 20
-30.9496
 30
71
 10
105.092
 20
-30.2873
 30
71
  0
SPLINE
  5
A2E
330
A02
100
AcDbEntity
  8
Body007
100
AcDbSpline
210
0
220
0
230
1
 70
8
 71
3
 72
8
 73
4
 74
0
 40
0
 40
0
 40
0
 40
0
 40
1
 40
1
 40
1
 40
1
 10
105.161
 20
-34.2865
 30
71
 10
105.325
 20
-33.6924
 30
71
 10
105.386
 20
-33.0543
 30
71
 10
105.386
 20
-32.4072
 30
71
  0
SPLINE
  5
A2F
330
A02
100
AcDbEntity
  8
Body007
100
AcDbSpline
210
0
220
0
230
1
 70
8
 71
3
 72
8
 73
4
 74
0
 40
0
 40
0
 40
0
 40
0
 40
1
 40
1
 40
1
 40
1
 10
104.515
 20
-35.6387
 30
71
 10
104.818
 20
-35.2552
 30
71
 10
105.025
 20
-34.7868
 30
71
 10
105.161
 20
-34.2865
 30
71
  0
SPLINE
  5
A30
330
A02
100
AcDbEntity
  8
Body007
100
AcDbSpline
210
0
220
0
230
1
 70
8
 71
3
 72
8
 73
4
 74
0
 40
0
 40
0
 40
0
 40
0
 40
1
 40
1
 40
1
 40
1
 10
103.495
 20
-36.4523
 30
71
 10
103.894
 20
-36.2694
 30
71
 10
104.241
 20
-35.9893
 30
71
 10
104.515
 20
-35.6387
 30
71
  0
SPLINE
  5
A31
330
A02
100
AcDbEntity
  8
Body007
100
AcDbSpline
210
0
220
0
230
1
 70
8
 71
3
 72
8
 73
4
 74
0
 40
0
 40
0
 40
0
 40
0
 40
1
 40
1
 40
1
 40
1
 10
102.143
 20
-36.7273
 30
71
 10
102.619
 20
-36.7279
 30
71
 10
103.083
 20
-36.6435
 30
71
 10
103.495
 20
-36.4523
 30
71
  0
SPLINE
  5
A32
330
A02
100
AcDbEntity
  8
Body007
100
AcDbSpline
210
0
220
0
230
1
 70
8
 71
3
 72
8
 73
4
 74
0
 40
0
 40
0
 40
0
 40
0
 40
1
 40
1
 40
1
 40
1
 10
100.699
 20
-36.4064
 30
71
 10
101.136
 20
-36.6296
 30
71
 10
101.633
 20
-36.7282
 30
71
 10
102.143
 20
-36.7273
 30
71
  0
LINE
  5
A33
330
A02
100
AcDbEntity
  8
Body007
100
AcDbLine
 10
101.215
 20
-35.3178
 30
71
 11
100.699
 21
-36.4064
 31
71
  0
SPLINE
  5
A34
330
A02
100
AcDbEntity
  8
Body007
100
AcDbSpline
210
0
220
0
230
1
 70
8
 71
3
 72
8
 73
4
 74
0
 40
0
 40
0
 40
0
 40
0
 40
1
 40
1
 40
1
 40
1
 10
102.109
 20
-35.6043
 30
71
 10
101.771
 20
-35.6057
 30
71
 10
101.457
 20
-35.5149
 30
71
 10
101.215
 20
-35.3178
 30
71
  0
SPLINE
  5
A35
330
A02
100
AcDbEntity
  8
Body007
100
AcDbSpline
210
0
220
0
230
1
 70
8
 71
2
 72
6
 73
3
 74
0
 40
0
 40
0
 40
0
 40
1
 40
1
 40
1
 10
102.88
 20
-35.4401
 30
71
 10
102.525
 20
-35.6058
 30
71
 10
102.109
 20
-35.6043
 30
71
  0
SPLINE
  5
A36
330
A02
100
AcDbEntity
  8
Body007
100
AcDbSpline
210
0
220
0
230
1
 70
8
 71
3
 72
8
 73
4
 74
0
 40
0
 40
0
 40
0
 40
0
 40
1
 40
1
 40
1
 40
1
 10
103.473
 20
-34.8938
 30
71
 10
103.319
 20
-35.1366
 30
71
 10
103.12
 20
-35.3264
 30
71
 10
102.88
 20
-35.4401
 30
71
  0
SPLINE
  5
A37
330
A02
100
AcDbEntity
  8
Body007
100
AcDbSpline
210
0
220
0
230
1
 70
8
 71
3
 72
8
 73
4
 74
0
 40
0
 40
0
 40
0
 40
0
 40
1
 40
1
 40
1
 40
1
 10
103.843
 20
-33.9045
 30
71
 10
103.764
 20
-34.2758
 30
71
 10
103.647
 20
-34.6192
 30
71
 10
103.473
 20
-34.8938
 30
71
  0
SPLINE
  5
A38
330
A02
100
AcDbEntity
  8
Body007
100
AcDbSpline
210
0
220
0
230
1
 70
8
 71
3
 72
8
 73
4
 74
0
 40
0
 40
0
 40
0
 40
0
 40
1
 40
1
 40
1
 40
1
 10
103.988
 20
-32.4072
 30
71
 10
103.981
 20
-32.9314
 30
71
 10
103.943
 20
-33.4419
 30
71
 10
103.843
 20
-33.9045
 30
71
  0
SPLINE
  5
A39
330
A02
100
AcDbEntity
  8
Body007
100
AcDbSpline
210
0
220
0
230
1
 70
8
 71
3
 72
8
 73
4
 74
0
 40
0
 40
0
 40
0
 40
0
 40
1
 40
1
 40
1
 40
1
 10
103.885
 20
-31.1467
 30
71
 10
103.952
 20
-31.5384
 30
71
 10
103.981
 20
-31.9651
 30
71
 10
103.988
 20
-32.4072
 30
71
  0
SPLINE
  5
A3A
330
A02
100
AcDbEntity
  8
Body007
100
AcDbSpline
210
0
220
0
230
1
 70
8
 71
3
 72
8
 73
4
 74
0
 40
0
 40
0
 40
0
 40
0
 40
1
 40
1
 40
1
 40
1
 10
103.622
 20
-30.23
 30
71
 10
103.744
 20
-30.4987
 30
71
 10
103.828
 20
-30.8112
 30
71
 10
103.885
 20
-31.1467
 30
71
  0
SPLINE
  5
A3B
330
A02
100
AcDbEntity
  8
Body007
100
AcDbSpline
210
0
220
0
230
1
 70
8
 71
2
 72
6
 73
3
 74
0
 40
0
 40
0
 40
0
 40
1
 40
1
 40
1
 10
103.61
 20
-30.2071
 30
71
 10
103.61
 20
-30.2185
 30
71
 10
103.622
 20
-30.23
 30
71
  0
LINE
  5
A3C
330
A02
100
AcDbEntity
  8
Body007
100
AcDbLine
 10
104.24
 20
-28.8778
 30
71
 11
103.61
 21
-30.2071
 31
71
  0
SPLINE
  5
A3D
330
A02
100
AcDbEntity
  8
Body007
100
AcDbSpline
210
0
220
0
230
1
 70
8
 71
3
 72
8
 73
4
 74
0
 40
0
 40
0
 40
0
 40
0
 40
1
 40
1
 40
1
 40
1
 10
105.092
 20
-30.2873
 30
71
 10
104.915
 20
-29.7463
 30
71
 10
104.638
 20
-29.2495
 30
71
 10
104.24
 20
-28.8778
 30
71
  0
SPLINE
  5
A3E
330
A02
100
AcDbEntity
  8
Body007
100
AcDbSpline
210
0
220
0
230
1
 70
8
 71
3
 72
8
 73
4
 74
0
 40
0
 40
0
 40
0
 40
0
 40
1
 40
1
 40
1
 40
1
 10
100.825
 20
-29.9282
 30
71
 10
100.978
 20
-29.6828
 30
71
 10
101.174
 20
-29.4912
 30
71
 10
101.41
 20
-29.382
 30
71
  0
SPLINE
  5
A3F
330
A02
100
AcDbEntity
  8
Body007
100
AcDbSpline
210
0
220
0
230
1
 70
8
 71
3
 72
8
 73
4
 74
0
 40
0
 40
0
 40
0
 40
0
 40
1
 40
1
 40
1
 40
1
 10
100.451
 20
-30.9175
 30
71
 10
100.533
 20
-30.5473
 30
71
 10
100.651
 20
-30.2048
 30
71
 10
100.825
 20
-29.9282
 30
71
  0
SPLINE
  5
A40
330
A02
100
AcDbEntity
  8
Body007
100
AcDbSpline
210
0
220
0
230
1
 70
8
 71
3
 72
8
 73
4
 74
0
 40
0
 40
0
 40
0
 40
0
 40
1
 40
1
 40
1
 40
1
 10
100.31
 20
-32.4072
 30
71
 10
100.317
 20
-31.8849
 30
71
 10
100.354
 20
-31.3765
 30
71
 10
100.451
 20
-30.9175
 30
71
  0
SPLINE
  5
A41
330
A02
100
AcDbEntity
  8
Body007
100
AcDbSpline
210
0
220
0
230
1
 70
8
 71
2
 72
6
 73
3
 74
0
 40
0
 40
0
 40
0
 40
1
 40
1
 40
1
 10
100.402
 20
-33.6448
 30
71
 10
100.318
 20
-33.0595
 30
71
 10
100.31
 20
-32.4072
 30
71
  0
SPLINE
  5
A42
330
A02
100
AcDbEntity
  8
Body007
100
AcDbSpline
210
0
220
0
230
1
 70
8
 71
3
 72
8
 73
4
 74
0
 40
0
 40
0
 40
0
 40
0
 40
1
 40
1
 40
1
 40
1
 10
100.642
 20
-34.5615
 30
71
 10
100.528
 20
-34.2924
 30
71
 10
100.451
 20
-33.9799
 30
71
 10
100.402
 20
-33.6448
 30
71
  0
LINE
  5
A43
330
A02
100
AcDbEntity
  8
Body007
100
AcDbLine
 10
100.012
 20
-35.9022
 30
71
 11
100.642
 21
-34.5615
 31
71
  0
SPLINE
  5
A44
330
A02
100
AcDbEntity
  8
Body007
100
AcDbSpline
210
0
220
0
230
1
 70
8
 71
3
 72
8
 73
4
 74
0
 40
0
 40
0
 40
0
 40
0
 40
1
 40
1
 40
1
 40
1
 10
99.1983
 20
-34.5004
 30
71
 10
99.3738
 20
-35.0314
 30
71
 10
99.6382
 20
-35.5215
 30
71
 10
100.012
 20
-35.9022
 30
71
  0
SPLINE
  5
A45
330
A02
100
AcDbEntity
  8
Body007
100
AcDbSpline
210
0
220
0
230
1
 70
8
 71
3
 72
8
 73
4
 74
0
 40
0
 40
0
 40
0
 40
0
 40
1
 40
1
 40
1
 40
1
 10
98.9118
 20
-32.4072
 30
71
 10
98.9126
 20
-33.1301
 30
71
 10
98.9838
 20
-33.8472
 30
71
 10
99.1983
 20
-34.5004
 30
71
  0
SPLINE
  5
A46
330
A02
100
AcDbEntity
  8
Body007
100
AcDbSpline
210
0
220
0
230
1
 70
8
 71
3
 72
8
 73
4
 74
0
 40
0
 40
0
 40
0
 40
0
 40
1
 40
1
 40
1
 40
1
 10
99.1334
 20
-30.5355
 30
71
 10
98.9714
 20
-31.1265
 30
71
 10
98.9122
 20
-31.7623
 30
71
 10
98.9118
 20
-32.4072
 30
71
  0
SPLINE
  5
A47
330
A02
100
AcDbEntity
  8
Body007
100
AcDbSpline
210
0
220
0
230
1
 70
8
 71
3
 72
8
 73
4
 74
0
 40
0
 40
0
 40
0
 40
0
 40
1
 40
1
 40
1
 40
1
 10
99.7751
 20
-29.1872
 30
71
 10
99.4778
 20
-29.5714
 30
71
 10
99.2717
 20
-30.0377
 30
71
 10
99.1334
 20
-30.5355
 30
71
  0
SPLINE
  5
A48
330
A02
100
AcDbEntity
  8
Body007
100
AcDbSpline
210
0
220
0
230
1
 70
8
 71
3
 72
8
 73
4
 74
0
 40
0
 40
0
 40
0
 40
0
 40
1
 40
1
 40
1
 40
1
 10
100.795
 20
-28.3698
 30
71
 10
100.395
 20
-28.5545
 30
71
 10
100.048
 20
-28.8354
 30
71
 10
99.7751
 20
-29.1872
 30
71
  0
SPLINE
  5
A49
330
A02
100
AcDbEntity
  8
Body007
100
AcDbSpline
210
0
220
0
230
1
 70
8
 71
3
 72
8
 73
4
 74
0
 40
0
 40
0
 40
0
 40
0
 40
1
 40
1
 40
1
 40
1
 10
102.143
 20
-28.0871
 30
71
 10
101.67
 20
-28.0864
 30
71
 10
101.208
 20
-28.1753
 30
71
 10
100.795
 20
-28.3698
 30
71
  0
SPLINE
  5
A4A
330
A02
100
AcDbEntity
  8
Body007
100
AcDbSpline
210
0
220
0
230
1
 70
8
 71
3
 72
8
 73
4
 74
0
 40
0
 40
0
 40
0
 40
0
 40
1
 40
1
 40
1
 40
1
 10
103.53
 20
-28.385
 30
71
 10
103.113
 20
-28.1758
 30
71
 10
102.635
 20
-28.0864
 30
71
 10
102.143
 20
-28.0871
 30
71
  0
LINE
  5
A4B
330
A02
100
AcDbEntity
  8
Body007
100
AcDbLine
 10
103.026
 20
-29.4622
 30
71
 11
103.53
 21
-28.385
 31
71
  0
SPLINE
  5
A4C
330
A02
100
AcDbEntity
  8
Body007
100
AcDbSpline
210
0
220
0
230
1
 70
8
 71
3
 72
8
 73
4
 74
0
 40
0
 40
0
 40
0
 40
0
 40
1
 40
1
 40
1
 40
1
 10
102.178
 20
-29.2216
 30
71
 10
102.484
 20
-29.2207
 30
71
 10
102.774
 20
-29.3011
 30
71
 10
103.026
 20
-29.4622
 30
71
  0
SPLINE
  5
A4D
330
A02
100
AcDbEntity
  8
Body007
100
AcDbSpline
210
0
220
0
230
1
 70
8
 71
2
 72
6
 73
3
 74
0
 40
0
 40
0
 40
0
 40
1
 40
1
 40
1
 10
101.41
 20
-29.382
 30
71
 10
101.762
 20
-29.2199
 30
71
 10
102.178
 20
-29.2216
 30
71
  0
LINE
  5
A4E
330
A02
100
AcDbEntity
  8
Body007
100
AcDbLine
 10
93.2052
 20
-30.1956
 30
71
 11
93.2052
 21
-36.67
 31
71
  0
LINE
  5
A4F
330
A02
100
AcDbEntity
  8
Body007
100
AcDbLine
 10
92.0478
 20
-31.353
 30
71
 11
93.2052
 21
-30.1956
 31
71
  0
LINE
  5
A50
330
A02
100
AcDbEntity
  8
Body007
100
AcDbLine
 10
91.0623
 20
-30.3675
 30
71
 11
92.0478
 21
-31.353
 31
71
  0
LINE
  5
A51
330
A02
100
AcDbEntity
  8
Body007
100
AcDbLine
 10
93.2052
 20
-28.2246
 30
71
 11
91.0623
 21
-30.3675
 31
71
  0
LINE
  5
A52
330
A02
100
AcDbEntity
  8
Body007
100
AcDbLine
 10
94.6032
 20
-28.2246
 30
71
 11
93.2052
 21
-28.2246
 31
71
  0
LINE
  5
A53
330
A02
100
AcDbEntity
  8
Body007
100
AcDbLine
 10
94.6032
 20
-36.67
 30
71
 11
94.6032
 21
-28.2246
 31
71
  0
LINE
  5
A54
330
A02
100
AcDbEntity
  8
Body007
100
AcDbLine
 10
93.2052
 20
-36.67
 30
71
 11
94.6032
 21
-36.67
 31
71
  0
CIRCLE
  5
A55
330
A02
100
AcDbEntity
  8
Body007
100
AcDbCircle
 10
96.5
 20
-4
 40
1
  0
CIRCLE
  5
A56
330
A02
100
AcDbEntity
  8
Body007
100
AcDbCircle
 10
28.5
 20
-16.5
 40
2
  0
CIRCLE
  5
A57
330
A02
100
AcDbEntity
  8
Body007
100
AcDbCircle
 10
33
 20
-4
 40
1
  0
LINE
  5
A58
330
A02
100
AcDbEntity
  8
Body007
100
AcDbLine
 10
3
 20
-81
 30
73
 11
3
 21
-61
 31
73
  0
LINE
  5
A59
330
A02
100
AcDbEntity
  8
Body007
100
AcDbLine
 10
3
 20
-81
 30
73
 11
18
 21
-81
 31
73
  0
LINE
  5
A5A
330
A02
100
AcDbEntity
  8
Body007
100
AcDbLine
 10
3
 20
-61
 30
73
 11
8
 21
-12
 31
73
  0
LINE
  5
A5B
330
A02
100
AcDbEntity
  8
Body007
100
AcDbLine
 10
18
 20
-81
 30
73
 11
18
 21
-61
 31
73
  0
LINE
  5
A5C
330
A02
100
AcDbEntity
  8
Body007
100
AcDbLine
 10
8
 20
-12
 30
73
 11
8
 21
-2
 31
73
  0
LINE
  5
A5D
330
A02
100
AcDbEntity
  8
Body007
100
AcDbLine
 10
18
 20
-61
 30
73
 11
220
 21
-61
 31
73
  0
LINE
  5
A5E
330
A02
100
AcDbEntity
  8
Body007
100
AcDbLine
 10
8
 20
-2
 30
73
 11
185
 21
-2
 31
73
  0
LINE
  5
A5F
330
A02
100
AcDbEntity
  8
Body007
100
AcDbLine
 10
220
 20
-46
 30
73
 11
220
 21
-61
 31
73
  0
LINE
  5
A60
330
A02
100
AcDbEntity
  8
Body007
100
AcDbLine
 10
185
 20
-2
 30
73
 11
185
 21
-12
 31
73
  0
LINE
  5
A61
330
A02
100
AcDbEntity
  8
Body007
100
AcDbLine
 10
200
 20
-46
 30
73
 11
220
 21
-46
 31
73
  0
LINE
  5
A62
330
A02
100
AcDbEntity
  8
Body007
100
AcDbLine
 10
185
 20
-12
 30
73
 11
200
 21
-46
 31
73
  0
CIRCLE
  5
A63
330
A02
100
AcDbEntity
  8
Body007
100
AcDbCircle
 10
212.5
 20
-53.5
 40
2
  0
CIRCLE
  5
A64
330
A02
100
AcDbEntity
  8
Body007
100
AcDbCircle
 10
172.5
 20
-49.8
 40
2
  0
CIRCLE
  5
A65
330
A02
100
AcDbEntity
  8
Body007
100
AcDbCircle
 10
10.5
 20
-73.5
 40
2
  0
CIRCLE
  5
A66
330
A02
100
AcDbEntity
  8
Body007
100
AcDbCircle
 10
28.5
 20
-49.8
 40
2
  0
CIRCLE
  5
A67
330
A02
100
AcDbEntity
  8
Body007
100
AcDbCircle
 10
172.5
 20
-16.5
 40
2
  0
CIRCLE
  5
A68
330
A02
100
AcDbEntity
  8
Body007
100
AcDbCircle
 10
160
 20
-4
 40
1
  0
SPLINE
  5
A69
330
A02
100
AcDbEntity
  8
Body007
100
AcDbSpline
210
0
220
0
230
1
 70
8
 71
3
 72
8
 73
4
 74
0
 40
0
 40
0
 40
0
 40
0
 40
1
 40
1
 40
1
 40
1
 10
96.811
 20
-36.7158
 30
73
 10
97.0366
 20
-36.7169
 30
73
 10
97.2377
 20
-36.6344
 30
73
 10
97.3954
 20
-36.4752
 30
73
  0
SPLINE
  5
A6A
330
A02
100
AcDbEntity
  8
Body007
100
AcDbSpline
210
0
220
0
230
1
 70
8
 71
3
 72
8
 73
4
 74
0
 40
0
 40
0
 40
0
 40
0
 40
1
 40
1
 40
1
 40
1
 10
96.2304
 20
-36.4752
 30
73
 10
96.3857
 20
-36.6346
 30
73
 10
96.5857
 20
-36.717
 30
73
 10
96.811
 20
-36.7158
 30
73
  0
SPLINE
  5
A6B
330
A02
100
AcDbEntity
  8
Body007
100
AcDbSpline
210
0
220
0
230
1
 70
8
 71
3
 72
8
 73
4
 74
0
 40
0
 40
0
 40
0
 40
0
 40
1
 40
1
 40
1
 40
1
 10
95.9974
 20
-35.8908
 30
73
 10
95.9964
 20
-36.116
 30
73
 10
96.0757
 20
-36.317
 30
73
 10
96.2304
 20
-36.4752
 30
73
  0
SPLINE
  5
A6C
330
A02
100
AcDbEntity
  8
Body007
100
AcDbSpline
210
0
220
0
230
1
 70
8
 71
3
 72
8
 73
4
 74
0
 40
0
 40
0
 40
0
 40
0
 40
1
 40
1
 40
1
 40
1
 10
96.238
 20
-35.314
 30
73
 10
96.0784
 20
-35.4669
 30
73
 10
95.9962
 20
-35.6658
 30
73
 10
95.9974
 20
-35.8908
 30
73
  0
SPLINE
  5
A6D
330
A02
100
AcDbEntity
  8
Body007
100
AcDbSpline
210
0
220
0
230
1
 70
8
 71
3
 72
8
 73
4
 74
0
 40
0
 40
0
 40
0
 40
0
 40
1
 40
1
 40
1
 40
1
 10
96.811
 20
-35.0772
 30
73
 10
96.5919
 20
-35.0761
 30
73
 10
96.3952
 20
-35.1579
 30
73
 10
96.238
 20
-35.314
 30
73
  0
SPLINE
  5
A6E
330
A02
100
AcDbEntity
  8
Body007
100
AcDbSpline
210
0
220
0
230
1
 70
8
 71
3
 72
8
 73
4
 74
0
 40
0
 40
0
 40
0
 40
0
 40
1
 40
1
 40
1
 40
1
 10
97.3954
 20
-35.314
 30
73
 10
97.2375
 20
-35.1571
 30
73
 10
97.0364
 20
-35.0761
 30
73
 10
96.811
 20
-35.0772
 30
73
  0
SPLINE
  5
A6F
330
A02
100
AcDbEntity
  8
Body007
100
AcDbSpline
210
0
220
0
230
1
 70
8
 71
3
 72
8
 73
4
 74
0
 40
0
 40
0
 40
0
 40
0
 40
1
 40
1
 40
1
 40
1
 10
97.636
 20
-35.8908
 30
73
 10
97.6372
 20
-35.6658
 30
73
 10
97.555
 20
-35.4669
 30
73
 10
97.3954
 20
-35.314
 30
73
  0
SPLINE
  5
A70
330
A02
100
AcDbEntity
  8
Body007
100
AcDbSpline
210
0
220
0
230
1
 70
8
 71
3
 72
8
 73
4
 74
0
 40
0
 40
0
 40
0
 40
0
 40
1
 40
1
 40
1
 40
1
 10
97.3954
 20
-36.4752
 30
73
 10
97.5546
 20
-36.3175
 30
73
 10
97.6371
 20
-36.1164
 30
73
 10
97.636
 20
-35.8908
 30
73
  0
SPLINE
  5
A71
330
A02
100
AcDbEntity
  8
Body007
100
AcDbSpline
210
0
220
0
230
1
 70
8
 71
3
 72
8
 73
4
 74
0
 40
0
 40
0
 40
0
 40
0
 40
1
 40
1
 40
1
 40
1
 10
105.386
 20
-32.4072
 30
73
 10
105.385
 20
-31.6756
 30
73
 10
105.312
 20
-30.9496
 30
73
 10
105.092
 20
-30.2873
 30
73
  0
SPLINE
  5
A72
330
A02
100
AcDbEntity
  8
Body007
100
AcDbSpline
210
0
220
0
230
1
 70
8
 71
3
 72
8
 73
4
 74
0
 40
0
 40
0
 40
0
 40
0
 40
1
 40
1
 40
1
 40
1
 10
105.161
 20
-34.2865
 30
73
 10
105.325
 20
-33.6924
 30
73
 10
105.386
 20
-33.0543
 30
73
 10
105.386
 20
-32.4072
 30
73
  0
SPLINE
  5
A73
330
A02
100
AcDbEntity
  8
Body007
100
AcDbSpline
210
0
220
0
230
1
 70
8
 71
3
 72
8
 73
4
 74
0
 40
0
 40
0
 40
0
 40
0
 40
1
 40
1
 40
1
 40
1
 10
104.515
 20
-35.6387
 30
73
 10
104.818
 20
-35.2552
 30
73
 10
105.025
 20
-34.7868
 30
73
 10
105.161
 20
-34.2865
 30
73
  0
SPLINE
  5
A74
330
A02
100
AcDbEntity
  8
Body007
100
AcDbSpline
210
0
220
0
230
1
 70
8
 71
3
 72
8
 73
4
 74
0
 40
0
 40
0
 40
0
 40
0
 40
1
 40
1
 40
1
 40
1
 10
103.495
 20
-36.4523
 30
73
 10
103.894
 20
-36.2694
 30
73
 10
104.241
 20
-35.9893
 30
73
 10
104.515
 20
-35.6387
 30
73
  0
SPLINE
  5
A75
330
A02
100
AcDbEntity
  8
Body007
100
AcDbSpline
210
0
220
0
230
1
 70
8
 71
3
 72
8
 73
4
 74
0
 40
0
 40
0
 40
0
 40
0
 40
1
 40
1
 40
1
 40
1
 10
102.143
 20
-36.7273
 30
73
 10
102.619
 20
-36.7279
 30
73
 10
103.083
 20
-36.6435
 30
73
 10
103.495
 20
-36.4523
 30
73
  0
SPLINE
  5
A76
330
A02
100
AcDbEntity
  8
Body007
100
AcDbSpline
210
0
220
0
230
1
 70
8
 71
3
 72
8
 73
4
 74
0
 40
0
 40
0
 40
0
 40
0
 40
1
 40
1
 40
1
 40
1
 10
100.699
 20
-36.4064
 30
73
 10
101.136
 20
-36.6296
 30
73
 10
101.633
 20
-36.7282
 30
73
 10
102.143
 20
-36.7273
 30
73
  0
LINE
  5
A77
330
A02
100
AcDbEntity
  8
Body007
100
AcDbLine
 10
101.215
 20
-35.3178
 30
73
 11
100.699
 21
-36.4064
 31
73
  0
SPLINE
  5
A78
330
A02
100
AcDbEntity
  8
Body007
100
AcDbSpline
210
0
220
0
230
1
 70
8
 71
3
 72
8
 73
4
 74
0
 40
0
 40
0
 40
0
 40
0
 40
1
 40
1
 40
1
 40
1
 10
102.109
 20
-35.6043
 30
73
 10
101.771
 20
-35.6057
 30
73
 10
101.457
 20
-35.5149
 30
73
 10
101.215
 20
-35.3178
 30
73
  0
SPLINE
  5
A79
330
A02
100
AcDbEntity
  8
Body007
100
AcDbSpline
210
0
220
0
230
1
 70
8
 71
2
 72
6
 73
3
 74
0
 40
0
 40
0
 40
0
 40
1
 40
1
 40
1
 10
102.88
 20
-35.4401
 30
73
 10
102.525
 20
-35.6058
 30
73
 10
102.109
 20
-35.6043
 30
73
  0
SPLINE
  5
A7A
330
A02
100
AcDbEntity
  8
Body007
100
AcDbSpline
210
0
220
0
230
1
 70
8
 71
3
 72
8
 73
4
 74
0
 40
0
 40
0
 40
0
 40
0
 40
1
 40
1
 40
1
 40
1
 10
103.473
 20
-34.8938
 30
73
 10
103.319
 20
-35.1366
 30
73
 10
103.12
 20
-35.3264
 30
73
 10
102.88
 20
-35.4401
 30
73
  0
SPLINE
  5
A7B
330
A02
100
AcDbEntity
  8
Body007
100
AcDbSpline
210
0
220
0
230
1
 70
8
 71
3
 72
8
 73
4
 74
0
 40
0
 40
0
 40
0
 40
0
 40
1
 40
1
 40
1
 40
1
 10
103.843
 20
-33.9045
 30
73
 10
103.764
 20
-34.2758
 30
73
 10
103.647
 20
-34.6192
 30
73
 10
103.473
 20
-34.8938
 30
73
  0
SPLINE
  5
A7C
330
A02
100
AcDbEntity
  8
Body007
100
AcDbSpline
210
0
220
0
230
1
 70
8
 71
3
 72
8
 73
4
 74
0
 40
0
 40
0
 40
0
 40
0
 40
1
 40
1
 40
1
 40
1
 10
103.988
 20
-32.4072
 30
73
 10
103.981
 20
-32.9314
 30
73
 10
103.943
 20
-33.4419
 30
73
 10
103.843
 20
-33.9045
 30
73
  0
SPLINE
  5
A7D
330
A02
100
AcDbEntity
  8
Body007
100
AcDbSpline
210
0
220
0
230
1
 70
8
 71
3
 72
8
 73
4
 74
0
 40
0
 40
0
 40
0
 40
0
 40
1
 40
1
 40
1
 40
1
 10
103.885
 20
-31.1467
 30
73
 10
103.952
 20
-31.5384
 30
73
 10
103.981
 20
-31.9651
 30
73
 10
103.988
 20
-32.4072
 30
73
  0
SPLINE
  5
A7E
330
A02
100
AcDbEntity
  8
Body007
100
AcDbSpline
210
0
220
0
230
1
 70
8
 71
3
 72
8
 73
4
 74
0
 40
0
 40
0
 40
0
 40
0
 40
1
 40
1
 40
1
 40
1
 10
103.622
 20
-30.23
 30
73
 10
103.744
 20
-30.4987
 30
73
 10
103.828
 20
-30.8112
 30
73
 10
103.885
 20
-31.1467
 30
73
  0
SPLINE
  5
A7F
330
A02
100
AcDbEntity
  8
Body007
100
AcDbSpline
210
0
220
0
230
1
 70
8
 71
2
 72
6
 73
3
 74
0
 40
0
 40
0
 40
0
 40
1
 40
1
 40
1
 10
103.61
 20
-30.2071
 30
73
 10
103.61
 20
-30.2185
 30
73
 10
103.622
 20
-30.23
 30
73
  0
LINE
  5
A80
330
A02
100
AcDbEntity
  8
Body007
100
AcDbLine
 10
104.24
 20
-28.8778
 30
73
 11
103.61
 21
-30.2071
 31
73
  0
SPLINE
  5
A81
330
A02
100
AcDbEntity
  8
Body007
100
AcDbSpline
210
0
220
0
230
1
 70
8
 71
3
 72
8
 73
4
 74
0
 40
0
 40
0
 40
0
 40
0
 40
1
 40
1
 40
1
 40
1
 10
105.092
 20
-30.2873
 30
73
 10
104.915
 20
-29.7463
 30
73
 10
104.638
 20
-29.2495
 30
73
 10
104.24
 20
-28.8778
 30
73
  0
SPLINE
  5
A82
330
A02
100
AcDbEntity
  8
Body007
100
AcDbSpline
210
0
220
0
230
1
 70
8
 71
3
 72
8
 73
4
 74
0
 40
0
 40
0
 40
0
 40
0
 40
1
 40
1
 40
1
 40
1
 10
100.825
 20
-29.9282
 30
73
 10
100.978
 20
-29.6828
 30
73
 10
101.174
 20
-29.4912
 30
73
 10
101.41
 20
-29.382
 30
73
  0
SPLINE
  5
A83
330
A02
100
AcDbEntity
  8
Body007
100
AcDbSpline
210
0
220
0
230
1
 70
8
 71
3
 72
8
 73
4
 74
0
 40
0
 40
0
 40
0
 40
0
 40
1
 40
1
 40
1
 40
1
 10
100.451
 20
-30.9175
 30
73
 10
100.533
 20
-30.5473
 30
73
 10
100.651
 20
-30.2048
 30
73
 10
100.825
 20
-29.9282
 30
73
  0
SPLINE
  5
A84
330
A02
100
AcDbEntity
  8
Body007
100
AcDbSpline
210
0
220
0
230
1
 70
8
 71
3
 72
8
 73
4
 74
0
 40
0
 40
0
 40
0
 40
0
 40
1
 40
1
 40
1
 40
1
 10
100.31
 20
-32.4072
 30
73
 10
100.317
 20
-31.8849
 30
73
 10
100.354
 20
-31.3765
 30
73
 10
100.451
 20
-30.9175
 30
73
  0
SPLINE
  5
A85
330
A02
100
AcDbEntity
  8
Body007
100
AcDbSpline
210
0
220
0
230
1
 70
8
 71
2
 72
6
 73
3
 74
0
 40
0
 40
0
 40
0
 40
1
 40
1
 40
1
 10
100.402
 20
-33.6448
 30
73
 10
100.318
 20
-33.0595
 30
73
 10
100.31
 20
-32.4072
 30
73
  0
SPLINE
  5
A86
330
A02
100
AcDbEntity
  8
Body007
100
AcDbSpline
210
0
220
0
230
1
 70
8
 71
3
 72
8
 73
4
 74
0
 40
0
 40
0
 40
0
 40
0
 40
1
 40
1
 40
1
 40
1
 10
100.642
 20
-34.5615
 30
73
 10
100.528
 20
-34.2924
 30
73
 10
100.451
 20
-33.9799
 30
73
 10
100.402
 20
-33.6448
 30
73
  0
LINE
  5
A87
330
A02
100
AcDbEntity
  8
Body007
100
AcDbLine
 10
100.012
 20
-35.9022
 30
73
 11
100.642
 21
-34.5615
 31
73
  0
SPLINE
  5
A88
330
A02
100
AcDbEntity
  8
Body007
100
AcDbSpline
210
0
220
0
230
1
 70
8
 71
3
 72
8
 73
4
 74
0
 40
0
 40
0
 40
0
 40
0
 40
1
 40
1
 40
1
 40
1
 10
99.1983
 20
-34.5004
 30
73
 10
99.3738
 20
-35.0314
 30
73
 10
99.6382
 20
-35.5215
 30
73
 10
100.012
 20
-35.9022
 30
73
  0
SPLINE
  5
A89
330
A02
100
AcDbEntity
  8
Body007
100
AcDbSpline
210
0
220
0
230
1
 70
8
 71
3
 72
8
 73
4
 74
0
 40
0
 40
0
 40
0
 40
0
 40
1
 40
1
 40
1
 40
1
 10
98.9118
 20
-32.4072
 30
73
 10
98.9126
 20
-33.1301
 30
73
 10
98.9838
 20
-33.8472
 30
73
 10
99.1983
 20
-34.5004
 30
73
  0
SPLINE
  5
A8A
330
A02
100
AcDbEntity
  8
Body007
100
AcDbSpline
210
0
220
0
230
1
 70
8
 71
3
 72
8
 73
4
 74
0
 40
0
 40
0
 40
0
 40
0
 40
1
 40
1
 40
1
 40
1
 10
99.1334
 20
-30.5355
 30
73
 10
98.9714
 20
-31.1265
 30
73
 10
98.9122
 20
-31.7623
 30
73
 10
98.9118
 20
-32.4072
 30
73
  0
SPLINE
  5
A8B
330
A02
100
AcDbEntity
  8
Body007
100
AcDbSpline
210
0
220
0
230
1
 70
8
 71
3
 72
8
 73
4
 74
0
 40
0
 40
0
 40
0
 40
0
 40
1
 40
1
 40
1
 40
1
 10
99.7751
 20
-29.1872
 30
73
 10
99.4778
 20
-29.5714
 30
73
 10
99.2717
 20
-30.0377
 30
73
 10
99.1334
 20
-30.5355
 30
73
  0
SPLINE
  5
A8C
330
A02
100
AcDbEntity
  8
Body007
100
AcDbSpline
210
0
220
0
230
1
 70
8
 71
3
 72
8
 73
4
 74
0
 40
0
 40
0
 40
0
 40
0
 40
1
 40
1
 40
1
 40
1
 10
100.795
 20
-28.3698
 30
73
 10
100.395
 20
-28.5545
 30
73
 10
100.048
 20
-28.8354
 30
73
 10
99.7751
 20
-29.1872
 30
73
  0
SPLINE
  5
A8D
330
A02
100
AcDbEntity
  8
Body007
100
AcDbSpline
210
0
220
0
230
1
 70
8
 71
3
 72
8
 73
4
 74
0
 40
0
 40
0
 40
0
 40
0
 40
1
 40
1
 40
1
 40
1
 10
102.143
 20
-28.0871
 30
73
 10
101.67
 20
-28.0864
 30
73
 10
101.208
 20
-28.1753
 30
73
 10
100.795
 20
-28.3698
 30
73
  0
SPLINE
  5
A8E
330
A02
100
AcDbEntity
  8
Body007
100
AcDbSpline
210
0
220
0
230
1
 70
8
 71
3
 72
8
 73
4
 74
0
 40
0
 40
0
 40
0
 40
0
 40
1
 40
1
 40
1
 40
1
 10
103.53
 20
-28.385
 30
73
 10
103.113
 20
-28.1758
 30
73
 10
102.635
 20
-28.0864
 30
73
 10
102.143
 20
-28.0871
 30
73
  0
LINE
  5
A8F
330
A02
100
AcDbEntity
  8
Body007
100
AcDbLine
 10
103.026
 20
-29.4622
 30
73
 11
103.53
 21
-28.385
 31
73
  0
SPLINE
  5
A90
330
A02
100
AcDbEntity
  8
Body007
100
AcDbSpline
210
0
220
0
230
1
 70
8
 71
3
 72
8
 73
4
 74
0
 40
0
 40
0
 40
0
 40
0
 40
1
 40
1
 40
1
 40
1
 10
102.178
 20
-29.2216
 30
73
 10
102.484
 20
-29.2207
 30
73
 10
102.774
 20
-29.3011
 30
73
 10
103.026
 20
-29.4622
 30
73
  0
SPLINE
  5
A91
330
A02
100
AcDbEntity
  8
Body007
100
AcDbSpline
210
0
220
0
230
1
 70
8
 71
2
 72
6
 73
3
 74
0
 40
0
 40
0
 40
0
 40
1
 40
1
 40
1
 10
101.41
 20
-29.382
 30
73
 10
101.762
 20
-29.2199
 30
73
 10
102.178
 20
-29.2216
 30
73
  0
LINE
  5
A92
330
A02
100
AcDbEntity
  8
Body007
100
AcDbLine
 10
93.2052
 20
-30.1956
 30
73
 11
93.2052
 21
-36.67
 31
73
  0
LINE
  5
A93
330
A02
100
AcDbEntity
  8
Body007
100
AcDbLine
 10
92.0478
 20
-31.353
 30
73
 11
93.2052
 21
-30.1956
 31
73
  0
LINE
  5
A94
330
A02
100
AcDbEntity
  8
Body007
100
AcDbLine
 10
91.0623
 20
-30.3675
 30
73
 11
92.0478
 21
-31.353
 31
73
  0
LINE
  5
A95
330
A02
100
AcDbEntity
  8
Body007
100
AcDbLine
 10
93.2052
 20
-28.2246
 30
73
 11
91.0623
 21
-30.3675
 31
73
  0
LINE
  5
A96
330
A02
100
AcDbEntity
  8
Body007
100
AcDbLine
 10
94.6032
 20
-28.2246
 30
73
 11
93.2052
 21
-28.2246
 31
73
  0
LINE
  5
A97
330
A02
100
AcDbEntity
  8
Body007
100
AcDbLine
 10
94.6032
 20
-36.67
 30
73
 11
94.6032
 21
-28.2246
 31
73
  0
LINE
  5
A98
330
A02
100
AcDbEntity
  8
Body007
100
AcDbLine
 10
93.2052
 20
-36.67
 30
73
 11
94.6032
 21
-36.67
 31
73
  0
CIRCLE
  5
A99
330
A02
100
AcDbEntity
  8
Body007
100
AcDbCircle
 10
96.5
 20
-4
 40
1
  0
CIRCLE
  5
A9A
330
A02
100
AcDbEntity
  8
Body007
100
AcDbCircle
 10
28.5
 20
-16.5
 40
2
  0
CIRCLE
  5
A9B
330
A02
100
AcDbEntity
  8
Body007
100
AcDbCircle
 10
33
 20
-4
 40
1
  0
LINE
  5
A9C
330
A02
100
AcDbEntity
  8
Body007
100
AcDbLine
 10
18
 20
-81
 30
71
 11
18
 21
-81
 31
73
  0
LINE
  5
A9D
330
A02
100
AcDbEntity
  8
Body007
100
AcDbLine
 10
18
 20
-61
 30
71
 11
18
 21
-61
 31
73
  0
LINE
  5
A9E
330
A02
100
AcDbEntity
  8
Body007
100
AcDbLine
 10
18
 20
-81
 30
71
 11
18
 21
-61
 31
71
  0
LINE
  5
A9F
330
A02
100
AcDbEntity
  8
Body007
100
AcDbLine
 10
18
 20
-81
 30
73
 11
18
 21
-61
 31
73
  0
LINE
  5
AA0
330
A02
100
AcDbEntity
  8
Body007
100
AcDbLine
 10
8
 20
-12
 30
71
 11
8
 21
-12
 31
73
  0
LINE
  5
AA1
330
A02
100
AcDbEntity
  8
Body007
100
AcDbLine
 10
8
 20
-2
 30
71
 11
8
 21
-2
 31
73
  0
LINE
  5
AA2
330
A02
100
AcDbEntity
  8
Body007
100
AcDbLine
 10
8
 20
-12
 30
71
 11
8
 21
-2
 31
71
  0
LINE
  5
AA3
330
A02
100
AcDbEntity
  8
Body007
100
AcDbLine
 10
8
 20
-12
 30
73
 11
8
 21
-2
 31
73
  0
LINE
  5
AA4
330
A02
100
AcDbEntity
  8
Body007
100
AcDbLine
 10
18
 20
-61
 30
71
 11
18
 21
-61
 31
73
  0
LINE
  5
AA5
330
A02
100
AcDbEntity
  8
Body007
100
AcDbLine
 10
220
 20
-61
 30
71
 11
220
 21
-61
 31
73
  0
LINE
  5
AA6
330
A02
100
AcDbEntity
  8
Body007
100
AcDbLine
 10
18
 20
-61
 30
71
 11
220
 21
-61
 31
71
  0
LINE
  5
AA7
330
A02
100
AcDbEntity
  8
Body007
100
AcDbLine
 10
18
 20
-61
 30
73
 11
220
 21
-61
 31
73
  0
LINE
  5
AA8
330
A02
100
AcDbEntity
  8
Body007
100
AcDbLine
 10
8
 20
-2
 30
71
 11
8
 21
-2
 31
73
  0
LINE
  5
AA9
330
A02
100
AcDbEntity
  8
Body007
100
AcDbLine
 10
185
 20
-2
 30
71
 11
185
 21
-2
 31
73
  0
LINE
  5
AAA
330
A02
100
AcDbEntity
  8
Body007
100
AcDbLine
 10
8
 20
-2
 30
71
 11
185
 21
-2
 31
71
  0
LINE
  5
AAB
330
A02
100
AcDbEntity
  8
Body007
100
AcDbLine
 10
8
 20
-2
 30
73
 11
185
 21
-2
 31
73
  0
LINE
  5
AAC
330
A02
100
AcDbEntity
  8
Body007
100
AcDbLine
 10
220
 20
-46
 30
71
 11
220
 21
-46
 31
73
  0
LINE
  5
AAD
330
A02
100
AcDbEntity
  8
Body007
100
AcDbLine
 10
220
 20
-61
 30
71
 11
220
 21
-61
 31
73
  0
LINE
  5
AAE
330
A02
100
AcDbEntity
  8
Body007
100
AcDbLine
 10
220
 20
-46
 30
71
 11
220
 21
-61
 31
71
  0
LINE
  5
AAF
330
A02
100
AcDbEntity
  8
Body007
100
AcDbLine
 10
220
 20
-46
 30
73
 11
220
 21
-61
 31
73
  0
LINE
  5
AB0
330
A02
100
AcDbEntity
  8
Body007
100
AcDbLine
 10
185
 20
-2
 30
71
 11
185
 21
-2
 31
73
  0
LINE
  5
AB1
330
A02
100
AcDbEntity
  8
Body007
100
AcDbLine
 10
185
 20
-12
 30
71
 11
185
 21
-12
 31
73
  0
LINE
  5
AB2
330
A02
100
AcDbEntity
  8
Body007
100
AcDbLine
 10
185
 20
-2
 30
71
 11
185
 21
-12
 31
71
  0
LINE
  5
AB3
330
A02
100
AcDbEntity
  8
Body007
100
AcDbLine
 10
185
 20
-2
 30
73
 11
185
 21
-12
 31
73
  0
LINE
  5
AB4
330
A02
100
AcDbEntity
  8
Body007
100
AcDbLine
 10
200
 20
-46
 30
71
 11
200
 21
-46
 31
73
  0
LINE
  5
AB5
330
A02
100
AcDbEntity
  8
Body007
100
AcDbLine
 10
220
 20
-46
 30
71
 11
220
 21
-46
 31
73
  0
LINE
  5
AB6
330
A02
100
AcDbEntity
  8
Body007
100
AcDbLine
 10
200
 20
-46
 30
71
 11
220
 21
-46
 31
71
  0
LINE
  5
AB7
330
A02
100
AcDbEntity
  8
Body007
100
AcDbLine
 10
200
 20
-46
 30
73
 11
220
 21
-46
 31
73
  0
LINE
  5
AB8
330
A02
100
AcDbEntity
  8
Body007
100
AcDbLine
 10
185
 20
-12
 30
71
 11
185
 21
-12
 31
73
  0
LINE
  5
AB9
330
A02
100
AcDbEntity
  8
Body007
100
AcDbLine
 10
200
 20
-46
 30
71
 11
200
 21
-46
 31
73
  0
LINE
  5
ABA
330
A02
100
AcDbEntity
  8
Body007
100
AcDbLine
 10
185
 20
-12
 30
71
 11
200
 21
-46
 31
71
  0
LINE
  5
ABB
330
A02
100
AcDbEntity
  8
Body007
100
AcDbLine
 10
185
 20
-12
 30
73
 11
200
 21
-46
 31
73
  0
LINE
  5
ABC
330
A02
100
AcDbEntity
  8
Body007
100
AcDbLine
 10
214.5
 20
-53.5
 30
71
 11
214.5
 21
-53.5
 31
73
  0
LINE
  5
ABD
330
A02
100
AcDbEntity
  8
Body007
100
AcDbLine
 10
214.5
 20
-53.5
 30
71
 11
214.5
 21
-53.5
 31
73
  0
CIRCLE
  5
ABE
330
A02
100
AcDbEntity
  8
Body007
100
AcDbCircle
 10
212.5
 20
-53.5
 40
2
  0
CIRCLE
  5
ABF
330
A02
100
AcDbEntity
  8
Body007
100
AcDbCircle
 10
212.5
 20
-53.5
 40
2
  0
LINE
  5
AC0
330
A02
100
AcDbEntity
  8
Body007
100
AcDbLine
 10
174.5
 20
-49.8
 30
71
 11
174.5
 21
-49.8
 31
73
  0
LINE
  5
AC1
330
A02
100
AcDbEntity
  8
Body007
100
AcDbLine
 10
174.5
 20
-49.8
 30
71
 11
174.5
 21
-49.8
 31
73
  0
CIRCLE
  5
AC2
330
A02
100
AcDbEntity
  8
Body007
100
AcDbCircle
 10
172.5
 20
-49.8
 40
2
  0
CIRCLE
  5
AC3
330
A02
100
AcDbEntity
  8
Body007
100
AcDbCircle
 10
172.5
 20
-49.8
 40
2
  0
LINE
  5
AC4
330
A02
100
AcDbEntity
  8
Body007
100
AcDbLine
 10
12.5
 20
-73.5
 30
71
 11
12.5
 21
-73.5
 31
73
  0
LINE
  5
AC5
330
A02
100
AcDbEntity
  8
Body007
100
AcDbLine
 10
12.5
 20
-73.5
 30
71
 11
12.5
 21
-73.5
 31
73
  0
CIRCLE
  5
AC6
330
A02
100
AcDbEntity
  8
Body007
100
AcDbCircle
 10
10.5
 20
-73.5
 40
2
  0
CIRCLE
  5
AC7
330
A02
100
AcDbEntity
  8
Body007
100
AcDbCircle
 10
10.5
 20
-73.5
 40
2
  0
LINE
  5
AC8
330
A02
100
AcDbEntity
  8
Body007
100
AcDbLine
 10
30.5
 20
-49.8
 30
71
 11
30.5
 21
-49.8
 31
73
  0
LINE
  5
AC9
330
A02
100
AcDbEntity
  8
Body007
100
AcDbLine
 10
30.5
 20
-49.8
 30
71
 11
30.5
 21
-49.8
 31
73
  0
CIRCLE
  5
ACA
330
A02
100
AcDbEntity
  8
Body007
100
AcDbCircle
 10
28.5
 20
-49.8
 40
2
  0
CIRCLE
  5
ACB
330
A02
100
AcDbEntity
  8
Body007
100
AcDbCircle
 10
28.5
 20
-49.8
 40
2
  0
LINE
  5
ACC
330
A02
100
AcDbEntity
  8
Body007
100
AcDbLine
 10
174.5
 20
-16.5
 30
71
 11
174.5
 21
-16.5
 31
73
  0
LINE
  5
ACD
330
A02
100
AcDbEntity
  8
Body007
100
AcDbLine
 10
174.5
 20
-16.5
 30
71
 11
174.5
 21
-16.5
 31
73
  0
CIRCLE
  5
ACE
330
A02
100
AcDbEntity
  8
Body007
100
AcDbCircle
 10
172.5
 20
-16.5
 40
2
  0
CIRCLE
  5
ACF
330
A02
100
AcDbEntity
  8
Body007
100
AcDbCircle
 10
172.5
 20
-16.5
 40
2
  0
LINE
  5
AD0
330
A02
100
AcDbEntity
  8
Body007
100
AcDbLine
 10
161
 20
-4
 30
71
 11
161
 21
-4
 31
73
  0
LINE
  5
AD1
330
A02
100
AcDbEntity
  8
Body007
100
AcDbLine
 10
161
 20
-4
 30
71
 11
161
 21
-4
 31
73
  0
CIRCLE
  5
AD2
330
A02
100
AcDbEntity
  8
Body007
100
AcDbCircle
 10
160
 20
-4
 40
1
  0
CIRCLE
  5
AD3
330
A02
100
AcDbEntity
  8
Body007
100
AcDbCircle
 10
160
 20
-4
 40
1
  0
SPLINE
  5
AD4
330
A02
100
AcDbEntity
  8
Body007
100
AcDbSpline
210
0
220
0
230
1
 70
8
 71
3
 72
8
 73
4
 74
0
 40
0
 40
0
 40
0
 40
0
 40
1
 40
1
 40
1
 40
1
 10
96.811
 20
-36.7158
 30
73
 10
97.0366
 20
-36.7169
 30
73
 10
97.2377
 20
-36.6344
 30
73
 10
97.3954
 20
-36.4752
 30
73
  0
LINE
  5
AD5
330
A02
100
AcDbEntity
  8
Body007
100
AcDbLine
 10
96.811
 20
-36.7158
 30
73
 11
96.811
 21
-36.7158
 31
71
  0
SPLINE
  5
AD6
330
A02
100
AcDbEntity
  8
Body007
100
AcDbSpline
210
0
220
0
230
1
 70
8
 71
3
 72
8
 73
4
 74
0
 40
0
 40
0
 40
0
 40
0
 40
1
 40
1
 40
1
 40
1
 10
96.811
 20
-36.7158
 30
71
 10
97.0366
 20
-36.7169
 30
71
 10
97.2377
 20
-36.6344
 30
71
 10
97.3954
 20
-36.4752
 30
71
  0
LINE
  5
AD7
330
A02
100
AcDbEntity
  8
Body007
100
AcDbLine
 10
97.3954
 20
-36.4752
 30
73
 11
97.3954
 21
-36.4752
 31
71
  0
SPLINE
  5
AD8
330
A02
100
AcDbEntity
  8
Body007
100
AcDbSpline
210
0
220
0
230
1
 70
8
 71
3
 72
8
 73
4
 74
0
 40
0
 40
0
 40
0
 40
0
 40
1
 40
1
 40
1
 40
1
 10
96.2304
 20
-36.4752
 30
73
 10
96.3857
 20
-36.6346
 30
73
 10
96.5857
 20
-36.717
 30
73
 10
96.811
 20
-36.7158
 30
73
  0
LINE
  5
AD9
330
A02
100
AcDbEntity
  8
Body007
100
AcDbLine
 10
96.2304
 20
-36.4752
 30
73
 11
96.2304
 21
-36.4752
 31
71
  0
SPLINE
  5
ADA
330
A02
100
AcDbEntity
  8
Body007
100
AcDbSpline
210
0
220
0
230
1
 70
8
 71
3
 72
8
 73
4
 74
0
 40
0
 40
0
 40
0
 40
0
 40
1
 40
1
 40
1
 40
1
 10
96.2304
 20
-36.4752
 30
71
 10
96.3857
 20
-36.6346
 30
71
 10
96.5857
 20
-36.717
 30
71
 10
96.811
 20
-36.7158
 30
71
  0
LINE
  5
ADB
330
A02
100
AcDbEntity
  8
Body007
100
AcDbLine
 10
96.811
 20
-36.7158
 30
73
 11
96.811
 21
-36.7158
 31
71
  0
SPLINE
  5
ADC
330
A02
100
AcDbEntity
  8
Body007
100
AcDbSpline
210
0
220
0
230
1
 70
8
 71
3
 72
8
 73
4
 74
0
 40
0
 40
0
 40
0
 40
0
 40
1
 40
1
 40
1
 40
1
 10
95.9974
 20
-35.8908
 30
73
 10
95.9964
 20
-36.116
 30
73
 10
96.0757
 20
-36.317
 30
73
 10
96.2304
 20
-36.4752
 30
73
  0
LINE
  5
ADD
330
A02
100
AcDbEntity
  8
Body007
100
AcDbLine
 10
95.9974
 20
-35.8908
 30
73
 11
95.9974
 21
-35.8908
 31
71
  0
SPLINE
  5
ADE
330
A02
100
AcDbEntity
  8
Body007
100
AcDbSpline
210
0
220
0
230
1
 70
8
 71
3
 72
8
 73
4
 74
0
 40
0
 40
0
 40
0
 40
0
 40
1
 40
1
 40
1
 40
1
 10
95.9974
 20
-35.8908
 30
71
 10
95.9964
 20
-36.116
 30
71
 10
96.0757
 20
-36.317
 30
71
 10
96.2304
 20
-36.4752
 30
71
  0
LINE
  5
ADF
330
A02
100
AcDbEntity
  8
Body007
100
AcDbLine
 10
96.2304
 20
-36.4752
 30
73
 11
96.2304
 21
-36.4752
 31
71
  0
SPLINE
  5
AE0
330
A02
100
AcDbEntity
  8
Body007
100
AcDbSpline
210
0
220
0
230
1
 70
8
 71
3
 72
8
 73
4
 74
0
 40
0
 40
0
 40
0
 40
0
 40
1
 40
1
 40
1
 40
1
 10
96.238
 20
-35.314
 30
73
 10
96.0784
 20
-35.4669
 30
73
 10
95.9962
 20
-35.6658
 30
73
 10
95.9974
 20
-35.8908
 30
73
  0
LINE
  5
AE1
330
A02
100
AcDbEntity
  8
Body007
100
AcDbLine
 10
96.238
 20
-35.314
 30
73
 11
96.238
 21
-35.314
 31
71
  0
SPLINE
  5
AE2
330
A02
100
AcDbEntity
  8
Body007
100
AcDbSpline
210
0
220
0
230
1
 70
8
 71
3
 72
8
 73
4
 74
0
 40
0
 40
0
 40
0
 40
0
 40
1
 40
1
 40
1
 40
1
 10
96.238
 20
-35.314
 30
71
 10
96.0784
 20
-35.4669
 30
71
 10
95.9962
 20
-35.6658
 30
71
 10
95.9974
 20
-35.8908
 30
71
  0
LINE
  5
AE3
330
A02
100
AcDbEntity
  8
Body007
100
AcDbLine
 10
95.9974
 20
-35.8908
 30
73
 11
95.9974
 21
-35.8908
 31
71
  0
SPLINE
  5
AE4
330
A02
100
AcDbEntity
  8
Body007
100
AcDbSpline
210
0
220
0
230
1
 70
8
 71
3
 72
8
 73
4
 74
0
 40
0
 40
0
 40
0
 40
0
 40
1
 40
1
 40
1
 40
1
 10
96.811
 20
-35.0772
 30
73
 10
96.5919
 20
-35.0761
 30
73
 10
96.3952
 20
-35.1579
 30
73
 10
96.238
 20
-35.314
 30
73
  0
LINE
  5
AE5
330
A02
100
AcDbEntity
  8
Body007
100
AcDbLine
 10
96.811
 20
-35.0772
 30
73
 11
96.811
 21
-35.0772
 31
71
  0
SPLINE
  5
AE6
330
A02
100
AcDbEntity
  8
Body007
100
AcDbSpline
210
0
220
0
230
1
 70
8
 71
3
 72
8
 73
4
 74
0
 40
0
 40
0
 40
0
 40
0
 40
1
 40
1
 40
1
 40
1
 10
96.811
 20
-35.0772
 30
71
 10
96.5919
 20
-35.0761
 30
71
 10
96.3952
 20
-35.1579
 30
71
 10
96.238
 20
-35.314
 30
71
  0
LINE
  5
AE7
330
A02
100
AcDbEntity
  8
Body007
100
AcDbLine
 10
96.238
 20
-35.314
 30
73
 11
96.238
 21
-35.314
 31
71
  0
SPLINE
  5
AE8
330
A02
100
AcDbEntity
  8
Body007
100
AcDbSpline
210
0
220
0
230
1
 70
8
 71
3
 72
8
 73
4
 74
0
 40
0
 40
0
 40
0
 40
0
 40
1
 40
1
 40
1
 40
1
 10
97.3954
 20
-35.314
 30
73
 10
97.2375
 20
-35.1571
 30
73
 10
97.0364
 20
-35.0761
 30
73
 10
96.811
 20
-35.0772
 30
73
  0
LINE
  5
AE9
330
A02
100
AcDbEntity
  8
Body007
100
AcDbLine
 10
97.3954
 20
-35.314
 30
73
 11
97.3954
 21
-35.314
 31
71
  0
SPLINE
  5
AEA
330
A02
100
AcDbEntity
  8
Body007
100
AcDbSpline
210
0
220
0
230
1
 70
8
 71
3
 72
8
 73
4
 74
0
 40
0
 40
0
 40
0
 40
0
 40
1
 40
1
 40
1
 40
1
 10
97.3954
 20
-35.314
 30
71
 10
97.2375
 20
-35.1571
 30
71
 10
97.0364
 20
-35.0761
 30
71
 10
96.811
 20
-35.0772
 30
71
  0
LINE
  5
AEB
330
A02
100
AcDbEntity
  8
Body007
100
AcDbLine
 10
96.811
 20
-35.0772
 30
73
 11
96.811
 21
-35.0772
 31
71
  0
SPLINE
  5
AEC
330
A02
100
AcDbEntity
  8
Body007
100
AcDbSpline
210
0
220
0
230
1
 70
8
 71
3
 72
8
 73
4
 74
0
 40
0
 40
0
 40
0
 40
0
 40
1
 40
1
 40
1
 40
1
 10
97.636
 20
-35.8908
 30
73
 10
97.6372
 20
-35.6658
 30
73
 10
97.555
 20
-35.4669
 30
73
 10
97.3954
 20
-35.314
 30
73
  0
LINE
  5
AED
330
A02
100
AcDbEntity
  8
Body007
100
AcDbLine
 10
97.636
 20
-35.8908
 30
73
 11
97.636
 21
-35.8908
 31
71
  0
SPLINE
  5
AEE
330
A02
100
AcDbEntity
  8
Body007
100
AcDbSpline
210
0
220
0
230
1
 70
8
 71
3
 72
8
 73
4
 74
0
 40
0
 40
0
 40
0
 40
0
 40
1
 40
1
 40
1
 40
1
 10
97.636
 20
-35.8908
 30
71
 10
97.6372
 20
-35.6658
 30
71
 10
97.555
 20
-35.4669
 30
71
 10
97.3954
 20
-35.314
 30
71
  0
LINE
  5
AEF
330
A02
100
AcDbEntity
  8
Body007
100
AcDbLine
 10
97.3954
 20
-35.314
 30
73
 11
97.3954
 21
-35.314
 31
71
  0
SPLINE
  5
AF0
330
A02
100
AcDbEntity
  8
Body007
100
AcDbSpline
210
0
220
0
230
1
 70
8
 71
3
 72
8
 73
4
 74
0
 40
0
 40
0
 40
0
 40
0
 40
1
 40
1
 40
1
 40
1
 10
97.3954
 20
-36.4752
 30
73
 10
97.5546
 20
-36.3175
 30
73
 10
97.6371
 20
-36.1164
 30
73
 10
97.636
 20
-35.8908
 30
73
  0
LINE
  5
AF1
330
A02
100
AcDbEntity
  8
Body007
100
AcDbLine
 10
97.3954
 20
-36.4752
 30
73
 11
97.3954
 21
-36.4752
 31
71
  0
SPLINE
  5
AF2
330
A02
100
AcDbEntity
  8
Body007
100
AcDbSpline
210
0
220
0
230
1
 70
8
 71
3
 72
8
 73
4
 74
0
 40
0
 40
0
 40
0
 40
0
 40
1
 40
1
 40
1
 40
1
 10
97.3954
 20
-36.4752
 30
71
 10
97.5546
 20
-36.3175
 30
71
 10
97.6371
 20
-36.1164
 30
71
 10
97.636
 20
-35.8908
 30
71
  0
LINE
  5
AF3
330
A02
100
AcDbEntity
  8
Body007
100
AcDbLine
 10
97.636
 20
-35.8908
 30
73
 11
97.636
 21
-35.8908
 31
71
  0
SPLINE
  5
AF4
330
A02
100
AcDbEntity
  8
Body007
100
AcDbSpline
210
0
220
0
230
1
 70
8
 71
3
 72
8
 73
4
 74
0
 40
0
 40
0
 40
0
 40
0
 40
1
 40
1
 40
1
 40
1
 10
105.386
 20
-32.4072
 30
73
 10
105.385
 20
-31.6756
 30
73
 10
105.312
 20
-30.9496
 30
73
 10
105.092
 20
-30.2873
 30
73
  0
LINE
  5
AF5
330
A02
100
AcDbEntity
  8
Body007
100
AcDbLine
 10
105.386
 20
-32.4072
 30
73
 11
105.386
 21
-32.4072
 31
71
  0
SPLINE
  5
AF6
330
A02
100
AcDbEntity
  8
Body007
100
AcDbSpline
210
0
220
0
230
1
 70
8
 71
3
 72
8
 73
4
 74
0
 40
0
 40
0
 40
0
 40
0
 40
1
 40
1
 40
1
 40
1
 10
105.386
 20
-32.4072
 30
71
 10
105.385
 20
-31.6756
 30
71
 10
105.312
 20
-30.9496
 30
71
 10
105.092
 20
-30.2873
 30
71
  0
LINE
  5
AF7
330
A02
100
AcDbEntity
  8
Body007
100
AcDbLine
 10
105.092
 20
-30.2873
 30
73
 11
105.092
 21
-30.2873
 31
71
  0
SPLINE
  5
AF8
330
A02
100
AcDbEntity
  8
Body007
100
AcDbSpline
210
0
220
0
230
1
 70
8
 71
3
 72
8
 73
4
 74
0
 40
0
 40
0
 40
0
 40
0
 40
1
 40
1
 40
1
 40
1
 10
105.161
 20
-34.2865
 30
73
 10
105.325
 20
-33.6924
 30
73
 10
105.386
 20
-33.0543
 30
73
 10
105.386
 20
-32.4072
 30
73
  0
LINE
  5
AF9
330
A02
100
AcDbEntity
  8
Body007
100
AcDbLine
 10
105.161
 20
-34.2865
 30
73
 11
105.161
 21
-34.2865
 31
71
  0
SPLINE
  5
AFA
330
A02
100
AcDbEntity
  8
Body007
100
AcDbSpline
210
0
220
0
230
1
 70
8
 71
3
 72
8
 73
4
 74
0
 40
0
 40
0
 40
0
 40
0
 40
1
 40
1
 40
1
 40
1
 10
105.161
 20
-34.2865
 30
71
 10
105.325
 20
-33.6924
 30
71
 10
105.386
 20
-33.0543
 30
71
 10
105.386
 20
-32.4072
 30
71
  0
LINE
  5
AFB
330
A02
100
AcDbEntity
  8
Body007
100
AcDbLine
 10
105.386
 20
-32.4072
 30
73
 11
105.386
 21
-32.4072
 31
71
  0
SPLINE
  5
AFC
330
A02
100
AcDbEntity
  8
Body007
100
AcDbSpline
210
0
220
0
230
1
 70
8
 71
3
 72
8
 73
4
 74
0
 40
0
 40
0
 40
0
 40
0
 40
1
 40
1
 40
1
 40
1
 10
104.515
 20
-35.6387
 30
73
 10
104.818
 20
-35.2552
 30
73
 10
105.025
 20
-34.7868
 30
73
 10
105.161
 20
-34.2865
 30
73
  0
LINE
  5
AFD
330
A02
100
AcDbEntity
  8
Body007
100
AcDbLine
 10
104.515
 20
-35.6387
 30
73
 11
104.515
 21
-35.6387
 31
71
  0
SPLINE
  5
AFE
330
A02
100
AcDbEntity
  8
Body007
100
AcDbSpline
210
0
220
0
230
1
 70
8
 71
3
 72
8
 73
4
 74
0
 40
0
 40
0
 40
0
 40
0
 40
1
 40
1
 40
1
 40
1
 10
104.515
 20
-35.6387
 30
71
 10
104.818
 20
-35.2552
 30
71
 10
105.025
 20
-34.7868
 30
71
 10
105.161
 20
-34.2865
 30
71
  0
LINE
  5
AFF
330
A02
100
AcDbEntity
  8
Body007
100
AcDbLine
 10
105.161
 20
-34.2865
 30
73
 11
105.161
 21
-34.2865
 31
71
  0
SPLINE
  5
B00
330
A02
100
AcDbEntity
  8
Body007
100
AcDbSpline
210
0
220
0
230
1
 70
8
 71
3
 72
8
 73
4
 74
0
 40
0
 40
0
 40
0
 40
0
 40
1
 40
1
 40
1
 40
1
 10
103.495
 20
-36.4523
 30
73
 10
103.894
 20
-36.2694
 30
73
 10
104.241
 20
-35.9893
 30
73
 10
104.515
 20
-35.6387
 30
73
  0
LINE
  5
B01
330
A02
100
AcDbEntity
  8
Body007
100
AcDbLine
 10
103.495
 20
-36.4523
 30
73
 11
103.495
 21
-36.4523
 31
71
  0
SPLINE
  5
B02
330
A02
100
AcDbEntity
  8
Body007
100
AcDbSpline
210
0
220
0
230
1
 70
8
 71
3
 72
8
 73
4
 74
0
 40
0
 40
0
 40
0
 40
0
 40
1
 40
1
 40
1
 40
1
 10
103.495
 20
-36.4523
 30
71
 10
103.894
 20
-36.2694
 30
71
 10
104.241
 20
-35.9893
 30
71
 10
104.515
 20
-35.6387
 30
71
  0
LINE
  5
B03
330
A02
100
AcDbEntity
  8
Body007
100
AcDbLine
 10
104.515
 20
-35.6387
 30
73
 11
104.515
 21
-35.6387
 31
71
  0
SPLINE
  5
B04
330
A02
100
AcDbEntity
  8
Body007
100
AcDbSpline
210
0
220
0
230
1
 70
8
 71
3
 72
8
 73
4
 74
0
 40
0
 40
0
 40
0
 40
0
 40
1
 40
1
 40
1
 40
1
 10
102.143
 20
-36.7273
 30
73
 10
102.619
 20
-36.7279
 30
73
 10
103.083
 20
-36.6435
 30
73
 10
103.495
 20
-36.4523
 30
73
  0
LINE
  5
B05
330
A02
100
AcDbEntity
  8
Body007
100
AcDbLine
 10
102.143
 20
-36.7273
 30
73
 11
102.143
 21
-36.7273
 31
71
  0
SPLINE
  5
B06
330
A02
100
AcDbEntity
  8
Body007
100
AcDbSpline
210
0
220
0
230
1
 70
8
 71
3
 72
8
 73
4
 74
0
 40
0
 40
0
 40
0
 40
0
 40
1
 40
1
 40
1
 40
1
 10
102.143
 20
-36.7273
 30
71
 10
102.619
 20
-36.7279
 30
71
 10
103.083
 20
-36.6435
 30
71
 10
103.495
 20
-36.4523
 30
71
  0
LINE
  5
B07
330
A02
100
AcDbEntity
  8
Body007
100
AcDbLine
 10
103.495
 20
-36.4523
 30
73
 11
103.495
 21
-36.4523
 31
71
  0
SPLINE
  5
B08
330
A02
100
AcDbEntity
  8
Body007
100
AcDbSpline
210
0
220
0
230
1
 70
8
 71
3
 72
8
 73
4
 74
0
 40
0
 40
0
 40
0
 40
0
 40
1
 40
1
 40
1
 40
1
 10
100.699
 20
-36.4064
 30
73
 10
101.136
 20
-36.6296
 30
73
 10
101.633
 20
-36.7282
 30
73
 10
102.143
 20
-36.7273
 30
73
  0
LINE
  5
B09
330
A02
100
AcDbEntity
  8
Body007
100
AcDbLine
 10
100.699
 20
-36.4064
 30
73
 11
100.699
 21
-36.4064
 31
71
  0
SPLINE
  5
B0A
330
A02
100
AcDbEntity
  8
Body007
100
AcDbSpline
210
0
220
0
230
1
 70
8
 71
3
 72
8
 73
4
 74
0
 40
0
 40
0
 40
0
 40
0
 40
1
 40
1
 40
1
 40
1
 10
100.699
 20
-36.4064
 30
71
 10
101.136
 20
-36.6296
 30
71
 10
101.633
 20
-36.7282
 30
71
 10
102.143
 20
-36.7273
 30
71
  0
LINE
  5
B0B
330
A02
100
AcDbEntity
  8
Body007
100
AcDbLine
 10
102.143
 20
-36.7273
 30
73
 11
102.143
 21
-36.7273
 31
71
  0
LINE
  5
B0C
330
A02
100
AcDbEntity
  8
Body007
100
AcDbLine
 10
101.215
 20
-35.3178
 30
73
 11
100.699
 21
-36.4064
 31
73
  0
LINE
  5
B0D
330
A02
100
AcDbEntity
  8
Body007
100
AcDbLine
 10
101.215
 20
-35.3178
 30
73
 11
101.215
 21
-35.3178
 31
71
  0
LINE
  5
B0E
330
A02
100
AcDbEntity
  8
Body007
100
AcDbLine
 10
101.215
 20
-35.3178
 30
71
 11
100.699
 21
-36.4064
 31
71
  0
LINE
  5
B0F
330
A02
100
AcDbEntity
  8
Body007
100
AcDbLine
 10
100.699
 20
-36.4064
 30
73
 11
100.699
 21
-36.4064
 31
71
  0
SPLINE
  5
B10
330
A02
100
AcDbEntity
  8
Body007
100
AcDbSpline
210
0
220
0
230
1
 70
8
 71
3
 72
8
 73
4
 74
0
 40
0
 40
0
 40
0
 40
0
 40
1
 40
1
 40
1
 40
1
 10
102.109
 20
-35.6043
 30
73
 10
101.771
 20
-35.6057
 30
73
 10
101.457
 20
-35.5149
 30
73
 10
101.215
 20
-35.3178
 30
73
  0
LINE
  5
B11
330
A02
100
AcDbEntity
  8
Body007
100
AcDbLine
 10
102.109
 20
-35.6043
 30
73
 11
102.109
 21
-35.6043
 31
71
  0
SPLINE
  5
B12
330
A02
100
AcDbEntity
  8
Body007
100
AcDbSpline
210
0
220
0
230
1
 70
8
 71
3
 72
8
 73
4
 74
0
 40
0
 40
0
 40
0
 40
0
 40
1
 40
1
 40
1
 40
1
 10
102.109
 20
-35.6043
 30
71
 10
101.771
 20
-35.6057
 30
71
 10
101.457
 20
-35.5149
 30
71
 10
101.215
 20
-35.3178
 30
71
  0
LINE
  5
B13
330
A02
100
AcDbEntity
  8
Body007
100
AcDbLine
 10
101.215
 20
-35.3178
 30
73
 11
101.215
 21
-35.3178
 31
71
  0
SPLINE
  5
B14
330
A02
100
AcDbEntity
  8
Body007
100
AcDbSpline
210
0
220
0
230
1
 70
8
 71
2
 72
6
 73
3
 74
0
 40
0
 40
0
 40
0
 40
1
 40
1
 40
1
 10
102.88
 20
-35.4401
 30
73
 10
102.525
 20
-35.6058
 30
73
 10
102.109
 20
-35.6043
 30
73
  0
LINE
  5
B15
330
A02
100
AcDbEntity
  8
Body007
100
AcDbLine
 10
102.88
 20
-35.4401
 30
73
 11
102.88
 21
-35.4401
 31
71
  0
SPLINE
  5
B16
330
A02
100
AcDbEntity
  8
Body007
100
AcDbSpline
210
0
220
0
230
1
 70
8
 71
2
 72
6
 73
3
 74
0
 40
0
 40
0
 40
0
 40
1
 40
1
 40
1
 10
102.88
 20
-35.4401
 30
71
 10
102.525
 20
-35.6058
 30
71
 10
102.109
 20
-35.6043
 30
71
  0
LINE
  5
B17
330
A02
100
AcDbEntity
  8
Body007
100
AcDbLine
 10
102.109
 20
-35.6043
 30
73
 11
102.109
 21
-35.6043
 31
71
  0
SPLINE
  5
B18
330
A02
100
AcDbEntity
  8
Body007
100
AcDbSpline
210
0
220
0
230
1
 70
8
 71
3
 72
8
 73
4
 74
0
 40
0
 40
0
 40
0
 40
0
 40
1
 40
1
 40
1
 40
1
 10
103.473
 20
-34.8938
 30
73
 10
103.319
 20
-35.1366
 30
73
 10
103.12
 20
-35.3264
 30
73
 10
102.88
 20
-35.4401
 30
73
  0
LINE
  5
B19
330
A02
100
AcDbEntity
  8
Body007
100
AcDbLine
 10
103.473
 20
-34.8938
 30
73
 11
103.473
 21
-34.8938
 31
71
  0
SPLINE
  5
B1A
330
A02
100
AcDbEntity
  8
Body007
100
AcDbSpline
210
0
220
0
230
1
 70
8
 71
3
 72
8
 73
4
 74
0
 40
0
 40
0
 40
0
 40
0
 40
1
 40
1
 40
1
 40
1
 10
103.473
 20
-34.8938
 30
71
 10
103.319
 20
-35.1366
 30
71
 10
103.12
 20
-35.3264
 30
71
 10
102.88
 20
-35.4401
 30
71
  0
LINE
  5
B1B
330
A02
100
AcDbEntity
  8
Body007
100
AcDbLine
 10
102.88
 20
-35.4401
 30
73
 11
102.88
 21
-35.4401
 31
71
  0
SPLINE
  5
B1C
330
A02
100
AcDbEntity
  8
Body007
100
AcDbSpline
210
0
220
0
230
1
 70
8
 71
3
 72
8
 73
4
 74
0
 40
0
 40
0
 40
0
 40
0
 40
1
 40
1
 40
1
 40
1
 10
103.843
 20
-33.9045
 30
73
 10
103.764
 20
-34.2758
 30
73
 10
103.647
 20
-34.6192
 30
73
 10
103.473
 20
-34.8938
 30
73
  0
LINE
  5
B1D
330
A02
100
AcDbEntity
  8
Body007
100
AcDbLine
 10
103.843
 20
-33.9045
 30
73
 11
103.843
 21
-33.9045
 31
71
  0
SPLINE
  5
B1E
330
A02
100
AcDbEntity
  8
Body007
100
AcDbSpline
210
0
220
0
230
1
 70
8
 71
3
 72
8
 73
4
 74
0
 40
0
 40
0
 40
0
 40
0
 40
1
 40
1
 40
1
 40
1
 10
103.843
 20
-33.9045
 30
71
 10
103.764
 20
-34.2758
 30
71
 10
103.647
 20
-34.6192
 30
71
 10
103.473
 20
-34.8938
 30
71
  0
LINE
  5
B1F
330
A02
100
AcDbEntity
  8
Body007
100
AcDbLine
 10
103.473
 20
-34.8938
 30
73
 11
103.473
 21
-34.8938
 31
71
  0
SPLINE
  5
B20
330
A02
100
AcDbEntity
  8
Body007
100
AcDbSpline
210
0
220
0
230
1
 70
8
 71
3
 72
8
 73
4
 74
0
 40
0
 40
0
 40
0
 40
0
 40
1
 40
1
 40
1
 40
1
 10
103.988
 20
-32.4072
 30
73
 10
103.981
 20
-32.9314
 30
73
 10
103.943
 20
-33.4419
 30
73
 10
103.843
 20
-33.9045
 30
73
  0
LINE
  5
B21
330
A02
100
AcDbEntity
  8
Body007
100
AcDbLine
 10
103.988
 20
-32.4072
 30
73
 11
103.988
 21
-32.4072
 31
71
  0
SPLINE
  5
B22
330
A02
100
AcDbEntity
  8
Body007
100
AcDbSpline
210
0
220
0
230
1
 70
8
 71
3
 72
8
 73
4
 74
0
 40
0
 40
0
 40
0
 40
0
 40
1
 40
1
 40
1
 40
1
 10
103.988
 20
-32.4072
 30
71
 10
103.981
 20
-32.9314
 30
71
 10
103.943
 20
-33.4419
 30
71
 10
103.843
 20
-33.9045
 30
71
  0
LINE
  5
B23
330
A02
100
AcDbEntity
  8
Body007
100
AcDbLine
 10
103.843
 20
-33.9045
 30
73
 11
103.843
 21
-33.9045
 31
71
  0
SPLINE
  5
B24
330
A02
100
AcDbEntity
  8
Body007
100
AcDbSpline
210
0
220
0
230
1
 70
8
 71
3
 72
8
 73
4
 74
0
 40
0
 40
0
 40
0
 40
0
 40
1
 40
1
 40
1
 40
1
 10
103.885
 20
-31.1467
 30
73
 10
103.952
 20
-31.5384
 30
73
 10
103.981
 20
-31.9651
 30
73
 10
103.988
 20
-32.4072
 30
73
  0
LINE
  5
B25
330
A02
100
AcDbEntity
  8
Body007
100
AcDbLine
 10
103.885
 20
-31.1467
 30
73
 11
103.885
 21
-31.1467
 31
71
  0
SPLINE
  5
B26
330
A02
100
AcDbEntity
  8
Body007
100
AcDbSpline
210
0
220
0
230
1
 70
8
 71
3
 72
8
 73
4
 74
0
 40
0
 40
0
 40
0
 40
0
 40
1
 40
1
 40
1
 40
1
 10
103.885
 20
-31.1467
 30
71
 10
103.952
 20
-31.5384
 30
71
 10
103.981
 20
-31.9651
 30
71
 10
103.988
 20
-32.4072
 30
71
  0
LINE
  5
B27
330
A02
100
AcDbEntity
  8
Body007
100
AcDbLine
 10
103.988
 20
-32.4072
 30
73
 11
103.988
 21
-32.4072
 31
71
  0
SPLINE
  5
B28
330
A02
100
AcDbEntity
  8
Body007
100
AcDbSpline
210
0
220
0
230
1
 70
8
 71
3
 72
8
 73
4
 74
0
 40
0
 40
0
 40
0
 40
0
 40
1
 40
1
 40
1
 40
1
 10
103.622
 20
-30.23
 30
73
 10
103.744
 20
-30.4987
 30
73
 10
103.828
 20
-30.8112
 30
73
 10
103.885
 20
-31.1467
 30
73
  0
LINE
  5
B29
330
A02
100
AcDbEntity
  8
Body007
100
AcDbLine
 10
103.622
 20
-30.23
 30
73
 11
103.622
 21
-30.23
 31
71
  0
SPLINE
  5
B2A
330
A02
100
AcDbEntity
  8
Body007
100
AcDbSpline
210
0
220
0
230
1
 70
8
 71
3
 72
8
 73
4
 74
0
 40
0
 40
0
 40
0
 40
0
 40
1
 40
1
 40
1
 40
1
 10
103.622
 20
-30.23
 30
71
 10
103.744
 20
-30.4987
 30
71
 10
103.828
 20
-30.8112
 30
71
 10
103.885
 20
-31.1467
 30
71
  0
LINE
  5
B2B
330
A02
100
AcDbEntity
  8
Body007
100
AcDbLine
 10
103.885
 20
-31.1467
 30
73
 11
103.885
 21
-31.1467
 31
71
  0
SPLINE
  5
B2C
330
A02
100
AcDbEntity
  8
Body007
100
AcDbSpline
210
0
220
0
230
1
 70
8
 71
2
 72
6
 73
3
 74
0
 40
0
 40
0
 40
0
 40
1
 40
1
 40
1
 10
103.61
 20
-30.2071
 30
73
 10
103.61
 20
-30.2185
 30
73
 10
103.622
 20
-30.23
 30
73
  0
LINE
  5
B2D
330
A02
100
AcDbEntity
  8
Body007
100
AcDbLine
 10
103.61
 20
-30.2071
 30
73
 11
103.61
 21
-30.2071
 31
71
  0
SPLINE
  5
B2E
330
A02
100
AcDbEntity
  8
Body007
100
AcDbSpline
210
0
220
0
230
1
 70
8
 71
2
 72
6
 73
3
 74
0
 40
0
 40
0
 40
0
 40
1
 40
1
 40
1
 10
103.61
 20
-30.2071
 30
71
 10
103.61
 20
-30.2185
 30
71
 10
103.622
 20
-30.23
 30
71
  0
LINE
  5
B2F
330
A02
100
AcDbEntity
  8
Body007
100
AcDbLine
 10
103.622
 20
-30.23
 30
73
 11
103.622
 21
-30.23
 31
71
  0
LINE
  5
B30
330
A02
100
AcDbEntity
  8
Body007
100
AcDbLine
 10
104.24
 20
-28.8778
 30
73
 11
103.61
 21
-30.2071
 31
73
  0
LINE
  5
B31
330
A02
100
AcDbEntity
  8
Body007
100
AcDbLine
 10
104.24
 20
-28.8778
 30
73
 11
104.24
 21
-28.8778
 31
71
  0
LINE
  5
B32
330
A02
100
AcDbEntity
  8
Body007
100
AcDbLine
 10
104.24
 20
-28.8778
 30
71
 11
103.61
 21
-30.2071
 31
71
  0
LINE
  5
B33
330
A02
100
AcDbEntity
  8
Body007
100
AcDbLine
 10
103.61
 20
-30.2071
 30
73
 11
103.61
 21
-30.2071
 31
71
  0
SPLINE
  5
B34
330
A02
100
AcDbEntity
  8
Body007
100
AcDbSpline
210
0
220
0
230
1
 70
8
 71
3
 72
8
 73
4
 74
0
 40
0
 40
0
 40
0
 40
0
 40
1
 40
1
 40
1
 40
1
 10
105.092
 20
-30.2873
 30
73
 10
104.915
 20
-29.7463
 30
73
 10
104.638
 20
-29.2495
 30
73
 10
104.24
 20
-28.8778
 30
73
  0
LINE
  5
B35
330
A02
100
AcDbEntity
  8
Body007
100
AcDbLine
 10
105.092
 20
-30.2873
 30
73
 11
105.092
 21
-30.2873
 31
71
  0
SPLINE
  5
B36
330
A02
100
AcDbEntity
  8
Body007
100
AcDbSpline
210
0
220
0
230
1
 70
8
 71
3
 72
8
 73
4
 74
0
 40
0
 40
0
 40
0
 40
0
 40
1
 40
1
 40
1
 40
1
 10
105.092
 20
-30.2873
 30
71
 10
104.915
 20
-29.7463
 30
71
 10
104.638
 20
-29.2495
 30
71
 10
104.24
 20
-28.8778
 30
71
  0
LINE
  5
B37
330
A02
100
AcDbEntity
  8
Body007
100
AcDbLine
 10
104.24
 20
-28.8778
 30
73
 11
104.24
 21
-28.8778
 31
71
  0
SPLINE
  5
B38
330
A02
100
AcDbEntity
  8
Body007
100
AcDbSpline
210
0
220
0
230
1
 70
8
 71
3
 72
8
 73
4
 74
0
 40
0
 40
0
 40
0
 40
0
 40
1
 40
1
 40
1
 40
1
 10
100.825
 20
-29.9282
 30
73
 10
100.978
 20
-29.6828
 30
73
 10
101.174
 20
-29.4912
 30
73
 10
101.41
 20
-29.382
 30
73
  0
LINE
  5
B39
330
A02
100
AcDbEntity
  8
Body007
100
AcDbLine
 10
100.825
 20
-29.9282
 30
73
 11
100.825
 21
-29.9282
 31
71
  0
SPLINE
  5
B3A
330
A02
100
AcDbEntity
  8
Body007
100
AcDbSpline
210
0
220
0
230
1
 70
8
 71
3
 72
8
 73
4
 74
0
 40
0
 40
0
 40
0
 40
0
 40
1
 40
1
 40
1
 40
1
 10
100.825
 20
-29.9282
 30
71
 10
100.978
 20
-29.6828
 30
71
 10
101.174
 20
-29.4912
 30
71
 10
101.41
 20
-29.382
 30
71
  0
LINE
  5
B3B
330
A02
100
AcDbEntity
  8
Body007
100
AcDbLine
 10
101.41
 20
-29.382
 30
73
 11
101.41
 21
-29.382
 31
71
  0
SPLINE
  5
B3C
330
A02
100
AcDbEntity
  8
Body007
100
AcDbSpline
210
0
220
0
230
1
 70
8
 71
3
 72
8
 73
4
 74
0
 40
0
 40
0
 40
0
 40
0
 40
1
 40
1
 40
1
 40
1
 10
100.451
 20
-30.9175
 30
73
 10
100.533
 20
-30.5473
 30
73
 10
100.651
 20
-30.2048
 30
73
 10
100.825
 20
-29.9282
 30
73
  0
LINE
  5
B3D
330
A02
100
AcDbEntity
  8
Body007
100
AcDbLine
 10
100.451
 20
-30.9175
 30
73
 11
100.451
 21
-30.9175
 31
71
  0
SPLINE
  5
B3E
330
A02
100
AcDbEntity
  8
Body007
100
AcDbSpline
210
0
220
0
230
1
 70
8
 71
3
 72
8
 73
4
 74
0
 40
0
 40
0
 40
0
 40
0
 40
1
 40
1
 40
1
 40
1
 10
100.451
 20
-30.9175
 30
71
 10
100.533
 20
-30.5473
 30
71
 10
100.651
 20
-30.2048
 30
71
 10
100.825
 20
-29.9282
 30
71
  0
LINE
  5
B3F
330
A02
100
AcDbEntity
  8
Body007
100
AcDbLine
 10
100.825
 20
-29.9282
 30
73
 11
100.825
 21
-29.9282
 31
71
  0
SPLINE
  5
B40
330
A02
100
AcDbEntity
  8
Body007
100
AcDbSpline
210
0
220
0
230
1
 70
8
 71
3
 72
8
 73
4
 74
0
 40
0
 40
0
 40
0
 40
0
 40
1
 40
1
 40
1
 40
1
 10
100.31
 20
-32.4072
 30
73
 10
100.317
 20
-31.8849
 30
73
 10
100.354
 20
-31.3765
 30
73
 10
100.451
 20
-30.9175
 30
73
  0
LINE
  5
B41
330
A02
100
AcDbEntity
  8
Body007
100
AcDbLine
 10
100.31
 20
-32.4072
 30
73
 11
100.31
 21
-32.4072
 31
71
  0
SPLINE
  5
B42
330
A02
100
AcDbEntity
  8
Body007
100
AcDbSpline
210
0
220
0
230
1
 70
8
 71
3
 72
8
 73
4
 74
0
 40
0
 40
0
 40
0
 40
0
 40
1
 40
1
 40
1
 40
1
 10
100.31
 20
-32.4072
 30
71
 10
100.317
 20
-31.8849
 30
71
 10
100.354
 20
-31.3765
 30
71
 10
100.451
 20
-30.9175
 30
71
  0
LINE
  5
B43
330
A02
100
AcDbEntity
  8
Body007
100
AcDbLine
 10
100.451
 20
-30.9175
 30
73
 11
100.451
 21
-30.9175
 31
71
  0
SPLINE
  5
B44
330
A02
100
AcDbEntity
  8
Body007
100
AcDbSpline
210
0
220
0
230
1
 70
8
 71
2
 72
6
 73
3
 74
0
 40
0
 40
0
 40
0
 40
1
 40
1
 40
1
 10
100.402
 20
-33.6448
 30
73
 10
100.318
 20
-33.0595
 30
73
 10
100.31
 20
-32.4072
 30
73
  0
LINE
  5
B45
330
A02
100
AcDbEntity
  8
Body007
100
AcDbLine
 10
100.402
 20
-33.6448
 30
73
 11
100.402
 21
-33.6448
 31
71
  0
SPLINE
  5
B46
330
A02
100
AcDbEntity
  8
Body007
100
AcDbSpline
210
0
220
0
230
1
 70
8
 71
2
 72
6
 73
3
 74
0
 40
0
 40
0
 40
0
 40
1
 40
1
 40
1
 10
100.402
 20
-33.6448
 30
71
 10
100.318
 20
-33.0595
 30
71
 10
100.31
 20
-32.4072
 30
71
  0
LINE
  5
B47
330
A02
100
AcDbEntity
  8
Body007
100
AcDbLine
 10
100.31
 20
-32.4072
 30
73
 11
100.31
 21
-32.4072
 31
71
  0
SPLINE
  5
B48
330
A02
100
AcDbEntity
  8
Body007
100
AcDbSpline
210
0
220
0
230
1
 70
8
 71
3
 72
8
 73
4
 74
0
 40
0
 40
0
 40
0
 40
0
 40
1
 40
1
 40
1
 40
1
 10
100.642
 20
-34.5615
 30
73
 10
100.528
 20
-34.2924
 30
73
 10
100.451
 20
-33.9799
 30
73
 10
100.402
 20
-33.6448
 30
73
  0
LINE
  5
B49
330
A02
100
AcDbEntity
  8
Body007
100
AcDbLine
 10
100.642
 20
-34.5615
 30
73
 11
100.642
 21
-34.5615
 31
71
  0
SPLINE
  5
B4A
330
A02
100
AcDbEntity
  8
Body007
100
AcDbSpline
210
0
220
0
230
1
 70
8
 71
3
 72
8
 73
4
 74
0
 40
0
 40
0
 40
0
 40
0
 40
1
 40
1
 40
1
 40
1
 10
100.642
 20
-34.5615
 30
71
 10
100.528
 20
-34.2924
 30
71
 10
100.451
 20
-33.9799
 30
71
 10
100.402
 20
-33.6448
 30
71
  0
LINE
  5
B4B
330
A02
100
AcDbEntity
  8
Body007
100
AcDbLine
 10
100.402
 20
-33.6448
 30
73
 11
100.402
 21
-33.6448
 31
71
  0
LINE
  5
B4C
330
A02
100
AcDbEntity
  8
Body007
100
AcDbLine
 10
100.012
 20
-35.9022
 30
73
 11
100.642
 21
-34.5615
 31
73
  0
LINE
  5
B4D
330
A02
100
AcDbEntity
  8
Body007
100
AcDbLine
 10
100.012
 20
-35.9022
 30
73
 11
100.012
 21
-35.9022
 31
71
  0
LINE
  5
B4E
330
A02
100
AcDbEntity
  8
Body007
100
AcDbLine
 10
100.012
 20
-35.9022
 30
71
 11
100.642
 21
-34.5615
 31
71
  0
LINE
  5
B4F
330
A02
100
AcDbEntity
  8
Body007
100
AcDbLine
 10
100.642
 20
-34.5615
 30
73
 11
100.642
 21
-34.5615
 31
71
  0
SPLINE
  5
B50
330
A02
100
AcDbEntity
  8
Body007
100
AcDbSpline
210
0
220
0
230
1
 70
8
 71
3
 72
8
 73
4
 74
0
 40
0
 40
0
 40
0
 40
0
 40
1
 40
1
 40
1
 40
1
 10
99.1983
 20
-34.5004
 30
73
 10
99.3738
 20
-35.0314
 30
73
 10
99.6382
 20
-35.5215
 30
73
 10
100.012
 20
-35.9022
 30
73
  0
LINE
  5
B51
330
A02
100
AcDbEntity
  8
Body007
100
AcDbLine
 10
99.1983
 20
-34.5004
 30
73
 11
99.1983
 21
-34.5004
 31
71
  0
SPLINE
  5
B52
330
A02
100
AcDbEntity
  8
Body007
100
AcDbSpline
210
0
220
0
230
1
 70
8
 71
3
 72
8
 73
4
 74
0
 40
0
 40
0
 40
0
 40
0
 40
1
 40
1
 40
1
 40
1
 10
99.1983
 20
-34.5004
 30
71
 10
99.3738
 20
-35.0314
 30
71
 10
99.6382
 20
-35.5215
 30
71
 10
100.012
 20
-35.9022
 30
71
  0
LINE
  5
B53
330
A02
100
AcDbEntity
  8
Body007
100
AcDbLine
 10
100.012
 20
-35.9022
 30
73
 11
100.012
 21
-35.9022
 31
71
  0
SPLINE
  5
B54
330
A02
100
AcDbEntity
  8
Body007
100
AcDbSpline
210
0
220
0
230
1
 70
8
 71
3
 72
8
 73
4
 74
0
 40
0
 40
0
 40
0
 40
0
 40
1
 40
1
 40
1
 40
1
 10
98.9118
 20
-32.4072
 30
73
 10
98.9126
 20
-33.1301
 30
73
 10
98.9838
 20
-33.8472
 30
73
 10
99.1983
 20
-34.5004
 30
73
  0
LINE
  5
B55
330
A02
100
AcDbEntity
  8
Body007
100
AcDbLine
 10
98.9118
 20
-32.4072
 30
73
 11
98.9118
 21
-32.4072
 31
71
  0
SPLINE
  5
B56
330
A02
100
AcDbEntity
  8
Body007
100
AcDbSpline
210
0
220
0
230
1
 70
8
 71
3
 72
8
 73
4
 74
0
 40
0
 40
0
 40
0
 40
0
 40
1
 40
1
 40
1
 40
1
 10
98.9118
 20
-32.4072
 30
71
 10
98.9126
 20
-33.1301
 30
71
 10
98.9838
 20
-33.8472
 30
71
 10
99.1983
 20
-34.5004
 30
71
  0
LINE
  5
B57
330
A02
100
AcDbEntity
  8
Body007
100
AcDbLine
 10
99.1983
 20
-34.5004
 30
73
 11
99.1983
 21
-34.5004
 31
71
  0
SPLINE
  5
B58
330
A02
100
AcDbEntity
  8
Body007
100
AcDbSpline
210
0
220
0
230
1
 70
8
 71
3
 72
8
 73
4
 74
0
 40
0
 40
0
 40
0
 40
0
 40
1
 40
1
 40
1
 40
1
 10
99.1334
 20
-30.5355
 30
73
 10
98.9714
 20
-31.1265
 30
73
 10
98.9122
 20
-31.7623
 30
73
 10
98.9118
 20
-32.4072
 30
73
  0
LINE
  5
B59
330
A02
100
AcDbEntity
  8
Body007
100
AcDbLine
 10
99.1334
 20
-30.5355
 30
73
 11
99.1334
 21
-30.5355
 31
71
  0
SPLINE
  5
B5A
330
A02
100
AcDbEntity
  8
Body007
100
AcDbSpline
210
0
220
0
230
1
 70
8
 71
3
 72
8
 73
4
 74
0
 40
0
 40
0
 40
0
 40
0
 40
1
 40
1
 40
1
 40
1
 10
99.1334
 20
-30.5355
 30
71
 10
98.9714
 20
-31.1265
 30
71
 10
98.9122
 20
-31.7623
 30
71
 10
98.9118
 20
-32.4072
 30
71
  0
LINE
  5
B5B
330
A02
100
AcDbEntity
  8
Body007
100
AcDbLine
 10
98.9118
 20
-32.4072
 30
73
 11
98.9118
 21
-32.4072
 31
71
  0
SPLINE
  5
B5C
330
A02
100
AcDbEntity
  8
Body007
100
AcDbSpline
210
0
220
0
230
1
 70
8
 71
3
 72
8
 73
4
 74
0
 40
0
 40
0
 40
0
 40
0
 40
1
 40
1
 40
1
 40
1
 10
99.7751
 20
-29.1872
 30
73
 10
99.4778
 20
-29.5714
 30
73
 10
99.2717
 20
-30.0377
 30
73
 10
99.1334
 20
-30.5355
 30
73
  0
LINE
  5
B5D
330
A02
100
AcDbEntity
  8
Body007
100
AcDbLine
 10
99.7751
 20
-29.1872
 30
73
 11
99.7751
 21
-29.1872
 31
71
  0
SPLINE
  5
B5E
330
A02
100
AcDbEntity
  8
Body007
100
AcDbSpline
210
0
220
0
230
1
 70
8
 71
3
 72
8
 73
4
 74
0
 40
0
 40
0
 40
0
 40
0
 40
1
 40
1
 40
1
 40
1
 10
99.7751
 20
-29.1872
 30
71
 10
99.4778
 20
-29.5714
 30
71
 10
99.2717
 20
-30.0377
 30
71
 10
99.1334
 20
-30.5355
 30
71
  0
LINE
  5
B5F
330
A02
100
AcDbEntity
  8
Body007
100
AcDbLine
 10
99.1334
 20
-30.5355
 30
73
 11
99.1334
 21
-30.5355
 31
71
  0
SPLINE
  5
B60
330
A02
100
AcDbEntity
  8
Body007
100
AcDbSpline
210
0
220
0
230
1
 70
8
 71
3
 72
8
 73
4
 74
0
 40
0
 40
0
 40
0
 40
0
 40
1
 40
1
 40
1
 40
1
 10
100.795
 20
-28.3698
 30
73
 10
100.395
 20
-28.5545
 30
73
 10
100.048
 20
-28.8354
 30
73
 10
99.7751
 20
-29.1872
 30
73
  0
LINE
  5
B61
330
A02
100
AcDbEntity
  8
Body007
100
AcDbLine
 10
100.795
 20
-28.3698
 30
73
 11
100.795
 21
-28.3698
 31
71
  0
SPLINE
  5
B62
330
A02
100
AcDbEntity
  8
Body007
100
AcDbSpline
210
0
220
0
230
1
 70
8
 71
3
 72
8
 73
4
 74
0
 40
0
 40
0
 40
0
 40
0
 40
1
 40
1
 40
1
 40
1
 10
100.795
 20
-28.3698
 30
71
 10
100.395
 20
-28.5545
 30
71
 10
100.048
 20
-28.8354
 30
71
 10
99.7751
 20
-29.1872
 30
71
  0
LINE
  5
B63
330
A02
100
AcDbEntity
  8
Body007
100
AcDbLine
 10
99.7751
 20
-29.1872
 30
73
 11
99.7751
 21
-29.1872
 31
71
  0
SPLINE
  5
B64
330
A02
100
AcDbEntity
  8
Body007
100
AcDbSpline
210
0
220
0
230
1
 70
8
 71
3
 72
8
 73
4
 74
0
 40
0
 40
0
 40
0
 40
0
 40
1
 40
1
 40
1
 40
1
 10
102.143
 20
-28.0871
 30
73
 10
101.67
 20
-28.0864
 30
73
 10
101.208
 20
-28.1753
 30
73
 10
100.795
 20
-28.3698
 30
73
  0
LINE
  5
B65
330
A02
100
AcDbEntity
  8
Body007
100
AcDbLine
 10
102.143
 20
-28.0871
 30
73
 11
102.143
 21
-28.0871
 31
71
  0
SPLINE
  5
B66
330
A02
100
AcDbEntity
  8
Body007
100
AcDbSpline
210
0
220
0
230
1
 70
8
 71
3
 72
8
 73
4
 74
0
 40
0
 40
0
 40
0
 40
0
 40
1
 40
1
 40
1
 40
1
 10
102.143
 20
-28.0871
 30
71
 10
101.67
 20
-28.0864
 30
71
 10
101.208
 20
-28.1753
 30
71
 10
100.795
 20
-28.3698
 30
71
  0
LINE
  5
B67
330
A02
100
AcDbEntity
  8
Body007
100
AcDbLine
 10
100.795
 20
-28.3698
 30
73
 11
100.795
 21
-28.3698
 31
71
  0
SPLINE
  5
B68
330
A02
100
AcDbEntity
  8
Body007
100
AcDbSpline
210
0
220
0
230
1
 70
8
 71
3
 72
8
 73
4
 74
0
 40
0
 40
0
 40
0
 40
0
 40
1
 40
1
 40
1
 40
1
 10
103.53
 20
-28.385
 30
73
 10
103.113
 20
-28.1758
 30
73
 10
102.635
 20
-28.0864
 30
73
 10
102.143
 20
-28.0871
 30
73
  0
LINE
  5
B69
330
A02
100
AcDbEntity
  8
Body007
100
AcDbLine
 10
103.53
 20
-28.385
 30
73
 11
103.53
 21
-28.385
 31
71
  0
SPLINE
  5
B6A
330
A02
100
AcDbEntity
  8
Body007
100
AcDbSpline
210
0
220
0
230
1
 70
8
 71
3
 72
8
 73
4
 74
0
 40
0
 40
0
 40
0
 40
0
 40
1
 40
1
 40
1
 40
1
 10
103.53
 20
-28.385
 30
71
 10
103.113
 20
-28.1758
 30
71
 10
102.635
 20
-28.0864
 30
71
 10
102.143
 20
-28.0871
 30
71
  0
LINE
  5
B6B
330
A02
100
AcDbEntity
  8
Body007
100
AcDbLine
 10
102.143
 20
-28.0871
 30
73
 11
102.143
 21
-28.0871
 31
71
  0
LINE
  5
B6C
330
A02
100
AcDbEntity
  8
Body007
100
AcDbLine
 10
103.026
 20
-29.4622
 30
73
 11
103.53
 21
-28.385
 31
73
  0
LINE
  5
B6D
330
A02
100
AcDbEntity
  8
Body007
100
AcDbLine
 10
103.026
 20
-29.4622
 30
73
 11
103.026
 21
-29.4622
 31
71
  0
LINE
  5
B6E
330
A02
100
AcDbEntity
  8
Body007
100
AcDbLine
 10
103.026
 20
-29.4622
 30
71
 11
103.53
 21
-28.385
 31
71
  0
LINE
  5
B6F
330
A02
100
AcDbEntity
  8
Body007
100
AcDbLine
 10
103.53
 20
-28.385
 30
73
 11
103.53
 21
-28.385
 31
71
  0
SPLINE
  5
B70
330
A02
100
AcDbEntity
  8
Body007
100
AcDbSpline
210
0
220
0
230
1
 70
8
 71
3
 72
8
 73
4
 74
0
 40
0
 40
0
 40
0
 40
0
 40
1
 40
1
 40
1
 40
1
 10
102.178
 20
-29.2216
 30
73
 10
102.484
 20
-29.2207
 30
73
 10
102.774
 20
-29.3011
 30
73
 10
103.026
 20
-29.4622
 30
73
  0
LINE
  5
B71
330
A02
100
AcDbEntity
  8
Body007
100
AcDbLine
 10
102.178
 20
-29.2216
 30
73
 11
102.178
 21
-29.2216
 31
71
  0
SPLINE
  5
B72
330
A02
100
AcDbEntity
  8
Body007
100
AcDbSpline
210
0
220
0
230
1
 70
8
 71
3
 72
8
 73
4
 74
0
 40
0
 40
0
 40
0
 40
0
 40
1
 40
1
 40
1
 40
1
 10
102.178
 20
-29.2216
 30
71
 10
102.484
 20
-29.2207
 30
71
 10
102.774
 20
-29.3011
 30
71
 10
103.026
 20
-29.4622
 30
71
  0
LINE
  5
B73
330
A02
100
AcDbEntity
  8
Body007
100
AcDbLine
 10
103.026
 20
-29.4622
 30
73
 11
103.026
 21
-29.4622
 31
71
  0
SPLINE
  5
B74
330
A02
100
AcDbEntity
  8
Body007
100
AcDbSpline
210
0
220
0
230
1
 70
8
 71
2
 72
6
 73
3
 74
0
 40
0
 40
0
 40
0
 40
1
 40
1
 40
1
 10
101.41
 20
-29.382
 30
73
 10
101.762
 20
-29.2199
 30
73
 10
102.178
 20
-29.2216
 30
73
  0
LINE
  5
B75
330
A02
100
AcDbEntity
  8
Body007
100
AcDbLine
 10
101.41
 20
-29.382
 30
73
 11
101.41
 21
-29.382
 31
71
  0
SPLINE
  5
B76
330
A02
100
AcDbEntity
  8
Body007
100
AcDbSpline
210
0
220
0
230
1
 70
8
 71
2
 72
6
 73
3
 74
0
 40
0
 40
0
 40
0
 40
1
 40
1
 40
1
 10
101.41
 20
-29.382
 30
71
 10
101.762
 20
-29.2199
 30
71
 10
102.178
 20
-29.2216
 30
71
  0
LINE
  5
B77
330
A02
100
AcDbEntity
  8
Body007
100
AcDbLine
 10
102.178
 20
-29.2216
 30
73
 11
102.178
 21
-29.2216
 31
71
  0
LINE
  5
B78
330
A02
100
AcDbEntity
  8
Body007
100
AcDbLine
 10
93.2052
 20
-30.1956
 30
73
 11
93.2052
 21
-36.67
 31
73
  0
LINE
  5
B79
330
A02
100
AcDbEntity
  8
Body007
100
AcDbLine
 10
93.2052
 20
-30.1956
 30
73
 11
93.2052
 21
-30.1956
 31
71
  0
LINE
  5
B7A
330
A02
100
AcDbEntity
  8
Body007
100
AcDbLine
 10
93.2052
 20
-30.1956
 30
71
 11
93.2052
 21
-36.67
 31
71
  0
LINE
  5
B7B
330
A02
100
AcDbEntity
  8
Body007
100
AcDbLine
 10
93.2052
 20
-36.67
 30
73
 11
93.2052
 21
-36.67
 31
71
  0
LINE
  5
B7C
330
A02
100
AcDbEntity
  8
Body007
100
AcDbLine
 10
92.0478
 20
-31.353
 30
73
 11
93.2052
 21
-30.1956
 31
73
  0
LINE
  5
B7D
330
A02
100
AcDbEntity
  8
Body007
100
AcDbLine
 10
92.0478
 20
-31.353
 30
73
 11
92.0478
 21
-31.353
 31
71
  0
LINE
  5
B7E
330
A02
100
AcDbEntity
  8
Body007
100
AcDbLine
 10
92.0478
 20
-31.353
 30
71
 11
93.2052
 21
-30.1956
 31
71
  0
LINE
  5
B7F
330
A02
100
AcDbEntity
  8
Body007
100
AcDbLine
 10
93.2052
 20
-30.1956
 30
73
 11
93.2052
 21
-30.1956
 31
71
  0
LINE
  5
B80
330
A02
100
AcDbEntity
  8
Body007
100
AcDbLine
 10
91.0623
 20
-30.3675
 30
73
 11
92.0478
 21
-31.353
 31
73
  0
LINE
  5
B81
330
A02
100
AcDbEntity
  8
Body007
100
AcDbLine
 10
91.0623
 20
-30.3675
 30
73
 11
91.0623
 21
-30.3675
 31
71
  0
LINE
  5
B82
330
A02
100
AcDbEntity
  8
Body007
100
AcDbLine
 10
91.0623
 20
-30.3675
 30
71
 11
92.0478
 21
-31.353
 31
71
  0
LINE
  5
B83
330
A02
100
AcDbEntity
  8
Body007
100
AcDbLine
 10
92.0478
 20
-31.353
 30
73
 11
92.0478
 21
-31.353
 31
71
  0
LINE
  5
B84
330
A02
100
AcDbEntity
  8
Body007
100
AcDbLine
 10
93.2052
 20
-28.2246
 30
73
 11
91.0623
 21
-30.3675
 31
73
  0
LINE
  5
B85
330
A02
100
AcDbEntity
  8
Body007
100
AcDbLine
 10
93.2052
 20
-28.2246
 30
73
 11
93.2052
 21
-28.2246
 31
71
  0
LINE
  5
B86
330
A02
100
AcDbEntity
  8
Body007
100
AcDbLine
 10
93.2052
 20
-28.2246
 30
71
 11
91.0623
 21
-30.3675
 31
71
  0
LINE
  5
B87
330
A02
100
AcDbEntity
  8
Body007
100
AcDbLine
 10
91.0623
 20
-30.3675
 30
73
 11
91.0623
 21
-30.3675
 31
71
  0
LINE
  5
B88
330
A02
100
AcDbEntity
  8
Body007
100
AcDbLine
 10
94.6032
 20
-28.2246
 30
73
 11
93.2052
 21
-28.2246
 31
73
  0
LINE
  5
B89
330
A02
100
AcDbEntity
  8
Body007
100
AcDbLine
 10
94.6032
 20
-28.2246
 30
73
 11
94.6032
 21
-28.2246
 31
71
  0
LINE
  5
B8A
330
A02
100
AcDbEntity
  8
Body007
100
AcDbLine
 10
94.6032
 20
-28.2246
 30
71
 11
93.2052
 21
-28.2246
 31
71
  0
LINE
  5
B8B
330
A02
100
AcDbEntity
  8
Body007
100
AcDbLine
 10
93.2052
 20
-28.2246
 30
73
 11
93.2052
 21
-28.2246
 31
71
  0
LINE
  5
B8C
330
A02
100
AcDbEntity
  8
Body007
100
AcDbLine
 10
94.6032
 20
-36.67
 30
73
 11
94.6032
 21
-28.2246
 31
73
  0
LINE
  5
B8D
330
A02
100
AcDbEntity
  8
Body007
100
AcDbLine
 10
94.6032
 20
-36.67
 30
73
 11
94.6032
 21
-36.67
 31
71
  0
LINE
  5
B8E
330
A02
100
AcDbEntity
  8
Body007
100
AcDbLine
 10
94.6032
 20
-36.67
 30
71
 11
94.6032
 21
-28.2246
 31
71
  0
LINE
  5
B8F
330
A02
100
AcDbEntity
  8
Body007
100
AcDbLine
 10
94.6032
 20
-28.2246
 30
73
 11
94.6032
 21
-28.2246
 31
71
  0
LINE
  5
B90
330
A02
100
AcDbEntity
  8
Body007
100
AcDbLine
 10
93.2052
 20
-36.67
 30
73
 11
94.6032
 21
-36.67
 31
73
  0
LINE
  5
B91
330
A02
100
AcDbEntity
  8
Body007
100
AcDbLine
 10
93.2052
 20
-36.67
 30
73
 11
93.2052
 21
-36.67
 31
71
  0
LINE
  5
B92
330
A02
100
AcDbEntity
  8
Body007
100
AcDbLine
 10
93.2052
 20
-36.67
 30
71
 11
94.6032
 21
-36.67
 31
71
  0
LINE
  5
B93
330
A02
100
AcDbEntity
  8
Body007
100
AcDbLine
 10
94.6032
 20
-36.67
 30
73
 11
94.6032
 21
-36.67
 31
71
  0
LINE
  5
B94
330
A02
100
AcDbEntity
  8
Body007
100
AcDbLine
 10
97.5
 20
-4
 30
71
 11
97.5
 21
-4
 31
73
  0
LINE
  5
B95
330
A02
100
AcDbEntity
  8
Body007
100
AcDbLine
 10
97.5
 20
-4
 30
71
 11
97.5
 21
-4
 31
73
  0
CIRCLE
  5
B96
330
A02
100
AcDbEntity
  8
Body007
100
AcDbCircle
 10
96.5
 20
-4
 40
1
  0
CIRCLE
  5
B97
330
A02
100
AcDbEntity
  8
Body007
100
AcDbCircle
 10
96.5
 20
-4
 40
1
  0
LINE
  5
B98
330
A02
100
AcDbEntity
  8
Body007
100
AcDbLine
 10
30.5
 20
-16.5
 30
71
 11
30.5
 21
-16.5
 31
73
  0
LINE
  5
B99
330
A02
100
AcDbEntity
  8
Body007
100
AcDbLine
 10
30.5
 20
-16.5
 30
71
 11
30.5
 21
-16.5
 31
73
  0
CIRCLE
  5
B9A
330
A02
100
AcDbEntity
  8
Body007
100
AcDbCircle
 10
28.5
 20
-16.5
 40
2
  0
CIRCLE
  5
B9B
330
A02
100
AcDbEntity
  8
Body007
100
AcDbCircle
 10
28.5
 20
-16.5
 40
2
  0
LINE
  5
B9C
330
A02
100
AcDbEntity
  8
Body007
100
AcDbLine
 10
34
 20
-4
 30
71
 11
34
 21
-4
 31
73
  0
LINE
  5
B9D
330
A02
100
AcDbEntity
  8
Body007
100
AcDbLine
 10
34
 20
-4
 30
71
 11
34
 21
-4
 31
73
  0
CIRCLE
  5
B9E
330
A02
100
AcDbEntity
  8
Body007
100
AcDbCircle
 10
33
 20
-4
 40
1
  0
CIRCLE
  5
B9F
330
A02
100
AcDbEntity
  8
Body007
100
AcDbCircle
 10
33
 20
-4
 40
1
  0
ENDSEC
  0
SECTION
  2
OBJECTS
  0
DICTIONARY
  5
F000
330
0
100
AcDbDictionary
  3
ACAD_GROUP
350
F001
  0
DICTIONARY
  5
F001
330
F000
100
AcDbDictionary
  0
ENDSEC
  0
EOF