999
FreeCAD v0.19 24267 +99 (Git)
  0
SECTION
  2
HEADER
  9
$ACADVER
  1
AC1014
  9
$ACADMAINTVER
 70
     9
  9
$DWGCODEPAGE
  3
ANSI_1252
  9
$TEXTSTYLE
  7
STANDARD
  9
$DIMSTYLE
  2
STANDARD
  9
$DIMTXSTY
  7
STANDARD
  9
$CMLSTYLE
  2
STANDARD
  9
$PEXTMAX
 10
50
 20
50
 30
50
  9
$PEXTMIN
 10
0
 20
0
 30
0
  9
$HANDSEED
  5
FFFF
  0
ENDSEC
  0
SECTION
  2
CLASSES
  0
CLASS
  1
ACDBDICTIONARYWDFLT
  2
AcDbDictionaryWithDefault
  3
ObjectDBX Classes
 90
        0
280
     0
281
     0
  0
CLASS
  1
XRECORD
  2
AcDbXrecord
  3
ObjectDBX Classes
 90
        0
280
     0
281
     0
  0
CLASS
  1
LWPOLYLINE
  2
AcDbPolyline
  3
ObjectDBX Classes
 90
        0
280
     0
281
     1
  0
ENDSEC
  0
SECTION
  2
TABLES
  0
TABLE
  2
VPORT
  5
20
330
0
100
AcDbSymbolTable
 70
     1
  0
VPORT
  5
21
330
20
100
AcDbSymbolTableRecord
100
AcDbViewportTableRecord
  2
*ACTIVE
 70
     0
  0
ENDTAB
  0
TABLE
  2
LTYPE
  5
22
330
0
100
AcDbSymbolTable
 70
     1
  0
LTYPE
  5
23
330
21
100
AcDbSymbolTableRecord
100
AcDbLinetypeTableRecord
  2
BYBLOCK
 70
     0
  3

 72
    65
 73
     0
 40
0.0
  0
LTYPE
  5
24
330
21
100
AcDbSymbolTableRecord
100
AcDbLinetypeTableRecord
  2
BYLAYER
 70
     0
  3

 72
    65
 73
     0
 40
0.0
  0
LTYPE
  5
25
330
21
100
AcDbSymbolTableRecord
100
AcDbLinetypeTableRecord
  2
CONTINUOUS
 70
     0
  3
Solid line
 72
    65
 73
     0
 40
0.0
  0
ENDTAB
  0
TABLE
  2
LAYER
  5
BA0
330
0
100
AcDbSymbolTable
 70
3
  0
LAYER
  5
BA1
330
BA0
100
AcDbSymbolTableRecord
100
AcDbLayerTableRecord
  2
0
 70
   0
 62
   7
  6
CONTINUOUS
  0
LAYER
  5
BA2
330
BA0
100
AcDbSymbolTableRecord
100
AcDbLayerTableRecord
  2
none
 70
    0
 62
    7
  6
CONTINUOUS
  0
LAYER
  5
BA3
330
BA0
100
AcDbSymbolTableRecord
100
AcDbLayerTableRecord
  2
Body006
 70
    0
 62
    7
  6
CONTINUOUS
  0
ENDTAB
  0
TABLE
  2
STYLE
  5
70
330
0
100
AcDbSymbolTable
 70
     2
  0
STYLE
  5
71
330
70
100
AcDbSymbolTableRecord
100
AcDbTextStyleTableRecord
  2
STANDARD
 70
     0
 40
0.0
 41
1.0
 50
0.0
 71
     0
 42
2.5
  3
arial.ttf
  4

  0
STYLE
  5
72
330
70
100
AcDbSymbolTableRecord
100
AcDbTextStyleTableRecord
  2
ANNOTATIVE
 70
     0
 40
0.0
 41
1.0
 50
0.0
 71
     0
 42
2.5
  3
arial.ttf
  4

  0
ENDTAB
  0
TABLE
  2
VIEW
  5
73
330
0
100
AcDbSymbolTable
 70
     0
  0
ENDTAB
  0
TABLE
  2
UCS
  5
74
330
0
100
AcDbSymbolTable
 70
     0
  0
ENDTAB
  0
TABLE
  2
APPID
  5
75
330
0
100
AcDbSymbolTable
 70
     2
  0
APPID
  5
76
330
75
100
AcDbSymbolTableRecord
100
AcDbRegAppTableRecord
  2
ACAD
 70
     0
  0
APPID
  5
77
330
75
100
AcDbSymbolTableRecord
100
AcDbRegAppTableRecord
  2
ACADANNOTATIVE
 70
     0
  0
ENDTAB
  0
TABLE
  2
DIMSTYLE
  5
78
330
0
100
AcDbSymbolTable
 70
     2
  0
DIMSTYLE
105
79
330
78
100
AcDbSymbolTableRecord
100
AcDbDimStyleTableRecord
  2
STANDARD
 70
     0
  3

  4

  5

  6

  7

 40
0.0
 41
2.5
 42
0.625
 43
3.75
 44
1.25
 45
0.0
 46
0.0
 47
0.0
 48
0.0
140
2.5
141
2.5
142
0.0
143
0.03937007874016
144
1.0
145
0.0
146
1.0
147
0.625
 71
     0
 72
     0
 73
     0
 74
     0
 75
     0
 76
     0
 77
     1
 78
     8
170
     0
171
     3
172
     1
173
     0
174
     0
175
     0
176
     0
177
     0
178
     0
270
     2
271
     2
272
     2
273
     2
274
     3
340
71
275
     0
280
     0
281
     0
282
     0
283
     0
284
     8
285
     0
286
     0
287
     3
288
     0
  0
ENDTAB
  0
TABLE
  2
BLOCK_RECORD
  5
A01
330
0
100
AcDbSymbolTable
  70
5
  0
BLOCK_RECORD
  5
A02
330
A01
100
AcDbSymbolTableRecord
100
AcDbBlockTableRecord
  2
*MODEL_SPACE
  0
BLOCK_RECORD
  5
A03
330
A01
100
AcDbSymbolTableRecord
100
AcDbBlockTableRecord
  2
*PAPER_SPACE
  0
ENDTAB
  0
ENDSEC
  0
SECTION
  2
BLOCKS
  0
BLOCK
  5
A04
330
A02
100
AcDbEntity
  8
0
100
AcDbBlockBegin
  2
*MODEL_SPACE
 70
   0
 10
0
 20
0
 30
0
  3
*MODEL_SPACE
  1
 
  0
ENDBLK
  5
A05
330
A02
100
AcDbEntity
  8
0
100
AcDbBlockEnd
  0
BLOCK
  5
A06
330
A03
100
AcDbEntity
 67
1
  8
0
100
AcDbBlockBegin
  2
*PAPER_SPACE
 70
   0
 10
0
 20
0
 30
0
  3
*PAPER_SPACE
  1
 
  0
ENDBLK
  5
A07
330
A03
100
AcDbEntity
 67
    1
  8
0
100
AcDbBlockEnd
  0
ENDSEC
  0
SECTION
  2
ENTITIES
  0
LINE
  5
A08
330
A02
100
AcDbEntity
  8
Body006
100
AcDbLine
 10
6
 20
-1
 30
7
 11
6
 21
-1
 31
8
  0
LINE
  5
A09
330
A02
100
AcDbEntity
  8
Body006
100
AcDbLine
 10
187
 20
-1
 30
7
 11
187
 21
-1
 31
8
  0
LINE
  5
A0A
330
A02
100
AcDbEntity
  8
Body006
100
AcDbLine
 10
6
 20
-1
 30
7
 11
187
 21
-1
 31
7
  0
LINE
  5
A0B
330
A02
100
AcDbEntity
  8
Body006
100
AcDbLine
 10
6
 20
-1
 30
8
 11
187
 21
-1
 31
8
  0
LINE
  5
A0C
330
A02
100
AcDbEntity
  8
Body006
100
AcDbLine
 10
6
 20
65
 30
7
 11
6
 21
65
 31
8
  0
LINE
  5
A0D
330
A02
100
AcDbEntity
  8
Body006
100
AcDbLine
 10
6
 20
-1
 30
7
 11
6
 21
-1
 31
8
  0
LINE
  5
A0E
330
A02
100
AcDbEntity
  8
Body006
100
AcDbLine
 10
6
 20
65
 30
7
 11
6
 21
-1
 31
7
  0
LINE
  5
A0F
330
A02
100
AcDbEntity
  8
Body006
100
AcDbLine
 10
6
 20
65
 30
8
 11
6
 21
-1
 31
8
  0
LINE
  5
A10
330
A02
100
AcDbEntity
  8
Body006
100
AcDbLine
 10
187
 20
-1
 30
7
 11
187
 21
-1
 31
8
  0
LINE
  5
A11
330
A02
100
AcDbEntity
  8
Body006
100
AcDbLine
 10
187
 20
65
 30
7
 11
187
 21
65
 31
8
  0
LINE
  5
A12
330
A02
100
AcDbEntity
  8
Body006
100
AcDbLine
 10
187
 20
-1
 30
7
 11
187
 21
65
 31
7
  0
LINE
  5
A13
330
A02
100
AcDbEntity
  8
Body006
100
AcDbLine
 10
187
 20
-1
 30
8
 11
187
 21
65
 31
8
  0
LINE
  5
A14
330
A02
100
AcDbEntity
  8
Body006
100
AcDbLine
 10
6
 20
-1
 30
7
 11
187
 21
-1
 31
7
  0
LINE
  5
A15
330
A02
100
AcDbEntity
  8
Body006
100
AcDbLine
 10
6
 20
65
 30
7
 11
6
 21
-1
 31
7
  0
LINE
  5
A16
330
A02
100
AcDbEntity
  8
Body006
100
AcDbLine
 10
187
 20
-1
 30
7
 11
187
 21
65
 31
7
  0
LINE
  5
A17
330
A02
100
AcDbEntity
  8
Body006
100
AcDbLine
 10
187
 20
65
 30
7
 11
6
 21
65
 31
7
  0
CIRCLE
  5
A18
330
A02
100
AcDbEntity
  8
Body006
100
AcDbCircle
 10
22
 20
55
 40
2
  0
CIRCLE
  5
A19
330
A02
100
AcDbEntity
  8
Body006
100
AcDbCircle
 10
9
 20
44
 40
2
  0
CIRCLE
  5
A1A
330
A02
100
AcDbEntity
  8
Body006
100
AcDbCircle
 10
72
 20
55
 40
2
  0
CIRCLE
  5
A1B
330
A02
100
AcDbEntity
  8
Body006
100
AcDbCircle
 10
80
 20
37
 40
2
  0
LINE
  5
A1C
330
A02
100
AcDbEntity
  8
Body006
100
AcDbLine
 10
37.8732
 20
29.4454
 30
7
 11
37.8732
 21
21
 31
7
  0
LINE
  5
A1D
330
A02
100
AcDbEntity
  8
Body006
100
AcDbLine
 10
36.4752
 20
29.4454
 30
7
 11
37.8732
 21
29.4454
 31
7
  0
LINE
  5
A1E
330
A02
100
AcDbEntity
  8
Body006
100
AcDbLine
 10
34.3323
 20
27.3025
 30
7
 11
36.4752
 21
29.4454
 31
7
  0
LINE
  5
A1F
330
A02
100
AcDbEntity
  8
Body006
100
AcDbLine
 10
35.3178
 20
26.317
 30
7
 11
34.3323
 21
27.3025
 31
7
  0
LINE
  5
A20
330
A02
100
AcDbEntity
  8
Body006
100
AcDbLine
 10
36.4752
 20
27.4744
 30
7
 11
35.3178
 21
26.317
 31
7
  0
LINE
  5
A21
330
A02
100
AcDbEntity
  8
Body006
100
AcDbLine
 10
36.4752
 20
21
 30
7
 11
36.4752
 21
27.4744
 31
7
  0
LINE
  5
A22
330
A02
100
AcDbEntity
  8
Body006
100
AcDbLine
 10
37.8732
 20
21
 30
7
 11
36.4752
 21
21
 31
7
  0
SPLINE
  5
A23
330
A02
100
AcDbEntity
  8
Body006
100
AcDbSpline
210
0
220
0
230
1
 70
8
 71
2
 72
6
 73
3
 74
0
 40
0
 40
0
 40
0
 40
1
 40
1
 40
1
 10
44.6799
 20
28.288
 30
7
 10
45.0322
 20
28.4501
 30
7
 10
45.4477
 20
28.4484
 30
7
  0
SPLINE
  5
A24
330
A02
100
AcDbEntity
  8
Body006
100
AcDbSpline
210
0
220
0
230
1
 70
8
 71
3
 72
8
 73
4
 74
0
 40
0
 40
0
 40
0
 40
0
 40
1
 40
1
 40
1
 40
1
 10
45.4477
 20
28.4484
 30
7
 10
45.754
 20
28.4493
 30
7
 10
46.0441
 20
28.3689
 30
7
 10
46.2956
 20
28.2078
 30
7
  0
LINE
  5
A25
330
A02
100
AcDbEntity
  8
Body006
100
AcDbLine
 10
46.7998
 20
29.285
 30
7
 11
46.2956
 21
28.2078
 31
7
  0
SPLINE
  5
A26
330
A02
100
AcDbEntity
  8
Body006
100
AcDbSpline
210
0
220
0
230
1
 70
8
 71
3
 72
8
 73
4
 74
0
 40
0
 40
0
 40
0
 40
0
 40
1
 40
1
 40
1
 40
1
 10
46.7998
 20
29.285
 30
7
 10
46.3831
 20
29.4942
 30
7
 10
45.9048
 20
29.5836
 30
7
 10
45.4133
 20
29.5829
 30
7
  0
SPLINE
  5
A27
330
A02
100
AcDbEntity
  8
Body006
100
AcDbSpline
210
0
220
0
230
1
 70
8
 71
3
 72
8
 73
4
 74
0
 40
0
 40
0
 40
0
 40
0
 40
1
 40
1
 40
1
 40
1
 10
45.4133
 20
29.5829
 30
7
 10
44.9398
 20
29.5836
 30
7
 10
44.4783
 20
29.4947
 30
7
 10
44.0649
 20
29.3002
 30
7
  0
SPLINE
  5
A28
330
A02
100
AcDbEntity
  8
Body006
100
AcDbSpline
210
0
220
0
230
1
 70
8
 71
3
 72
8
 73
4
 74
0
 40
0
 40
0
 40
0
 40
0
 40
1
 40
1
 40
1
 40
1
 10
44.0649
 20
29.3002
 30
7
 10
43.6651
 20
29.1155
 30
7
 10
43.3182
 20
28.8346
 30
7
 10
43.0451
 20
28.4828
 30
7
  0
SPLINE
  5
A29
330
A02
100
AcDbEntity
  8
Body006
100
AcDbSpline
210
0
220
0
230
1
 70
8
 71
3
 72
8
 73
4
 74
0
 40
0
 40
0
 40
0
 40
0
 40
1
 40
1
 40
1
 40
1
 10
43.0451
 20
28.4828
 30
7
 10
42.7478
 20
28.0986
 30
7
 10
42.5417
 20
27.6323
 30
7
 10
42.4034
 20
27.1345
 30
7
  0
SPLINE
  5
A2A
330
A02
100
AcDbEntity
  8
Body006
100
AcDbSpline
210
0
220
0
230
1
 70
8
 71
3
 72
8
 73
4
 74
0
 40
0
 40
0
 40
0
 40
0
 40
1
 40
1
 40
1
 40
1
 10
42.4034
 20
27.1345
 30
7
 10
42.2414
 20
26.5435
 30
7
 10
42.1822
 20
25.9077
 30
7
 10
42.1818
 20
25.2628
 30
7
  0
SPLINE
  5
A2B
330
A02
100
AcDbEntity
  8
Body006
100
AcDbSpline
210
0
220
0
230
1
 70
8
 71
3
 72
8
 73
4
 74
0
 40
0
 40
0
 40
0
 40
0
 40
1
 40
1
 40
1
 40
1
 10
42.1818
 20
25.2628
 30
7
 10
42.1826
 20
24.5399
 30
7
 10
42.2538
 20
23.8228
 30
7
 10
42.4683
 20
23.1696
 30
7
  0
SPLINE
  5
A2C
330
A02
100
AcDbEntity
  8
Body006
100
AcDbSpline
210
0
220
0
230
1
 70
8
 71
3
 72
8
 73
4
 74
0
 40
0
 40
0
 40
0
 40
0
 40
1
 40
1
 40
1
 40
1
 10
42.4683
 20
23.1696
 30
7
 10
42.6438
 20
22.6386
 30
7
 10
42.9082
 20
22.1485
 30
7
 10
43.2819
 20
21.7678
 30
7
  0
LINE
  5
A2D
330
A02
100
AcDbEntity
  8
Body006
100
AcDbLine
 10
43.9121
 20
23.1085
 30
7
 11
43.2819
 21
21.7678
 31
7
  0
SPLINE
  5
A2E
330
A02
100
AcDbEntity
  8
Body006
100
AcDbSpline
210
0
220
0
230
1
 70
8
 71
3
 72
8
 73
4
 74
0
 40
0
 40
0
 40
0
 40
0
 40
1
 40
1
 40
1
 40
1
 10
43.9121
 20
23.1085
 30
7
 10
43.798
 20
23.3776
 30
7
 10
43.7215
 20
23.6901
 30
7
 10
43.6715
 20
24.0252
 30
7
  0
SPLINE
  5
A2F
330
A02
100
AcDbEntity
  8
Body006
100
AcDbSpline
210
0
220
0
230
1
 70
8
 71
2
 72
6
 73
3
 74
0
 40
0
 40
0
 40
0
 40
1
 40
1
 40
1
 10
43.6715
 20
24.0252
 30
7
 10
43.5879
 20
24.6105
 30
7
 10
43.5798
 20
25.2628
 30
7
  0
SPLINE
  5
A30
330
A02
100
AcDbEntity
  8
Body006
100
AcDbSpline
210
0
220
0
230
1
 70
8
 71
3
 72
8
 73
4
 74
0
 40
0
 40
0
 40
0
 40
0
 40
1
 40
1
 40
1
 40
1
 10
43.5798
 20
25.2628
 30
7
 10
43.5871
 20
25.7851
 30
7
 10
43.6237
 20
26.2935
 30
7
 10
43.7212
 20
26.7525
 30
7
  0
SPLINE
  5
A31
330
A02
100
AcDbEntity
  8
Body006
100
AcDbSpline
210
0
220
0
230
1
 70
8
 71
3
 72
8
 73
4
 74
0
 40
0
 40
0
 40
0
 40
0
 40
1
 40
1
 40
1
 40
1
 10
43.7212
 20
26.7525
 30
7
 10
43.8027
 20
27.1227
 30
7
 10
43.9214
 20
27.4652
 30
7
 10
44.0955
 20
27.7418
 30
7
  0
SPLINE
  5
A32
330
A02
100
AcDbEntity
  8
Body006
100
AcDbSpline
210
0
220
0
230
1
 70
8
 71
3
 72
8
 73
4
 74
0
 40
0
 40
0
 40
0
 40
0
 40
1
 40
1
 40
1
 40
1
 10
44.0955
 20
27.7418
 30
7
 10
44.2479
 20
27.9872
 30
7
 10
44.4442
 20
28.1788
 30
7
 10
44.6799
 20
28.288
 30
7
  0
SPLINE
  5
A33
330
A02
100
AcDbEntity
  8
Body006
100
AcDbSpline
210
0
220
0
230
1
 70
8
 71
3
 72
8
 73
4
 74
0
 40
0
 40
0
 40
0
 40
0
 40
1
 40
1
 40
1
 40
1
 10
48.3621
 20
27.3827
 30
7
 10
48.1852
 20
27.9237
 30
7
 10
47.908
 20
28.4205
 30
7
 10
47.5103
 20
28.7922
 30
7
  0
LINE
  5
A34
330
A02
100
AcDbEntity
  8
Body006
100
AcDbLine
 10
46.8801
 20
27.4629
 30
7
 11
47.5103
 21
28.7922
 31
7
  0
SPLINE
  5
A35
330
A02
100
AcDbEntity
  8
Body006
100
AcDbSpline
210
0
220
0
230
1
 70
8
 71
2
 72
6
 73
3
 74
0
 40
0
 40
0
 40
0
 40
1
 40
1
 40
1
 10
46.8801
 20
27.4629
 30
7
 10
46.8801
 20
27.4515
 30
7
 10
46.8915
 20
27.44
 30
7
  0
SPLINE
  5
A36
330
A02
100
AcDbEntity
  8
Body006
100
AcDbSpline
210
0
220
0
230
1
 70
8
 71
3
 72
8
 73
4
 74
0
 40
0
 40
0
 40
0
 40
0
 40
1
 40
1
 40
1
 40
1
 10
46.8915
 20
27.44
 30
7
 10
47.0136
 20
27.1713
 30
7
 10
47.0979
 20
26.8588
 30
7
 10
47.1551
 20
26.5233
 30
7
  0
SPLINE
  5
A37
330
A02
100
AcDbEntity
  8
Body006
100
AcDbSpline
210
0
220
0
230
1
 70
8
 71
3
 72
8
 73
4
 74
0
 40
0
 40
0
 40
0
 40
0
 40
1
 40
1
 40
1
 40
1
 10
47.1551
 20
26.5233
 30
7
 10
47.2215
 20
26.1316
 30
7
 10
47.251
 20
25.7049
 30
7
 10
47.2582
 20
25.2628
 30
7
  0
SPLINE
  5
A38
330
A02
100
AcDbEntity
  8
Body006
100
AcDbSpline
210
0
220
0
230
1
 70
8
 71
3
 72
8
 73
4
 74
0
 40
0
 40
0
 40
0
 40
0
 40
1
 40
1
 40
1
 40
1
 10
47.2582
 20
25.2628
 30
7
 10
47.251
 20
24.7386
 30
7
 10
47.213
 20
24.2281
 30
7
 10
47.1131
 20
23.7655
 30
7
  0
SPLINE
  5
A39
330
A02
100
AcDbEntity
  8
Body006
100
AcDbSpline
210
0
220
0
230
1
 70
8
 71
3
 72
8
 73
4
 74
0
 40
0
 40
0
 40
0
 40
0
 40
1
 40
1
 40
1
 40
1
 10
47.1131
 20
23.7655
 30
7
 10
47.0341
 20
23.3942
 30
7
 10
46.9171
 20
23.0508
 30
7
 10
46.7426
 20
22.7762
 30
7
  0
SPLINE
  5
A3A
330
A02
100
AcDbEntity
  8
Body006
100
AcDbSpline
210
0
220
0
230
1
 70
8
 71
3
 72
8
 73
4
 74
0
 40
0
 40
0
 40
0
 40
0
 40
1
 40
1
 40
1
 40
1
 10
46.7426
 20
22.7762
 30
7
 10
46.5888
 20
22.5334
 30
7
 10
46.3896
 20
22.3436
 30
7
 10
46.1505
 20
22.2299
 30
7
  0
SPLINE
  5
A3B
330
A02
100
AcDbEntity
  8
Body006
100
AcDbSpline
210
0
220
0
230
1
 70
8
 71
2
 72
6
 73
3
 74
0
 40
0
 40
0
 40
0
 40
1
 40
1
 40
1
 10
46.1505
 20
22.2299
 30
7
 10
45.7953
 20
22.0642
 30
7
 10
45.3789
 20
22.0657
 30
7
  0
SPLINE
  5
A3C
330
A02
100
AcDbEntity
  8
Body006
100
AcDbSpline
210
0
220
0
230
1
 70
8
 71
3
 72
8
 73
4
 74
0
 40
0
 40
0
 40
0
 40
0
 40
1
 40
1
 40
1
 40
1
 10
45.3789
 20
22.0657
 30
7
 10
45.0405
 20
22.0643
 30
7
 10
44.7269
 20
22.1551
 30
7
 10
44.4851
 20
22.3522
 30
7
  0
LINE
  5
A3D
330
A02
100
AcDbEntity
  8
Body006
100
AcDbLine
 10
43.9694
 20
21.2636
 30
7
 11
44.4851
 21
22.3522
 31
7
  0
SPLINE
  5
A3E
330
A02
100
AcDbEntity
  8
Body006
100
AcDbSpline
210
0
220
0
230
1
 70
8
 71
3
 72
8
 73
4
 74
0
 40
0
 40
0
 40
0
 40
0
 40
1
 40
1
 40
1
 40
1
 10
43.9694
 20
21.2636
 30
7
 10
44.4056
 20
21.0404
 30
7
 10
44.9033
 20
20.9418
 30
7
 10
45.4133
 20
20.9427
 30
7
  0
SPLINE
  5
A3F
330
A02
100
AcDbEntity
  8
Body006
100
AcDbSpline
210
0
220
0
230
1
 70
8
 71
3
 72
8
 73
4
 74
0
 40
0
 40
0
 40
0
 40
0
 40
1
 40
1
 40
1
 40
1
 10
45.4133
 20
20.9427
 30
7
 10
45.8894
 20
20.9421
 30
7
 10
46.3528
 20
21.0265
 30
7
 10
46.7655
 20
21.2177
 30
7
  0
SPLINE
  5
A40
330
A02
100
AcDbEntity
  8
Body006
100
AcDbSpline
210
0
220
0
230
1
 70
8
 71
3
 72
8
 73
4
 74
0
 40
0
 40
0
 40
0
 40
0
 40
1
 40
1
 40
1
 40
1
 10
46.7655
 20
21.2177
 30
7
 10
47.1643
 20
21.4006
 30
7
 10
47.5106
 20
21.6807
 30
7
 10
47.7853
 20
22.0313
 30
7
  0
SPLINE
  5
A41
330
A02
100
AcDbEntity
  8
Body006
100
AcDbSpline
210
0
220
0
230
1
 70
8
 71
3
 72
8
 73
4
 74
0
 40
0
 40
0
 40
0
 40
0
 40
1
 40
1
 40
1
 40
1
 10
47.7853
 20
22.0313
 30
7
 10
48.0876
 20
22.4148
 30
7
 10
48.2949
 20
22.8832
 30
7
 10
48.4309
 20
23.3835
 30
7
  0
SPLINE
  5
A42
330
A02
100
AcDbEntity
  8
Body006
100
AcDbSpline
210
0
220
0
230
1
 70
8
 71
3
 72
8
 73
4
 74
0
 40
0
 40
0
 40
0
 40
0
 40
1
 40
1
 40
1
 40
1
 10
48.4309
 20
23.3835
 30
7
 10
48.595
 20
23.9776
 30
7
 10
48.6559
 20
24.6157
 30
7
 10
48.6562
 20
25.2628
 30
7
  0
SPLINE
  5
A43
330
A02
100
AcDbEntity
  8
Body006
100
AcDbSpline
210
0
220
0
230
1
 70
8
 71
3
 72
8
 73
4
 74
0
 40
0
 40
0
 40
0
 40
0
 40
1
 40
1
 40
1
 40
1
 10
48.6562
 20
25.2628
 30
7
 10
48.6555
 20
25.9944
 30
7
 10
48.5817
 20
26.7204
 30
7
 10
48.3621
 20
27.3827
 30
7
  0
SPLINE
  5
A44
330
A02
100
AcDbEntity
  8
Body006
100
AcDbSpline
210
0
220
0
230
1
 70
8
 71
3
 72
8
 73
4
 74
0
 40
0
 40
0
 40
0
 40
0
 40
1
 40
1
 40
1
 40
1
 10
40.6654
 20
21.1948
 30
7
 10
40.8246
 20
21.3525
 30
7
 10
40.9071
 20
21.5536
 30
7
 10
40.906
 20
21.7792
 30
7
  0
SPLINE
  5
A45
330
A02
100
AcDbEntity
  8
Body006
100
AcDbSpline
210
0
220
0
230
1
 70
8
 71
3
 72
8
 73
4
 74
0
 40
0
 40
0
 40
0
 40
0
 40
1
 40
1
 40
1
 40
1
 10
40.906
 20
21.7792
 30
7
 10
40.9072
 20
22.0042
 30
7
 10
40.825
 20
22.2031
 30
7
 10
40.6654
 20
22.356
 30
7
  0
SPLINE
  5
A46
330
A02
100
AcDbEntity
  8
Body006
100
AcDbSpline
210
0
220
0
230
1
 70
8
 71
3
 72
8
 73
4
 74
0
 40
0
 40
0
 40
0
 40
0
 40
1
 40
1
 40
1
 40
1
 10
40.6654
 20
22.356
 30
7
 10
40.5075
 20
22.5129
 30
7
 10
40.3064
 20
22.5939
 30
7
 10
40.081
 20
22.5928
 30
7
  0
SPLINE
  5
A47
330
A02
100
AcDbEntity
  8
Body006
100
AcDbSpline
210
0
220
0
230
1
 70
8
 71
3
 72
8
 73
4
 74
0
 40
0
 40
0
 40
0
 40
0
 40
1
 40
1
 40
1
 40
1
 10
40.081
 20
22.5928
 30
7
 10
39.8619
 20
22.5939
 30
7
 10
39.6652
 20
22.5121
 30
7
 10
39.508
 20
22.356
 30
7
  0
SPLINE
  5
A48
330
A02
100
AcDbEntity
  8
Body006
100
AcDbSpline
210
0
220
0
230
1
 70
8
 71
3
 72
8
 73
4
 74
0
 40
0
 40
0
 40
0
 40
0
 40
1
 40
1
 40
1
 40
1
 10
39.508
 20
22.356
 30
7
 10
39.3484
 20
22.2031
 30
7
 10
39.2662
 20
22.0042
 30
7
 10
39.2674
 20
21.7792
 30
7
  0
SPLINE
  5
A49
330
A02
100
AcDbEntity
  8
Body006
100
AcDbSpline
210
0
220
0
230
1
 70
8
 71
3
 72
8
 73
4
 74
0
 40
0
 40
0
 40
0
 40
0
 40
1
 40
1
 40
1
 40
1
 10
39.2674
 20
21.7792
 30
7
 10
39.2664
 20
21.554
 30
7
 10
39.3457
 20
21.353
 30
7
 10
39.5004
 20
21.1948
 30
7
  0
SPLINE
  5
A4A
330
A02
100
AcDbEntity
  8
Body006
100
AcDbSpline
210
0
220
0
230
1
 70
8
 71
3
 72
8
 73
4
 74
0
 40
0
 40
0
 40
0
 40
0
 40
1
 40
1
 40
1
 40
1
 10
39.5004
 20
21.1948
 30
7
 10
39.6557
 20
21.0354
 30
7
 10
39.8557
 20
20.953
 30
7
 10
40.081
 20
20.9542
 30
7
  0
SPLINE
  5
A4B
330
A02
100
AcDbEntity
  8
Body006
100
AcDbSpline
210
0
220
0
230
1
 70
8
 71
3
 72
8
 73
4
 74
0
 40
0
 40
0
 40
0
 40
0
 40
1
 40
1
 40
1
 40
1
 10
40.081
 20
20.9542
 30
7
 10
40.3066
 20
20.9531
 30
7
 10
40.5077
 20
21.0356
 30
7
 10
40.6654
 20
21.1948
 30
7
  0
CIRCLE
  5
A4C
330
A02
100
AcDbEntity
  8
Body006
100
AcDbCircle
 10
9
 20
4
 40
2
  0
CIRCLE
  5
A4D
330
A02
100
AcDbEntity
  8
Body006
100
AcDbCircle
 10
96
 20
21
 40
18
  0
CIRCLE
  5
A4E
330
A02
100
AcDbEntity
  8
Body006
100
AcDbCircle
 10
80
 20
5
 40
2
  0
CIRCLE
  5
A4F
330
A02
100
AcDbEntity
  8
Body006
100
AcDbCircle
 10
121
 20
55
 40
2
  0
CIRCLE
  5
A50
330
A02
100
AcDbEntity
  8
Body006
100
AcDbCircle
 10
112
 20
37
 40
2
  0
CIRCLE
  5
A51
330
A02
100
AcDbEntity
  8
Body006
100
AcDbCircle
 10
171
 20
55
 40
2
  0
CIRCLE
  5
A52
330
A02
100
AcDbEntity
  8
Body006
100
AcDbCircle
 10
184
 20
44
 40
2
  0
CIRCLE
  5
A53
330
A02
100
AcDbEntity
  8
Body006
100
AcDbCircle
 10
112
 20
5
 40
2
  0
CIRCLE
  5
A54
330
A02
100
AcDbEntity
  8
Body006
100
AcDbCircle
 10
121
 20
5
 40
2
  0
CIRCLE
  5
A55
330
A02
100
AcDbEntity
  8
Body006
100
AcDbCircle
 10
146
 20
30
 40
28
  0
CIRCLE
  5
A56
330
A02
100
AcDbEntity
  8
Body006
100
AcDbCircle
 10
171
 20
5
 40
2
  0
CIRCLE
  5
A57
330
A02
100
AcDbEntity
  8
Body006
100
AcDbCircle
 10
184
 20
4
 40
2
  0
LINE
  5
A58
330
A02
100
AcDbEntity
  8
Body006
100
AcDbLine
 10
6
 20
-1
 30
8
 11
187
 21
-1
 31
8
  0
LINE
  5
A59
330
A02
100
AcDbEntity
  8
Body006
100
AcDbLine
 10
6
 20
65
 30
8
 11
6
 21
-1
 31
8
  0
LINE
  5
A5A
330
A02
100
AcDbEntity
  8
Body006
100
AcDbLine
 10
187
 20
-1
 30
8
 11
187
 21
65
 31
8
  0
LINE
  5
A5B
330
A02
100
AcDbEntity
  8
Body006
100
AcDbLine
 10
187
 20
65
 30
8
 11
6
 21
65
 31
8
  0
CIRCLE
  5
A5C
330
A02
100
AcDbEntity
  8
Body006
100
AcDbCircle
 10
22
 20
55
 40
2
  0
CIRCLE
  5
A5D
330
A02
100
AcDbEntity
  8
Body006
100
AcDbCircle
 10
9
 20
44
 40
2
  0
CIRCLE
  5
A5E
330
A02
100
AcDbEntity
  8
Body006
100
AcDbCircle
 10
72
 20
55
 40
2
  0
CIRCLE
  5
A5F
330
A02
100
AcDbEntity
  8
Body006
100
AcDbCircle
 10
80
 20
37
 40
2
  0
LINE
  5
A60
330
A02
100
AcDbEntity
  8
Body006
100
AcDbLine
 10
37.8732
 20
29.4454
 30
8
 11
37.8732
 21
21
 31
8
  0
LINE
  5
A61
330
A02
100
AcDbEntity
  8
Body006
100
AcDbLine
 10
36.4752
 20
29.4454
 30
8
 11
37.8732
 21
29.4454
 31
8
  0
LINE
  5
A62
330
A02
100
AcDbEntity
  8
Body006
100
AcDbLine
 10
34.3323
 20
27.3025
 30
8
 11
36.4752
 21
29.4454
 31
8
  0
LINE
  5
A63
330
A02
100
AcDbEntity
  8
Body006
100
AcDbLine
 10
35.3178
 20
26.317
 30
8
 11
34.3323
 21
27.3025
 31
8
  0
LINE
  5
A64
330
A02
100
AcDbEntity
  8
Body006
100
AcDbLine
 10
36.4752
 20
27.4744
 30
8
 11
35.3178
 21
26.317
 31
8
  0
LINE
  5
A65
330
A02
100
AcDbEntity
  8
Body006
100
AcDbLine
 10
36.4752
 20
21
 30
8
 11
36.4752
 21
27.4744
 31
8
  0
LINE
  5
A66
330
A02
100
AcDbEntity
  8
Body006
100
AcDbLine
 10
37.8732
 20
21
 30
8
 11
36.4752
 21
21
 31
8
  0
SPLINE
  5
A67
330
A02
100
AcDbEntity
  8
Body006
100
AcDbSpline
210
0
220
0
230
1
 70
8
 71
2
 72
6
 73
3
 74
0
 40
0
 40
0
 40
0
 40
1
 40
1
 40
1
 10
44.6799
 20
28.288
 30
8
 10
45.0322
 20
28.4501
 30
8
 10
45.4477
 20
28.4484
 30
8
  0
SPLINE
  5
A68
330
A02
100
AcDbEntity
  8
Body006
100
AcDbSpline
210
0
220
0
230
1
 70
8
 71
3
 72
8
 73
4
 74
0
 40
0
 40
0
 40
0
 40
0
 40
1
 40
1
 40
1
 40
1
 10
45.4477
 20
28.4484
 30
8
 10
45.754
 20
28.4493
 30
8
 10
46.0441
 20
28.3689
 30
8
 10
46.2956
 20
28.2078
 30
8
  0
LINE
  5
A69
330
A02
100
AcDbEntity
  8
Body006
100
AcDbLine
 10
46.7998
 20
29.285
 30
8
 11
46.2956
 21
28.2078
 31
8
  0
SPLINE
  5
A6A
330
A02
100
AcDbEntity
  8
Body006
100
AcDbSpline
210
0
220
0
230
1
 70
8
 71
3
 72
8
 73
4
 74
0
 40
0
 40
0
 40
0
 40
0
 40
1
 40
1
 40
1
 40
1
 10
46.7998
 20
29.285
 30
8
 10
46.3831
 20
29.4942
 30
8
 10
45.9048
 20
29.5836
 30
8
 10
45.4133
 20
29.5829
 30
8
  0
SPLINE
  5
A6B
330
A02
100
AcDbEntity
  8
Body006
100
AcDbSpline
210
0
220
0
230
1
 70
8
 71
3
 72
8
 73
4
 74
0
 40
0
 40
0
 40
0
 40
0
 40
1
 40
1
 40
1
 40
1
 10
45.4133
 20
29.5829
 30
8
 10
44.9398
 20
29.5836
 30
8
 10
44.4783
 20
29.4947
 30
8
 10
44.0649
 20
29.3002
 30
8
  0
SPLINE
  5
A6C
330
A02
100
AcDbEntity
  8
Body006
100
AcDbSpline
210
0
220
0
230
1
 70
8
 71
3
 72
8
 73
4
 74
0
 40
0
 40
0
 40
0
 40
0
 40
1
 40
1
 40
1
 40
1
 10
44.0649
 20
29.3002
 30
8
 10
43.6651
 20
29.1155
 30
8
 10
43.3182
 20
28.8346
 30
8
 10
43.0451
 20
28.4828
 30
8
  0
SPLINE
  5
A6D
330
A02
100
AcDbEntity
  8
Body006
100
AcDbSpline
210
0
220
0
230
1
 70
8
 71
3
 72
8
 73
4
 74
0
 40
0
 40
0
 40
0
 40
0
 40
1
 40
1
 40
1
 40
1
 10
43.0451
 20
28.4828
 30
8
 10
42.7478
 20
28.0986
 30
8
 10
42.5417
 20
27.6323
 30
8
 10
42.4034
 20
27.1345
 30
8
  0
SPLINE
  5
A6E
330
A02
100
AcDbEntity
  8
Body006
100
AcDbSpline
210
0
220
0
230
1
 70
8
 71
3
 72
8
 73
4
 74
0
 40
0
 40
0
 40
0
 40
0
 40
1
 40
1
 40
1
 40
1
 10
42.4034
 20
27.1345
 30
8
 10
42.2414
 20
26.5435
 30
8
 10
42.1822
 20
25.9077
 30
8
 10
42.1818
 20
25.2628
 30
8
  0
SPLINE
  5
A6F
330
A02
100
AcDbEntity
  8
Body006
100
AcDbSpline
210
0
220
0
230
1
 70
8
 71
3
 72
8
 73
4
 74
0
 40
0
 40
0
 40
0
 40
0
 40
1
 40
1
 40
1
 40
1
 10
42.1818
 20
25.2628
 30
8
 10
42.1826
 20
24.5399
 30
8
 10
42.2538
 20
23.8228
 30
8
 10
42.4683
 20
23.1696
 30
8
  0
SPLINE
  5
A70
330
A02
100
AcDbEntity
  8
Body006
100
AcDbSpline
210
0
220
0
230
1
 70
8
 71
3
 72
8
 73
4
 74
0
 40
0
 40
0
 40
0
 40
0
 40
1
 40
1
 40
1
 40
1
 10
42.4683
 20
23.1696
 30
8
 10
42.6438
 20
22.6386
 30
8
 10
42.9082
 20
22.1485
 30
8
 10
43.2819
 20
21.7678
 30
8
  0
LINE
  5
A71
330
A02
100
AcDbEntity
  8
Body006
100
AcDbLine
 10
43.9121
 20
23.1085
 30
8
 11
43.2819
 21
21.7678
 31
8
  0
SPLINE
  5
A72
330
A02
100
AcDbEntity
  8
Body006
100
AcDbSpline
210
0
220
0
230
1
 70
8
 71
3
 72
8
 73
4
 74
0
 40
0
 40
0
 40
0
 40
0
 40
1
 40
1
 40
1
 40
1
 10
43.9121
 20
23.1085
 30
8
 10
43.798
 20
23.3776
 30
8
 10
43.7215
 20
23.6901
 30
8
 10
43.6715
 20
24.0252
 30
8
  0
SPLINE
  5
A73
330
A02
100
AcDbEntity
  8
Body006
100
AcDbSpline
210
0
220
0
230
1
 70
8
 71
2
 72
6
 73
3
 74
0
 40
0
 40
0
 40
0
 40
1
 40
1
 40
1
 10
43.6715
 20
24.0252
 30
8
 10
43.5879
 20
24.6105
 30
8
 10
43.5798
 20
25.2628
 30
8
  0
SPLINE
  5
A74
330
A02
100
AcDbEntity
  8
Body006
100
AcDbSpline
210
0
220
0
230
1
 70
8
 71
3
 72
8
 73
4
 74
0
 40
0
 40
0
 40
0
 40
0
 40
1
 40
1
 40
1
 40
1
 10
43.5798
 20
25.2628
 30
8
 10
43.5871
 20
25.7851
 30
8
 10
43.6237
 20
26.2935
 30
8
 10
43.7212
 20
26.7525
 30
8
  0
SPLINE
  5
A75
330
A02
100
AcDbEntity
  8
Body006
100
AcDbSpline
210
0
220
0
230
1
 70
8
 71
3
 72
8
 73
4
 74
0
 40
0
 40
0
 40
0
 40
0
 40
1
 40
1
 40
1
 40
1
 10
43.7212
 20
26.7525
 30
8
 10
43.8027
 20
27.1227
 30
8
 10
43.9214
 20
27.4652
 30
8
 10
44.0955
 20
27.7418
 30
8
  0
SPLINE
  5
A76
330
A02
100
AcDbEntity
  8
Body006
100
AcDbSpline
210
0
220
0
230
1
 70
8
 71
3
 72
8
 73
4
 74
0
 40
0
 40
0
 40
0
 40
0
 40
1
 40
1
 40
1
 40
1
 10
44.0955
 20
27.7418
 30
8
 10
44.2479
 20
27.9872
 30
8
 10
44.4442
 20
28.1788
 30
8
 10
44.6799
 20
28.288
 30
8
  0
SPLINE
  5
A77
330
A02
100
AcDbEntity
  8
Body006
100
AcDbSpline
210
0
220
0
230
1
 70
8
 71
3
 72
8
 73
4
 74
0
 40
0
 40
0
 40
0
 40
0
 40
1
 40
1
 40
1
 40
1
 10
48.3621
 20
27.3827
 30
8
 10
48.1852
 20
27.9237
 30
8
 10
47.908
 20
28.4205
 30
8
 10
47.5103
 20
28.7922
 30
8
  0
LINE
  5
A78
330
A02
100
AcDbEntity
  8
Body006
100
AcDbLine
 10
46.8801
 20
27.4629
 30
8
 11
47.5103
 21
28.7922
 31
8
  0
SPLINE
  5
A79
330
A02
100
AcDbEntity
  8
Body006
100
AcDbSpline
210
0
220
0
230
1
 70
8
 71
2
 72
6
 73
3
 74
0
 40
0
 40
0
 40
0
 40
1
 40
1
 40
1
 10
46.8801
 20
27.4629
 30
8
 10
46.8801
 20
27.4515
 30
8
 10
46.8915
 20
27.44
 30
8
  0
SPLINE
  5
A7A
330
A02
100
AcDbEntity
  8
Body006
100
AcDbSpline
210
0
220
0
230
1
 70
8
 71
3
 72
8
 73
4
 74
0
 40
0
 40
0
 40
0
 40
0
 40
1
 40
1
 40
1
 40
1
 10
46.8915
 20
27.44
 30
8
 10
47.0136
 20
27.1713
 30
8
 10
47.0979
 20
26.8588
 30
8
 10
47.1551
 20
26.5233
 30
8
  0
SPLINE
  5
A7B
330
A02
100
AcDbEntity
  8
Body006
100
AcDbSpline
210
0
220
0
230
1
 70
8
 71
3
 72
8
 73
4
 74
0
 40
0
 40
0
 40
0
 40
0
 40
1
 40
1
 40
1
 40
1
 10
47.1551
 20
26.5233
 30
8
 10
47.2215
 20
26.1316
 30
8
 10
47.251
 20
25.7049
 30
8
 10
47.2582
 20
25.2628
 30
8
  0
SPLINE
  5
A7C
330
A02
100
AcDbEntity
  8
Body006
100
AcDbSpline
210
0
220
0
230
1
 70
8
 71
3
 72
8
 73
4
 74
0
 40
0
 40
0
 40
0
 40
0
 40
1
 40
1
 40
1
 40
1
 10
47.2582
 20
25.2628
 30
8
 10
47.251
 20
24.7386
 30
8
 10
47.213
 20
24.2281
 30
8
 10
47.1131
 20
23.7655
 30
8
  0
SPLINE
  5
A7D
330
A02
100
AcDbEntity
  8
Body006
100
AcDbSpline
210
0
220
0
230
1
 70
8
 71
3
 72
8
 73
4
 74
0
 40
0
 40
0
 40
0
 40
0
 40
1
 40
1
 40
1
 40
1
 10
47.1131
 20
23.7655
 30
8
 10
47.0341
 20
23.3942
 30
8
 10
46.9171
 20
23.0508
 30
8
 10
46.7426
 20
22.7762
 30
8
  0
SPLINE
  5
A7E
330
A02
100
AcDbEntity
  8
Body006
100
AcDbSpline
210
0
220
0
230
1
 70
8
 71
3
 72
8
 73
4
 74
0
 40
0
 40
0
 40
0
 40
0
 40
1
 40
1
 40
1
 40
1
 10
46.7426
 20
22.7762
 30
8
 10
46.5888
 20
22.5334
 30
8
 10
46.3896
 20
22.3436
 30
8
 10
46.1505
 20
22.2299
 30
8
  0
SPLINE
  5
A7F
330
A02
100
AcDbEntity
  8
Body006
100
AcDbSpline
210
0
220
0
230
1
 70
8
 71
2
 72
6
 73
3
 74
0
 40
0
 40
0
 40
0
 40
1
 40
1
 40
1
 10
46.1505
 20
22.2299
 30
8
 10
45.7953
 20
22.0642
 30
8
 10
45.3789
 20
22.0657
 30
8
  0
SPLINE
  5
A80
330
A02
100
AcDbEntity
  8
Body006
100
AcDbSpline
210
0
220
0
230
1
 70
8
 71
3
 72
8
 73
4
 74
0
 40
0
 40
0
 40
0
 40
0
 40
1
 40
1
 40
1
 40
1
 10
45.3789
 20
22.0657
 30
8
 10
45.0405
 20
22.0643
 30
8
 10
44.7269
 20
22.1551
 30
8
 10
44.4851
 20
22.3522
 30
8
  0
LINE
  5
A81
330
A02
100
AcDbEntity
  8
Body006
100
AcDbLine
 10
43.9694
 20
21.2636
 30
8
 11
44.4851
 21
22.3522
 31
8
  0
SPLINE
  5
A82
330
A02
100
AcDbEntity
  8
Body006
100
AcDbSpline
210
0
220
0
230
1
 70
8
 71
3
 72
8
 73
4
 74
0
 40
0
 40
0
 40
0
 40
0
 40
1
 40
1
 40
1
 40
1
 10
43.9694
 20
21.2636
 30
8
 10
44.4056
 20
21.0404
 30
8
 10
44.9033
 20
20.9418
 30
8
 10
45.4133
 20
20.9427
 30
8
  0
SPLINE
  5
A83
330
A02
100
AcDbEntity
  8
Body006
100
AcDbSpline
210
0
220
0
230
1
 70
8
 71
3
 72
8
 73
4
 74
0
 40
0
 40
0
 40
0
 40
0
 40
1
 40
1
 40
1
 40
1
 10
45.4133
 20
20.9427
 30
8
 10
45.8894
 20
20.9421
 30
8
 10
46.3528
 20
21.0265
 30
8
 10
46.7655
 20
21.2177
 30
8
  0
SPLINE
  5
A84
330
A02
100
AcDbEntity
  8
Body006
100
AcDbSpline
210
0
220
0
230
1
 70
8
 71
3
 72
8
 73
4
 74
0
 40
0
 40
0
 40
0
 40
0
 40
1
 40
1
 40
1
 40
1
 10
46.7655
 20
21.2177
 30
8
 10
47.1643
 20
21.4006
 30
8
 10
47.5106
 20
21.6807
 30
8
 10
47.7853
 20
22.0313
 30
8
  0
SPLINE
  5
A85
330
A02
100
AcDbEntity
  8
Body006
100
AcDbSpline
210
0
220
0
230
1
 70
8
 71
3
 72
8
 73
4
 74
0
 40
0
 40
0
 40
0
 40
0
 40
1
 40
1
 40
1
 40
1
 10
47.7853
 20
22.0313
 30
8
 10
48.0876
 20
22.4148
 30
8
 10
48.2949
 20
22.8832
 30
8
 10
48.4309
 20
23.3835
 30
8
  0
SPLINE
  5
A86
330
A02
100
AcDbEntity
  8
Body006
100
AcDbSpline
210
0
220
0
230
1
 70
8
 71
3
 72
8
 73
4
 74
0
 40
0
 40
0
 40
0
 40
0
 40
1
 40
1
 40
1
 40
1
 10
48.4309
 20
23.3835
 30
8
 10
48.595
 20
23.9776
 30
8
 10
48.6559
 20
24.6157
 30
8
 10
48.6562
 20
25.2628
 30
8
  0
SPLINE
  5
A87
330
A02
100
AcDbEntity
  8
Body006
100
AcDbSpline
210
0
220
0
230
1
 70
8
 71
3
 72
8
 73
4
 74
0
 40
0
 40
0
 40
0
 40
0
 40
1
 40
1
 40
1
 40
1
 10
48.6562
 20
25.2628
 30
8
 10
48.6555
 20
25.9944
 30
8
 10
48.5817
 20
26.7204
 30
8
 10
48.3621
 20
27.3827
 30
8
  0
SPLINE
  5
A88
330
A02
100
AcDbEntity
  8
Body006
100
AcDbSpline
210
0
220
0
230
1
 70
8
 71
3
 72
8
 73
4
 74
0
 40
0
 40
0
 40
0
 40
0
 40
1
 40
1
 40
1
 40
1
 10
40.6654
 20
21.1948
 30
8
 10
40.8246
 20
21.3525
 30
8
 10
40.9071
 20
21.5536
 30
8
 10
40.906
 20
21.7792
 30
8
  0
SPLINE
  5
A89
330
A02
100
AcDbEntity
  8
Body006
100
AcDbSpline
210
0
220
0
230
1
 70
8
 71
3
 72
8
 73
4
 74
0
 40
0
 40
0
 40
0
 40
0
 40
1
 40
1
 40
1
 40
1
 10
40.906
 20
21.7792
 30
8
 10
40.9072
 20
22.0042
 30
8
 10
40.825
 20
22.2031
 30
8
 10
40.6654
 20
22.356
 30
8
  0
SPLINE
  5
A8A
330
A02
100
AcDbEntity
  8
Body006
100
AcDbSpline
210
0
220
0
230
1
 70
8
 71
3
 72
8
 73
4
 74
0
 40
0
 40
0
 40
0
 40
0
 40
1
 40
1
 40
1
 40
1
 10
40.6654
 20
22.356
 30
8
 10
40.5075
 20
22.5129
 30
8
 10
40.3064
 20
22.5939
 30
8
 10
40.081
 20
22.5928
 30
8
  0
SPLINE
  5
A8B
330
A02
100
AcDbEntity
  8
Body006
100
AcDbSpline
210
0
220
0
230
1
 70
8
 71
3
 72
8
 73
4
 74
0
 40
0
 40
0
 40
0
 40
0
 40
1
 40
1
 40
1
 40
1
 10
40.081
 20
22.5928
 30
8
 10
39.8619
 20
22.5939
 30
8
 10
39.6652
 20
22.5121
 30
8
 10
39.508
 20
22.356
 30
8
  0
SPLINE
  5
A8C
330
A02
100
AcDbEntity
  8
Body006
100
AcDbSpline
210
0
220
0
230
1
 70
8
 71
3
 72
8
 73
4
 74
0
 40
0
 40
0
 40
0
 40
0
 40
1
 40
1
 40
1
 40
1
 10
39.508
 20
22.356
 30
8
 10
39.3484
 20
22.2031
 30
8
 10
39.2662
 20
22.0042
 30
8
 10
39.2674
 20
21.7792
 30
8
  0
SPLINE
  5
A8D
330
A02
100
AcDbEntity
  8
Body006
100
AcDbSpline
210
0
220
0
230
1
 70
8
 71
3
 72
8
 73
4
 74
0
 40
0
 40
0
 40
0
 40
0
 40
1
 40
1
 40
1
 40
1
 10
39.2674
 20
21.7792
 30
8
 10
39.2664
 20
21.554
 30
8
 10
39.3457
 20
21.353
 30
8
 10
39.5004
 20
21.1948
 30
8
  0
SPLINE
  5
A8E
330
A02
100
AcDbEntity
  8
Body006
100
AcDbSpline
210
0
220
0
230
1
 70
8
 71
3
 72
8
 73
4
 74
0
 40
0
 40
0
 40
0
 40
0
 40
1
 40
1
 40
1
 40
1
 10
39.5004
 20
21.1948
 30
8
 10
39.6557
 20
21.0354
 30
8
 10
39.8557
 20
20.953
 30
8
 10
40.081
 20
20.9542
 30
8
  0
SPLINE
  5
A8F
330
A02
100
AcDbEntity
  8
Body006
100
AcDbSpline
210
0
220
0
230
1
 70
8
 71
3
 72
8
 73
4
 74
0
 40
0
 40
0
 40
0
 40
0
 40
1
 40
1
 40
1
 40
1
 10
40.081
 20
20.9542
 30
8
 10
40.3066
 20
20.9531
 30
8
 10
40.5077
 20
21.0356
 30
8
 10
40.6654
 20
21.1948
 30
8
  0
CIRCLE
  5
A90
330
A02
100
AcDbEntity
  8
Body006
100
AcDbCircle
 10
9
 20
4
 40
2
  0
CIRCLE
  5
A91
330
A02
100
AcDbEntity
  8
Body006
100
AcDbCircle
 10
96
 20
21
 40
18
  0
CIRCLE
  5
A92
330
A02
100
AcDbEntity
  8
Body006
100
AcDbCircle
 10
80
 20
5
 40
2
  0
CIRCLE
  5
A93
330
A02
100
AcDbEntity
  8
Body006
100
AcDbCircle
 10
121
 20
55
 40
2
  0
CIRCLE
  5
A94
330
A02
100
AcDbEntity
  8
Body006
100
AcDbCircle
 10
112
 20
37
 40
2
  0
CIRCLE
  5
A95
330
A02
100
AcDbEntity
  8
Body006
100
AcDbCircle
 10
171
 20
55
 40
2
  0
CIRCLE
  5
A96
330
A02
100
AcDbEntity
  8
Body006
100
AcDbCircle
 10
184
 20
44
 40
2
  0
CIRCLE
  5
A97
330
A02
100
AcDbEntity
  8
Body006
100
AcDbCircle
 10
112
 20
5
 40
2
  0
CIRCLE
  5
A98
330
A02
100
AcDbEntity
  8
Body006
100
AcDbCircle
 10
121
 20
5
 40
2
  0
CIRCLE
  5
A99
330
A02
100
AcDbEntity
  8
Body006
100
AcDbCircle
 10
146
 20
30
 40
28
  0
CIRCLE
  5
A9A
330
A02
100
AcDbEntity
  8
Body006
100
AcDbCircle
 10
171
 20
5
 40
2
  0
CIRCLE
  5
A9B
330
A02
100
AcDbEntity
  8
Body006
100
AcDbCircle
 10
184
 20
4
 40
2
  0
LINE
  5
A9C
330
A02
100
AcDbEntity
  8
Body006
100
AcDbLine
 10
187
 20
65
 30
7
 11
187
 21
65
 31
8
  0
LINE
  5
A9D
330
A02
100
AcDbEntity
  8
Body006
100
AcDbLine
 10
6
 20
65
 30
7
 11
6
 21
65
 31
8
  0
LINE
  5
A9E
330
A02
100
AcDbEntity
  8
Body006
100
AcDbLine
 10
187
 20
65
 30
7
 11
6
 21
65
 31
7
  0
LINE
  5
A9F
330
A02
100
AcDbEntity
  8
Body006
100
AcDbLine
 10
187
 20
65
 30
8
 11
6
 21
65
 31
8
  0
CIRCLE
  5
AA0
330
A02
100
AcDbEntity
  8
Body006
100
AcDbCircle
 10
22
 20
55
 40
2
  0
LINE
  5
AA1
330
A02
100
AcDbEntity
  8
Body006
100
AcDbLine
 10
24
 20
55
 30
8
 11
24
 21
55
 31
7
  0
CIRCLE
  5
AA2
330
A02
100
AcDbEntity
  8
Body006
100
AcDbCircle
 10
22
 20
55
 40
2
  0
LINE
  5
AA3
330
A02
100
AcDbEntity
  8
Body006
100
AcDbLine
 10
24
 20
55
 30
8
 11
24
 21
55
 31
7
  0
CIRCLE
  5
AA4
330
A02
100
AcDbEntity
  8
Body006
100
AcDbCircle
 10
9
 20
44
 40
2
  0
LINE
  5
AA5
330
A02
100
AcDbEntity
  8
Body006
100
AcDbLine
 10
11
 20
44
 30
8
 11
11
 21
44
 31
7
  0
CIRCLE
  5
AA6
330
A02
100
AcDbEntity
  8
Body006
100
AcDbCircle
 10
9
 20
44
 40
2
  0
LINE
  5
AA7
330
A02
100
AcDbEntity
  8
Body006
100
AcDbLine
 10
11
 20
44
 30
8
 11
11
 21
44
 31
7
  0
CIRCLE
  5
AA8
330
A02
100
AcDbEntity
  8
Body006
100
AcDbCircle
 10
72
 20
55
 40
2
  0
LINE
  5
AA9
330
A02
100
AcDbEntity
  8
Body006
100
AcDbLine
 10
74
 20
55
 30
8
 11
74
 21
55
 31
7
  0
CIRCLE
  5
AAA
330
A02
100
AcDbEntity
  8
Body006
100
AcDbCircle
 10
72
 20
55
 40
2
  0
LINE
  5
AAB
330
A02
100
AcDbEntity
  8
Body006
100
AcDbLine
 10
74
 20
55
 30
8
 11
74
 21
55
 31
7
  0
CIRCLE
  5
AAC
330
A02
100
AcDbEntity
  8
Body006
100
AcDbCircle
 10
80
 20
37
 40
2
  0
LINE
  5
AAD
330
A02
100
AcDbEntity
  8
Body006
100
AcDbLine
 10
82
 20
37
 30
8
 11
82
 21
37
 31
7
  0
CIRCLE
  5
AAE
330
A02
100
AcDbEntity
  8
Body006
100
AcDbCircle
 10
80
 20
37
 40
2
  0
LINE
  5
AAF
330
A02
100
AcDbEntity
  8
Body006
100
AcDbLine
 10
82
 20
37
 30
8
 11
82
 21
37
 31
7
  0
LINE
  5
AB0
330
A02
100
AcDbEntity
  8
Body006
100
AcDbLine
 10
37.8732
 20
29.4454
 30
8
 11
37.8732
 21
21
 31
8
  0
LINE
  5
AB1
330
A02
100
AcDbEntity
  8
Body006
100
AcDbLine
 10
37.8732
 20
21
 30
8
 11
37.8732
 21
21
 31
7
  0
LINE
  5
AB2
330
A02
100
AcDbEntity
  8
Body006
100
AcDbLine
 10
37.8732
 20
29.4454
 30
7
 11
37.8732
 21
21
 31
7
  0
LINE
  5
AB3
330
A02
100
AcDbEntity
  8
Body006
100
AcDbLine
 10
37.8732
 20
29.4454
 30
8
 11
37.8732
 21
29.4454
 31
7
  0
LINE
  5
AB4
330
A02
100
AcDbEntity
  8
Body006
100
AcDbLine
 10
36.4752
 20
29.4454
 30
8
 11
37.8732
 21
29.4454
 31
8
  0
LINE
  5
AB5
330
A02
100
AcDbEntity
  8
Body006
100
AcDbLine
 10
37.8732
 20
29.4454
 30
8
 11
37.8732
 21
29.4454
 31
7
  0
LINE
  5
AB6
330
A02
100
AcDbEntity
  8
Body006
100
AcDbLine
 10
36.4752
 20
29.4454
 30
7
 11
37.8732
 21
29.4454
 31
7
  0
LINE
  5
AB7
330
A02
100
AcDbEntity
  8
Body006
100
AcDbLine
 10
36.4752
 20
29.4454
 30
8
 11
36.4752
 21
29.4454
 31
7
  0
LINE
  5
AB8
330
A02
100
AcDbEntity
  8
Body006
100
AcDbLine
 10
34.3323
 20
27.3025
 30
8
 11
36.4752
 21
29.4454
 31
8
  0
LINE
  5
AB9
330
A02
100
AcDbEntity
  8
Body006
100
AcDbLine
 10
36.4752
 20
29.4454
 30
8
 11
36.4752
 21
29.4454
 31
7
  0
LINE
  5
ABA
330
A02
100
AcDbEntity
  8
Body006
100
AcDbLine
 10
34.3323
 20
27.3025
 30
7
 11
36.4752
 21
29.4454
 31
7
  0
LINE
  5
ABB
330
A02
100
AcDbEntity
  8
Body006
100
AcDbLine
 10
34.3323
 20
27.3025
 30
8
 11
34.3323
 21
27.3025
 31
7
  0
LINE
  5
ABC
330
A02
100
AcDbEntity
  8
Body006
100
AcDbLine
 10
35.3178
 20
26.317
 30
8
 11
34.3323
 21
27.3025
 31
8
  0
LINE
  5
ABD
330
A02
100
AcDbEntity
  8
Body006
100
AcDbLine
 10
34.3323
 20
27.3025
 30
8
 11
34.3323
 21
27.3025
 31
7
  0
LINE
  5
ABE
330
A02
100
AcDbEntity
  8
Body006
100
AcDbLine
 10
35.3178
 20
26.317
 30
7
 11
34.3323
 21
27.3025
 31
7
  0
LINE
  5
ABF
330
A02
100
AcDbEntity
  8
Body006
100
AcDbLine
 10
35.3178
 20
26.317
 30
8
 11
35.3178
 21
26.317
 31
7
  0
LINE
  5
AC0
330
A02
100
AcDbEntity
  8
Body006
100
AcDbLine
 10
36.4752
 20
27.4744
 30
8
 11
35.3178
 21
26.317
 31
8
  0
LINE
  5
AC1
330
A02
100
AcDbEntity
  8
Body006
100
AcDbLine
 10
35.3178
 20
26.317
 30
8
 11
35.3178
 21
26.317
 31
7
  0
LINE
  5
AC2
330
A02
100
AcDbEntity
  8
Body006
100
AcDbLine
 10
36.4752
 20
27.4744
 30
7
 11
35.3178
 21
26.317
 31
7
  0
LINE
  5
AC3
330
A02
100
AcDbEntity
  8
Body006
100
AcDbLine
 10
36.4752
 20
27.4744
 30
8
 11
36.4752
 21
27.4744
 31
7
  0
LINE
  5
AC4
330
A02
100
AcDbEntity
  8
Body006
100
AcDbLine
 10
36.4752
 20
21
 30
8
 11
36.4752
 21
27.4744
 31
8
  0
LINE
  5
AC5
330
A02
100
AcDbEntity
  8
Body006
100
AcDbLine
 10
36.4752
 20
27.4744
 30
8
 11
36.4752
 21
27.4744
 31
7
  0
LINE
  5
AC6
330
A02
100
AcDbEntity
  8
Body006
100
AcDbLine
 10
36.4752
 20
21
 30
7
 11
36.4752
 21
27.4744
 31
7
  0
LINE
  5
AC7
330
A02
100
AcDbEntity
  8
Body006
100
AcDbLine
 10
36.4752
 20
21
 30
8
 11
36.4752
 21
21
 31
7
  0
LINE
  5
AC8
330
A02
100
AcDbEntity
  8
Body006
100
AcDbLine
 10
37.8732
 20
21
 30
8
 11
36.4752
 21
21
 31
8
  0
LINE
  5
AC9
330
A02
100
AcDbEntity
  8
Body006
100
AcDbLine
 10
36.4752
 20
21
 30
8
 11
36.4752
 21
21
 31
7
  0
LINE
  5
ACA
330
A02
100
AcDbEntity
  8
Body006
100
AcDbLine
 10
37.8732
 20
21
 30
7
 11
36.4752
 21
21
 31
7
  0
LINE
  5
ACB
330
A02
100
AcDbEntity
  8
Body006
100
AcDbLine
 10
37.8732
 20
21
 30
8
 11
37.8732
 21
21
 31
7
  0
SPLINE
  5
ACC
330
A02
100
AcDbEntity
  8
Body006
100
AcDbSpline
210
0
220
0
230
1
 70
8
 71
2
 72
6
 73
3
 74
0
 40
0
 40
0
 40
0
 40
1
 40
1
 40
1
 10
44.6799
 20
28.288
 30
8
 10
45.0322
 20
28.4501
 30
8
 10
45.4477
 20
28.4484
 30
8
  0
LINE
  5
ACD
330
A02
100
AcDbEntity
  8
Body006
100
AcDbLine
 10
44.6799
 20
28.288
 30
8
 11
44.6799
 21
28.288
 31
7
  0
SPLINE
  5
ACE
330
A02
100
AcDbEntity
  8
Body006
100
AcDbSpline
210
0
220
0
230
1
 70
8
 71
2
 72
6
 73
3
 74
0
 40
0
 40
0
 40
0
 40
1
 40
1
 40
1
 10
44.6799
 20
28.288
 30
7
 10
45.0322
 20
28.4501
 30
7
 10
45.4477
 20
28.4484
 30
7
  0
LINE
  5
ACF
330
A02
100
AcDbEntity
  8
Body006
100
AcDbLine
 10
45.4477
 20
28.4484
 30
8
 11
45.4477
 21
28.4484
 31
7
  0
SPLINE
  5
AD0
330
A02
100
AcDbEntity
  8
Body006
100
AcDbSpline
210
0
220
0
230
1
 70
8
 71
3
 72
8
 73
4
 74
0
 40
0
 40
0
 40
0
 40
0
 40
1
 40
1
 40
1
 40
1
 10
45.4477
 20
28.4484
 30
8
 10
45.754
 20
28.4493
 30
8
 10
46.0441
 20
28.3689
 30
8
 10
46.2956
 20
28.2078
 30
8
  0
LINE
  5
AD1
330
A02
100
AcDbEntity
  8
Body006
100
AcDbLine
 10
45.4477
 20
28.4484
 30
8
 11
45.4477
 21
28.4484
 31
7
  0
SPLINE
  5
AD2
330
A02
100
AcDbEntity
  8
Body006
100
AcDbSpline
210
0
220
0
230
1
 70
8
 71
3
 72
8
 73
4
 74
0
 40
0
 40
0
 40
0
 40
0
 40
1
 40
1
 40
1
 40
1
 10
45.4477
 20
28.4484
 30
7
 10
45.754
 20
28.4493
 30
7
 10
46.0441
 20
28.3689
 30
7
 10
46.2956
 20
28.2078
 30
7
  0
LINE
  5
AD3
330
A02
100
AcDbEntity
  8
Body006
100
AcDbLine
 10
46.2956
 20
28.2078
 30
8
 11
46.2956
 21
28.2078
 31
7
  0
LINE
  5
AD4
330
A02
100
AcDbEntity
  8
Body006
100
AcDbLine
 10
46.7998
 20
29.285
 30
8
 11
46.2956
 21
28.2078
 31
8
  0
LINE
  5
AD5
330
A02
100
AcDbEntity
  8
Body006
100
AcDbLine
 10
46.2956
 20
28.2078
 30
8
 11
46.2956
 21
28.2078
 31
7
  0
LINE
  5
AD6
330
A02
100
AcDbEntity
  8
Body006
100
AcDbLine
 10
46.7998
 20
29.285
 30
7
 11
46.2956
 21
28.2078
 31
7
  0
LINE
  5
AD7
330
A02
100
AcDbEntity
  8
Body006
100
AcDbLine
 10
46.7998
 20
29.285
 30
8
 11
46.7998
 21
29.285
 31
7
  0
SPLINE
  5
AD8
330
A02
100
AcDbEntity
  8
Body006
100
AcDbSpline
210
0
220
0
230
1
 70
8
 71
3
 72
8
 73
4
 74
0
 40
0
 40
0
 40
0
 40
0
 40
1
 40
1
 40
1
 40
1
 10
46.7998
 20
29.285
 30
8
 10
46.3831
 20
29.4942
 30
8
 10
45.9048
 20
29.5836
 30
8
 10
45.4133
 20
29.5829
 30
8
  0
LINE
  5
AD9
330
A02
100
AcDbEntity
  8
Body006
100
AcDbLine
 10
46.7998
 20
29.285
 30
8
 11
46.7998
 21
29.285
 31
7
  0
SPLINE
  5
ADA
330
A02
100
AcDbEntity
  8
Body006
100
AcDbSpline
210
0
220
0
230
1
 70
8
 71
3
 72
8
 73
4
 74
0
 40
0
 40
0
 40
0
 40
0
 40
1
 40
1
 40
1
 40
1
 10
46.7998
 20
29.285
 30
7
 10
46.3831
 20
29.4942
 30
7
 10
45.9048
 20
29.5836
 30
7
 10
45.4133
 20
29.5829
 30
7
  0
LINE
  5
ADB
330
A02
100
AcDbEntity
  8
Body006
100
AcDbLine
 10
45.4133
 20
29.5829
 30
8
 11
45.4133
 21
29.5829
 31
7
  0
SPLINE
  5
ADC
330
A02
100
AcDbEntity
  8
Body006
100
AcDbSpline
210
0
220
0
230
1
 70
8
 71
3
 72
8
 73
4
 74
0
 40
0
 40
0
 40
0
 40
0
 40
1
 40
1
 40
1
 40
1
 10
45.4133
 20
29.5829
 30
8
 10
44.9398
 20
29.5836
 30
8
 10
44.4783
 20
29.4947
 30
8
 10
44.0649
 20
29.3002
 30
8
  0
LINE
  5
ADD
330
A02
100
AcDbEntity
  8
Body006
100
AcDbLine
 10
45.4133
 20
29.5829
 30
8
 11
45.4133
 21
29.5829
 31
7
  0
SPLINE
  5
ADE
330
A02
100
AcDbEntity
  8
Body006
100
AcDbSpline
210
0
220
0
230
1
 70
8
 71
3
 72
8
 73
4
 74
0
 40
0
 40
0
 40
0
 40
0
 40
1
 40
1
 40
1
 40
1
 10
45.4133
 20
29.5829
 30
7
 10
44.9398
 20
29.5836
 30
7
 10
44.4783
 20
29.4947
 30
7
 10
44.0649
 20
29.3002
 30
7
  0
LINE
  5
ADF
330
A02
100
AcDbEntity
  8
Body006
100
AcDbLine
 10
44.0649
 20
29.3002
 30
8
 11
44.0649
 21
29.3002
 31
7
  0
SPLINE
  5
AE0
330
A02
100
AcDbEntity
  8
Body006
100
AcDbSpline
210
0
220
0
230
1
 70
8
 71
3
 72
8
 73
4
 74
0
 40
0
 40
0
 40
0
 40
0
 40
1
 40
1
 40
1
 40
1
 10
44.0649
 20
29.3002
 30
8
 10
43.6651
 20
29.1155
 30
8
 10
43.3182
 20
28.8346
 30
8
 10
43.0451
 20
28.4828
 30
8
  0
LINE
  5
AE1
330
A02
100
AcDbEntity
  8
Body006
100
AcDbLine
 10
44.0649
 20
29.3002
 30
8
 11
44.0649
 21
29.3002
 31
7
  0
SPLINE
  5
AE2
330
A02
100
AcDbEntity
  8
Body006
100
AcDbSpline
210
0
220
0
230
1
 70
8
 71
3
 72
8
 73
4
 74
0
 40
0
 40
0
 40
0
 40
0
 40
1
 40
1
 40
1
 40
1
 10
44.0649
 20
29.3002
 30
7
 10
43.6651
 20
29.1155
 30
7
 10
43.3182
 20
28.8346
 30
7
 10
43.0451
 20
28.4828
 30
7
  0
LINE
  5
AE3
330
A02
100
AcDbEntity
  8
Body006
100
AcDbLine
 10
43.0451
 20
28.4828
 30
8
 11
43.0451
 21
28.4828
 31
7
  0
SPLINE
  5
AE4
330
A02
100
AcDbEntity
  8
Body006
100
AcDbSpline
210
0
220
0
230
1
 70
8
 71
3
 72
8
 73
4
 74
0
 40
0
 40
0
 40
0
 40
0
 40
1
 40
1
 40
1
 40
1
 10
43.0451
 20
28.4828
 30
8
 10
42.7478
 20
28.0986
 30
8
 10
42.5417
 20
27.6323
 30
8
 10
42.4034
 20
27.1345
 30
8
  0
LINE
  5
AE5
330
A02
100
AcDbEntity
  8
Body006
100
AcDbLine
 10
43.0451
 20
28.4828
 30
8
 11
43.0451
 21
28.4828
 31
7
  0
SPLINE
  5
AE6
330
A02
100
AcDbEntity
  8
Body006
100
AcDbSpline
210
0
220
0
230
1
 70
8
 71
3
 72
8
 73
4
 74
0
 40
0
 40
0
 40
0
 40
0
 40
1
 40
1
 40
1
 40
1
 10
43.0451
 20
28.4828
 30
7
 10
42.7478
 20
28.0986
 30
7
 10
42.5417
 20
27.6323
 30
7
 10
42.4034
 20
27.1345
 30
7
  0
LINE
  5
AE7
330
A02
100
AcDbEntity
  8
Body006
100
AcDbLine
 10
42.4034
 20
27.1345
 30
8
 11
42.4034
 21
27.1345
 31
7
  0
SPLINE
  5
AE8
330
A02
100
AcDbEntity
  8
Body006
100
AcDbSpline
210
0
220
0
230
1
 70
8
 71
3
 72
8
 73
4
 74
0
 40
0
 40
0
 40
0
 40
0
 40
1
 40
1
 40
1
 40
1
 10
42.4034
 20
27.1345
 30
8
 10
42.2414
 20
26.5435
 30
8
 10
42.1822
 20
25.9077
 30
8
 10
42.1818
 20
25.2628
 30
8
  0
LINE
  5
AE9
330
A02
100
AcDbEntity
  8
Body006
100
AcDbLine
 10
42.4034
 20
27.1345
 30
8
 11
42.4034
 21
27.1345
 31
7
  0
SPLINE
  5
AEA
330
A02
100
AcDbEntity
  8
Body006
100
AcDbSpline
210
0
220
0
230
1
 70
8
 71
3
 72
8
 73
4
 74
0
 40
0
 40
0
 40
0
 40
0
 40
1
 40
1
 40
1
 40
1
 10
42.4034
 20
27.1345
 30
7
 10
42.2414
 20
26.5435
 30
7
 10
42.1822
 20
25.9077
 30
7
 10
42.1818
 20
25.2628
 30
7
  0
LINE
  5
AEB
330
A02
100
AcDbEntity
  8
Body006
100
AcDbLine
 10
42.1818
 20
25.2628
 30
8
 11
42.1818
 21
25.2628
 31
7
  0
SPLINE
  5
AEC
330
A02
100
AcDbEntity
  8
Body006
100
AcDbSpline
210
0
220
0
230
1
 70
8
 71
3
 72
8
 73
4
 74
0
 40
0
 40
0
 40
0
 40
0
 40
1
 40
1
 40
1
 40
1
 10
42.1818
 20
25.2628
 30
8
 10
42.1826
 20
24.5399
 30
8
 10
42.2538
 20
23.8228
 30
8
 10
42.4683
 20
23.1696
 30
8
  0
LINE
  5
AED
330
A02
100
AcDbEntity
  8
Body006
100
AcDbLine
 10
42.1818
 20
25.2628
 30
8
 11
42.1818
 21
25.2628
 31
7
  0
SPLINE
  5
AEE
330
A02
100
AcDbEntity
  8
Body006
100
AcDbSpline
210
0
220
0
230
1
 70
8
 71
3
 72
8
 73
4
 74
0
 40
0
 40
0
 40
0
 40
0
 40
1
 40
1
 40
1
 40
1
 10
42.1818
 20
25.2628
 30
7
 10
42.1826
 20
24.5399
 30
7
 10
42.2538
 20
23.8228
 30
7
 10
42.4683
 20
23.1696
 30
7
  0
LINE
  5
AEF
330
A02
100
AcDbEntity
  8
Body006
100
AcDbLine
 10
42.4683
 20
23.1696
 30
8
 11
42.4683
 21
23.1696
 31
7
  0
SPLINE
  5
AF0
330
A02
100
AcDbEntity
  8
Body006
100
AcDbSpline
210
0
220
0
230
1
 70
8
 71
3
 72
8
 73
4
 74
0
 40
0
 40
0
 40
0
 40
0
 40
1
 40
1
 40
1
 40
1
 10
42.4683
 20
23.1696
 30
8
 10
42.6438
 20
22.6386
 30
8
 10
42.9082
 20
22.1485
 30
8
 10
43.2819
 20
21.7678
 30
8
  0
LINE
  5
AF1
330
A02
100
AcDbEntity
  8
Body006
100
AcDbLine
 10
42.4683
 20
23.1696
 30
8
 11
42.4683
 21
23.1696
 31
7
  0
SPLINE
  5
AF2
330
A02
100
AcDbEntity
  8
Body006
100
AcDbSpline
210
0
220
0
230
1
 70
8
 71
3
 72
8
 73
4
 74
0
 40
0
 40
0
 40
0
 40
0
 40
1
 40
1
 40
1
 40
1
 10
42.4683
 20
23.1696
 30
7
 10
42.6438
 20
22.6386
 30
7
 10
42.9082
 20
22.1485
 30
7
 10
43.2819
 20
21.7678
 30
7
  0
LINE
  5
AF3
330
A02
100
AcDbEntity
  8
Body006
100
AcDbLine
 10
43.2819
 20
21.7678
 30
8
 11
43.2819
 21
21.7678
 31
7
  0
LINE
  5
AF4
330
A02
100
AcDbEntity
  8
Body006
100
AcDbLine
 10
43.9121
 20
23.1085
 30
8
 11
43.2819
 21
21.7678
 31
8
  0
LINE
  5
AF5
330
A02
100
AcDbEntity
  8
Body006
100
AcDbLine
 10
43.2819
 20
21.7678
 30
8
 11
43.2819
 21
21.7678
 31
7
  0
LINE
  5
AF6
330
A02
100
AcDbEntity
  8
Body006
100
AcDbLine
 10
43.9121
 20
23.1085
 30
7
 11
43.2819
 21
21.7678
 31
7
  0
LINE
  5
AF7
330
A02
100
AcDbEntity
  8
Body006
100
AcDbLine
 10
43.9121
 20
23.1085
 30
8
 11
43.9121
 21
23.1085
 31
7
  0
SPLINE
  5
AF8
330
A02
100
AcDbEntity
  8
Body006
100
AcDbSpline
210
0
220
0
230
1
 70
8
 71
3
 72
8
 73
4
 74
0
 40
0
 40
0
 40
0
 40
0
 40
1
 40
1
 40
1
 40
1
 10
43.9121
 20
23.1085
 30
8
 10
43.798
 20
23.3776
 30
8
 10
43.7215
 20
23.6901
 30
8
 10
43.6715
 20
24.0252
 30
8
  0
LINE
  5
AF9
330
A02
100
AcDbEntity
  8
Body006
100
AcDbLine
 10
43.9121
 20
23.1085
 30
8
 11
43.9121
 21
23.1085
 31
7
  0
SPLINE
  5
AFA
330
A02
100
AcDbEntity
  8
Body006
100
AcDbSpline
210
0
220
0
230
1
 70
8
 71
3
 72
8
 73
4
 74
0
 40
0
 40
0
 40
0
 40
0
 40
1
 40
1
 40
1
 40
1
 10
43.9121
 20
23.1085
 30
7
 10
43.798
 20
23.3776
 30
7
 10
43.7215
 20
23.6901
 30
7
 10
43.6715
 20
24.0252
 30
7
  0
LINE
  5
AFB
330
A02
100
AcDbEntity
  8
Body006
100
AcDbLine
 10
43.6715
 20
24.0252
 30
8
 11
43.6715
 21
24.0252
 31
7
  0
SPLINE
  5
AFC
330
A02
100
AcDbEntity
  8
Body006
100
AcDbSpline
210
0
220
0
230
1
 70
8
 71
2
 72
6
 73
3
 74
0
 40
0
 40
0
 40
0
 40
1
 40
1
 40
1
 10
43.6715
 20
24.0252
 30
8
 10
43.5879
 20
24.6105
 30
8
 10
43.5798
 20
25.2628
 30
8
  0
LINE
  5
AFD
330
A02
100
AcDbEntity
  8
Body006
100
AcDbLine
 10
43.6715
 20
24.0252
 30
8
 11
43.6715
 21
24.0252
 31
7
  0
SPLINE
  5
AFE
330
A02
100
AcDbEntity
  8
Body006
100
AcDbSpline
210
0
220
0
230
1
 70
8
 71
2
 72
6
 73
3
 74
0
 40
0
 40
0
 40
0
 40
1
 40
1
 40
1
 10
43.6715
 20
24.0252
 30
7
 10
43.5879
 20
24.6105
 30
7
 10
43.5798
 20
25.2628
 30
7
  0
LINE
  5
AFF
330
A02
100
AcDbEntity
  8
Body006
100
AcDbLine
 10
43.5798
 20
25.2628
 30
8
 11
43.5798
 21
25.2628
 31
7
  0
SPLINE
  5
B00
330
A02
100
AcDbEntity
  8
Body006
100
AcDbSpline
210
0
220
0
230
1
 70
8
 71
3
 72
8
 73
4
 74
0
 40
0
 40
0
 40
0
 40
0
 40
1
 40
1
 40
1
 40
1
 10
43.5798
 20
25.2628
 30
8
 10
43.5871
 20
25.7851
 30
8
 10
43.6237
 20
26.2935
 30
8
 10
43.7212
 20
26.7525
 30
8
  0
LINE
  5
B01
330
A02
100
AcDbEntity
  8
Body006
100
AcDbLine
 10
43.5798
 20
25.2628
 30
8
 11
43.5798
 21
25.2628
 31
7
  0
SPLINE
  5
B02
330
A02
100
AcDbEntity
  8
Body006
100
AcDbSpline
210
0
220
0
230
1
 70
8
 71
3
 72
8
 73
4
 74
0
 40
0
 40
0
 40
0
 40
0
 40
1
 40
1
 40
1
 40
1
 10
43.5798
 20
25.2628
 30
7
 10
43.5871
 20
25.7851
 30
7
 10
43.6237
 20
26.2935
 30
7
 10
43.7212
 20
26.7525
 30
7
  0
LINE
  5
B03
330
A02
100
AcDbEntity
  8
Body006
100
AcDbLine
 10
43.7212
 20
26.7525
 30
8
 11
43.7212
 21
26.7525
 31
7
  0
SPLINE
  5
B04
330
A02
100
AcDbEntity
  8
Body006
100
AcDbSpline
210
0
220
0
230
1
 70
8
 71
3
 72
8
 73
4
 74
0
 40
0
 40
0
 40
0
 40
0
 40
1
 40
1
 40
1
 40
1
 10
43.7212
 20
26.7525
 30
8
 10
43.8027
 20
27.1227
 30
8
 10
43.9214
 20
27.4652
 30
8
 10
44.0955
 20
27.7418
 30
8
  0
LINE
  5
B05
330
A02
100
AcDbEntity
  8
Body006
100
AcDbLine
 10
43.7212
 20
26.7525
 30
8
 11
43.7212
 21
26.7525
 31
7
  0
SPLINE
  5
B06
330
A02
100
AcDbEntity
  8
Body006
100
AcDbSpline
210
0
220
0
230
1
 70
8
 71
3
 72
8
 73
4
 74
0
 40
0
 40
0
 40
0
 40
0
 40
1
 40
1
 40
1
 40
1
 10
43.7212
 20
26.7525
 30
7
 10
43.8027
 20
27.1227
 30
7
 10
43.9214
 20
27.4652
 30
7
 10
44.0955
 20
27.7418
 30
7
  0
LINE
  5
B07
330
A02
100
AcDbEntity
  8
Body006
100
AcDbLine
 10
44.0955
 20
27.7418
 30
8
 11
44.0955
 21
27.7418
 31
7
  0
SPLINE
  5
B08
330
A02
100
AcDbEntity
  8
Body006
100
AcDbSpline
210
0
220
0
230
1
 70
8
 71
3
 72
8
 73
4
 74
0
 40
0
 40
0
 40
0
 40
0
 40
1
 40
1
 40
1
 40
1
 10
44.0955
 20
27.7418
 30
8
 10
44.2479
 20
27.9872
 30
8
 10
44.4442
 20
28.1788
 30
8
 10
44.6799
 20
28.288
 30
8
  0
LINE
  5
B09
330
A02
100
AcDbEntity
  8
Body006
100
AcDbLine
 10
44.0955
 20
27.7418
 30
8
 11
44.0955
 21
27.7418
 31
7
  0
SPLINE
  5
B0A
330
A02
100
AcDbEntity
  8
Body006
100
AcDbSpline
210
0
220
0
230
1
 70
8
 71
3
 72
8
 73
4
 74
0
 40
0
 40
0
 40
0
 40
0
 40
1
 40
1
 40
1
 40
1
 10
44.0955
 20
27.7418
 30
7
 10
44.2479
 20
27.9872
 30
7
 10
44.4442
 20
28.1788
 30
7
 10
44.6799
 20
28.288
 30
7
  0
LINE
  5
B0B
330
A02
100
AcDbEntity
  8
Body006
100
AcDbLine
 10
44.6799
 20
28.288
 30
8
 11
44.6799
 21
28.288
 31
7
  0
SPLINE
  5
B0C
330
A02
100
AcDbEntity
  8
Body006
100
AcDbSpline
210
0
220
0
230
1
 70
8
 71
3
 72
8
 73
4
 74
0
 40
0
 40
0
 40
0
 40
0
 40
1
 40
1
 40
1
 40
1
 10
48.3621
 20
27.3827
 30
8
 10
48.1852
 20
27.9237
 30
8
 10
47.908
 20
28.4205
 30
8
 10
47.5103
 20
28.7922
 30
8
  0
LINE
  5
B0D
330
A02
100
AcDbEntity
  8
Body006
100
AcDbLine
 10
48.3621
 20
27.3827
 30
8
 11
48.3621
 21
27.3827
 31
7
  0
SPLINE
  5
B0E
330
A02
100
AcDbEntity
  8
Body006
100
AcDbSpline
210
0
220
0
230
1
 70
8
 71
3
 72
8
 73
4
 74
0
 40
0
 40
0
 40
0
 40
0
 40
1
 40
1
 40
1
 40
1
 10
48.3621
 20
27.3827
 30
7
 10
48.1852
 20
27.9237
 30
7
 10
47.908
 20
28.4205
 30
7
 10
47.5103
 20
28.7922
 30
7
  0
LINE
  5
B0F
330
A02
100
AcDbEntity
  8
Body006
100
AcDbLine
 10
47.5103
 20
28.7922
 30
8
 11
47.5103
 21
28.7922
 31
7
  0
LINE
  5
B10
330
A02
100
AcDbEntity
  8
Body006
100
AcDbLine
 10
46.8801
 20
27.4629
 30
8
 11
47.5103
 21
28.7922
 31
8
  0
LINE
  5
B11
330
A02
100
AcDbEntity
  8
Body006
100
AcDbLine
 10
47.5103
 20
28.7922
 30
8
 11
47.5103
 21
28.7922
 31
7
  0
LINE
  5
B12
330
A02
100
AcDbEntity
  8
Body006
100
AcDbLine
 10
46.8801
 20
27.4629
 30
7
 11
47.5103
 21
28.7922
 31
7
  0
LINE
  5
B13
330
A02
100
AcDbEntity
  8
Body006
100
AcDbLine
 10
46.8801
 20
27.4629
 30
8
 11
46.8801
 21
27.4629
 31
7
  0
SPLINE
  5
B14
330
A02
100
AcDbEntity
  8
Body006
100
AcDbSpline
210
0
220
0
230
1
 70
8
 71
2
 72
6
 73
3
 74
0
 40
0
 40
0
 40
0
 40
1
 40
1
 40
1
 10
46.8801
 20
27.4629
 30
8
 10
46.8801
 20
27.4515
 30
8
 10
46.8915
 20
27.44
 30
8
  0
LINE
  5
B15
330
A02
100
AcDbEntity
  8
Body006
100
AcDbLine
 10
46.8801
 20
27.4629
 30
8
 11
46.8801
 21
27.4629
 31
7
  0
SPLINE
  5
B16
330
A02
100
AcDbEntity
  8
Body006
100
AcDbSpline
210
0
220
0
230
1
 70
8
 71
2
 72
6
 73
3
 74
0
 40
0
 40
0
 40
0
 40
1
 40
1
 40
1
 10
46.8801
 20
27.4629
 30
7
 10
46.8801
 20
27.4515
 30
7
 10
46.8915
 20
27.44
 30
7
  0
LINE
  5
B17
330
A02
100
AcDbEntity
  8
Body006
100
AcDbLine
 10
46.8915
 20
27.44
 30
8
 11
46.8915
 21
27.44
 31
7
  0
SPLINE
  5
B18
330
A02
100
AcDbEntity
  8
Body006
100
AcDbSpline
210
0
220
0
230
1
 70
8
 71
3
 72
8
 73
4
 74
0
 40
0
 40
0
 40
0
 40
0
 40
1
 40
1
 40
1
 40
1
 10
46.8915
 20
27.44
 30
8
 10
47.0136
 20
27.1713
 30
8
 10
47.0979
 20
26.8588
 30
8
 10
47.1551
 20
26.5233
 30
8
  0
LINE
  5
B19
330
A02
100
AcDbEntity
  8
Body006
100
AcDbLine
 10
46.8915
 20
27.44
 30
8
 11
46.8915
 21
27.44
 31
7
  0
SPLINE
  5
B1A
330
A02
100
AcDbEntity
  8
Body006
100
AcDbSpline
210
0
220
0
230
1
 70
8
 71
3
 72
8
 73
4
 74
0
 40
0
 40
0
 40
0
 40
0
 40
1
 40
1
 40
1
 40
1
 10
46.8915
 20
27.44
 30
7
 10
47.0136
 20
27.1713
 30
7
 10
47.0979
 20
26.8588
 30
7
 10
47.1551
 20
26.5233
 30
7
  0
LINE
  5
B1B
330
A02
100
AcDbEntity
  8
Body006
100
AcDbLine
 10
47.1551
 20
26.5233
 30
8
 11
47.1551
 21
26.5233
 31
7
  0
SPLINE
  5
B1C
330
A02
100
AcDbEntity
  8
Body006
100
AcDbSpline
210
0
220
0
230
1
 70
8
 71
3
 72
8
 73
4
 74
0
 40
0
 40
0
 40
0
 40
0
 40
1
 40
1
 40
1
 40
1
 10
47.1551
 20
26.5233
 30
8
 10
47.2215
 20
26.1316
 30
8
 10
47.251
 20
25.7049
 30
8
 10
47.2582
 20
25.2628
 30
8
  0
LINE
  5
B1D
330
A02
100
AcDbEntity
  8
Body006
100
AcDbLine
 10
47.1551
 20
26.5233
 30
8
 11
47.1551
 21
26.5233
 31
7
  0
SPLINE
  5
B1E
330
A02
100
AcDbEntity
  8
Body006
100
AcDbSpline
210
0
220
0
230
1
 70
8
 71
3
 72
8
 73
4
 74
0
 40
0
 40
0
 40
0
 40
0
 40
1
 40
1
 40
1
 40
1
 10
47.1551
 20
26.5233
 30
7
 10
47.2215
 20
26.1316
 30
7
 10
47.251
 20
25.7049
 30
7
 10
47.2582
 20
25.2628
 30
7
  0
LINE
  5
B1F
330
A02
100
AcDbEntity
  8
Body006
100
AcDbLine
 10
47.2582
 20
25.2628
 30
8
 11
47.2582
 21
25.2628
 31
7
  0
SPLINE
  5
B20
330
A02
100
AcDbEntity
  8
Body006
100
AcDbSpline
210
0
220
0
230
1
 70
8
 71
3
 72
8
 73
4
 74
0
 40
0
 40
0
 40
0
 40
0
 40
1
 40
1
 40
1
 40
1
 10
47.2582
 20
25.2628
 30
8
 10
47.251
 20
24.7386
 30
8
 10
47.213
 20
24.2281
 30
8
 10
47.1131
 20
23.7655
 30
8
  0
LINE
  5
B21
330
A02
100
AcDbEntity
  8
Body006
100
AcDbLine
 10
47.2582
 20
25.2628
 30
8
 11
47.2582
 21
25.2628
 31
7
  0
SPLINE
  5
B22
330
A02
100
AcDbEntity
  8
Body006
100
AcDbSpline
210
0
220
0
230
1
 70
8
 71
3
 72
8
 73
4
 74
0
 40
0
 40
0
 40
0
 40
0
 40
1
 40
1
 40
1
 40
1
 10
47.2582
 20
25.2628
 30
7
 10
47.251
 20
24.7386
 30
7
 10
47.213
 20
24.2281
 30
7
 10
47.1131
 20
23.7655
 30
7
  0
LINE
  5
B23
330
A02
100
AcDbEntity
  8
Body006
100
AcDbLine
 10
47.1131
 20
23.7655
 30
8
 11
47.1131
 21
23.7655
 31
7
  0
SPLINE
  5
B24
330
A02
100
AcDbEntity
  8
Body006
100
AcDbSpline
210
0
220
0
230
1
 70
8
 71
3
 72
8
 73
4
 74
0
 40
0
 40
0
 40
0
 40
0
 40
1
 40
1
 40
1
 40
1
 10
47.1131
 20
23.7655
 30
8
 10
47.0341
 20
23.3942
 30
8
 10
46.9171
 20
23.0508
 30
8
 10
46.7426
 20
22.7762
 30
8
  0
LINE
  5
B25
330
A02
100
AcDbEntity
  8
Body006
100
AcDbLine
 10
47.1131
 20
23.7655
 30
8
 11
47.1131
 21
23.7655
 31
7
  0
SPLINE
  5
B26
330
A02
100
AcDbEntity
  8
Body006
100
AcDbSpline
210
0
220
0
230
1
 70
8
 71
3
 72
8
 73
4
 74
0
 40
0
 40
0
 40
0
 40
0
 40
1
 40
1
 40
1
 40
1
 10
47.1131
 20
23.7655
 30
7
 10
47.0341
 20
23.3942
 30
7
 10
46.9171
 20
23.0508
 30
7
 10
46.7426
 20
22.7762
 30
7
  0
LINE
  5
B27
330
A02
100
AcDbEntity
  8
Body006
100
AcDbLine
 10
46.7426
 20
22.7762
 30
8
 11
46.7426
 21
22.7762
 31
7
  0
SPLINE
  5
B28
330
A02
100
AcDbEntity
  8
Body006
100
AcDbSpline
210
0
220
0
230
1
 70
8
 71
3
 72
8
 73
4
 74
0
 40
0
 40
0
 40
0
 40
0
 40
1
 40
1
 40
1
 40
1
 10
46.7426
 20
22.7762
 30
8
 10
46.5888
 20
22.5334
 30
8
 10
46.3896
 20
22.3436
 30
8
 10
46.1505
 20
22.2299
 30
8
  0
LINE
  5
B29
330
A02
100
AcDbEntity
  8
Body006
100
AcDbLine
 10
46.7426
 20
22.7762
 30
8
 11
46.7426
 21
22.7762
 31
7
  0
SPLINE
  5
B2A
330
A02
100
AcDbEntity
  8
Body006
100
AcDbSpline
210
0
220
0
230
1
 70
8
 71
3
 72
8
 73
4
 74
0
 40
0
 40
0
 40
0
 40
0
 40
1
 40
1
 40
1
 40
1
 10
46.7426
 20
22.7762
 30
7
 10
46.5888
 20
22.5334
 30
7
 10
46.3896
 20
22.3436
 30
7
 10
46.1505
 20
22.2299
 30
7
  0
LINE
  5
B2B
330
A02
100
AcDbEntity
  8
Body006
100
AcDbLine
 10
46.1505
 20
22.2299
 30
8
 11
46.1505
 21
22.2299
 31
7
  0
SPLINE
  5
B2C
330
A02
100
AcDbEntity
  8
Body006
100
AcDbSpline
210
0
220
0
230
1
 70
8
 71
2
 72
6
 73
3
 74
0
 40
0
 40
0
 40
0
 40
1
 40
1
 40
1
 10
46.1505
 20
22.2299
 30
8
 10
45.7953
 20
22.0642
 30
8
 10
45.3789
 20
22.0657
 30
8
  0
LINE
  5
B2D
330
A02
100
AcDbEntity
  8
Body006
100
AcDbLine
 10
46.1505
 20
22.2299
 30
8
 11
46.1505
 21
22.2299
 31
7
  0
SPLINE
  5
B2E
330
A02
100
AcDbEntity
  8
Body006
100
AcDbSpline
210
0
220
0
230
1
 70
8
 71
2
 72
6
 73
3
 74
0
 40
0
 40
0
 40
0
 40
1
 40
1
 40
1
 10
46.1505
 20
22.2299
 30
7
 10
45.7953
 20
22.0642
 30
7
 10
45.3789
 20
22.0657
 30
7
  0
LINE
  5
B2F
330
A02
100
AcDbEntity
  8
Body006
100
AcDbLine
 10
45.3789
 20
22.0657
 30
8
 11
45.3789
 21
22.0657
 31
7
  0
SPLINE
  5
B30
330
A02
100
AcDbEntity
  8
Body006
100
AcDbSpline
210
0
220
0
230
1
 70
8
 71
3
 72
8
 73
4
 74
0
 40
0
 40
0
 40
0
 40
0
 40
1
 40
1
 40
1
 40
1
 10
45.3789
 20
22.0657
 30
8
 10
45.0405
 20
22.0643
 30
8
 10
44.7269
 20
22.1551
 30
8
 10
44.4851
 20
22.3522
 30
8
  0
LINE
  5
B31
330
A02
100
AcDbEntity
  8
Body006
100
AcDbLine
 10
45.3789
 20
22.0657
 30
8
 11
45.3789
 21
22.0657
 31
7
  0
SPLINE
  5
B32
330
A02
100
AcDbEntity
  8
Body006
100
AcDbSpline
210
0
220
0
230
1
 70
8
 71
3
 72
8
 73
4
 74
0
 40
0
 40
0
 40
0
 40
0
 40
1
 40
1
 40
1
 40
1
 10
45.3789
 20
22.0657
 30
7
 10
45.0405
 20
22.0643
 30
7
 10
44.7269
 20
22.1551
 30
7
 10
44.4851
 20
22.3522
 30
7
  0
LINE
  5
B33
330
A02
100
AcDbEntity
  8
Body006
100
AcDbLine
 10
44.4851
 20
22.3522
 30
8
 11
44.4851
 21
22.3522
 31
7
  0
LINE
  5
B34
330
A02
100
AcDbEntity
  8
Body006
100
AcDbLine
 10
43.9694
 20
21.2636
 30
8
 11
44.4851
 21
22.3522
 31
8
  0
LINE
  5
B35
330
A02
100
AcDbEntity
  8
Body006
100
AcDbLine
 10
44.4851
 20
22.3522
 30
8
 11
44.4851
 21
22.3522
 31
7
  0
LINE
  5
B36
330
A02
100
AcDbEntity
  8
Body006
100
AcDbLine
 10
43.9694
 20
21.2636
 30
7
 11
44.4851
 21
22.3522
 31
7
  0
LINE
  5
B37
330
A02
100
AcDbEntity
  8
Body006
100
AcDbLine
 10
43.9694
 20
21.2636
 30
8
 11
43.9694
 21
21.2636
 31
7
  0
SPLINE
  5
B38
330
A02
100
AcDbEntity
  8
Body006
100
AcDbSpline
210
0
220
0
230
1
 70
8
 71
3
 72
8
 73
4
 74
0
 40
0
 40
0
 40
0
 40
0
 40
1
 40
1
 40
1
 40
1
 10
43.9694
 20
21.2636
 30
8
 10
44.4056
 20
21.0404
 30
8
 10
44.9033
 20
20.9418
 30
8
 10
45.4133
 20
20.9427
 30
8
  0
LINE
  5
B39
330
A02
100
AcDbEntity
  8
Body006
100
AcDbLine
 10
43.9694
 20
21.2636
 30
8
 11
43.9694
 21
21.2636
 31
7
  0
SPLINE
  5
B3A
330
A02
100
AcDbEntity
  8
Body006
100
AcDbSpline
210
0
220
0
230
1
 70
8
 71
3
 72
8
 73
4
 74
0
 40
0
 40
0
 40
0
 40
0
 40
1
 40
1
 40
1
 40
1
 10
43.9694
 20
21.2636
 30
7
 10
44.4056
 20
21.0404
 30
7
 10
44.9033
 20
20.9418
 30
7
 10
45.4133
 20
20.9427
 30
7
  0
LINE
  5
B3B
330
A02
100
AcDbEntity
  8
Body006
100
AcDbLine
 10
45.4133
 20
20.9427
 30
8
 11
45.4133
 21
20.9427
 31
7
  0
SPLINE
  5
B3C
330
A02
100
AcDbEntity
  8
Body006
100
AcDbSpline
210
0
220
0
230
1
 70
8
 71
3
 72
8
 73
4
 74
0
 40
0
 40
0
 40
0
 40
0
 40
1
 40
1
 40
1
 40
1
 10
45.4133
 20
20.9427
 30
8
 10
45.8894
 20
20.9421
 30
8
 10
46.3528
 20
21.0265
 30
8
 10
46.7655
 20
21.2177
 30
8
  0
LINE
  5
B3D
330
A02
100
AcDbEntity
  8
Body006
100
AcDbLine
 10
45.4133
 20
20.9427
 30
8
 11
45.4133
 21
20.9427
 31
7
  0
SPLINE
  5
B3E
330
A02
100
AcDbEntity
  8
Body006
100
AcDbSpline
210
0
220
0
230
1
 70
8
 71
3
 72
8
 73
4
 74
0
 40
0
 40
0
 40
0
 40
0
 40
1
 40
1
 40
1
 40
1
 10
45.4133
 20
20.9427
 30
7
 10
45.8894
 20
20.9421
 30
7
 10
46.3528
 20
21.0265
 30
7
 10
46.7655
 20
21.2177
 30
7
  0
LINE
  5
B3F
330
A02
100
AcDbEntity
  8
Body006
100
AcDbLine
 10
46.7655
 20
21.2177
 30
8
 11
46.7655
 21
21.2177
 31
7
  0
SPLINE
  5
B40
330
A02
100
AcDbEntity
  8
Body006
100
AcDbSpline
210
0
220
0
230
1
 70
8
 71
3
 72
8
 73
4
 74
0
 40
0
 40
0
 40
0
 40
0
 40
1
 40
1
 40
1
 40
1
 10
46.7655
 20
21.2177
 30
8
 10
47.1643
 20
21.4006
 30
8
 10
47.5106
 20
21.6807
 30
8
 10
47.7853
 20
22.0313
 30
8
  0
LINE
  5
B41
330
A02
100
AcDbEntity
  8
Body006
100
AcDbLine
 10
46.7655
 20
21.2177
 30
8
 11
46.7655
 21
21.2177
 31
7
  0
SPLINE
  5
B42
330
A02
100
AcDbEntity
  8
Body006
100
AcDbSpline
210
0
220
0
230
1
 70
8
 71
3
 72
8
 73
4
 74
0
 40
0
 40
0
 40
0
 40
0
 40
1
 40
1
 40
1
 40
1
 10
46.7655
 20
21.2177
 30
7
 10
47.1643
 20
21.4006
 30
7
 10
47.5106
 20
21.6807
 30
7
 10
47.7853
 20
22.0313
 30
7
  0
LINE
  5
B43
330
A02
100
AcDbEntity
  8
Body006
100
AcDbLine
 10
47.7853
 20
22.0313
 30
8
 11
47.7853
 21
22.0313
 31
7
  0
SPLINE
  5
B44
330
A02
100
AcDbEntity
  8
Body006
100
AcDbSpline
210
0
220
0
230
1
 70
8
 71
3
 72
8
 73
4
 74
0
 40
0
 40
0
 40
0
 40
0
 40
1
 40
1
 40
1
 40
1
 10
47.7853
 20
22.0313
 30
8
 10
48.0876
 20
22.4148
 30
8
 10
48.2949
 20
22.8832
 30
8
 10
48.4309
 20
23.3835
 30
8
  0
LINE
  5
B45
330
A02
100
AcDbEntity
  8
Body006
100
AcDbLine
 10
47.7853
 20
22.0313
 30
8
 11
47.7853
 21
22.0313
 31
7
  0
SPLINE
  5
B46
330
A02
100
AcDbEntity
  8
Body006
100
AcDbSpline
210
0
220
0
230
1
 70
8
 71
3
 72
8
 73
4
 74
0
 40
0
 40
0
 40
0
 40
0
 40
1
 40
1
 40
1
 40
1
 10
47.7853
 20
22.0313
 30
7
 10
48.0876
 20
22.4148
 30
7
 10
48.2949
 20
22.8832
 30
7
 10
48.4309
 20
23.3835
 30
7
  0
LINE
  5
B47
330
A02
100
AcDbEntity
  8
Body006
100
AcDbLine
 10
48.4309
 20
23.3835
 30
8
 11
48.4309
 21
23.3835
 31
7
  0
SPLINE
  5
B48
330
A02
100
AcDbEntity
  8
Body006
100
AcDbSpline
210
0
220
0
230
1
 70
8
 71
3
 72
8
 73
4
 74
0
 40
0
 40
0
 40
0
 40
0
 40
1
 40
1
 40
1
 40
1
 10
48.4309
 20
23.3835
 30
8
 10
48.595
 20
23.9776
 30
8
 10
48.6559
 20
24.6157
 30
8
 10
48.6562
 20
25.2628
 30
8
  0
LINE
  5
B49
330
A02
100
AcDbEntity
  8
Body006
100
AcDbLine
 10
48.4309
 20
23.3835
 30
8
 11
48.4309
 21
23.3835
 31
7
  0
SPLINE
  5
B4A
330
A02
100
AcDbEntity
  8
Body006
100
AcDbSpline
210
0
220
0
230
1
 70
8
 71
3
 72
8
 73
4
 74
0
 40
0
 40
0
 40
0
 40
0
 40
1
 40
1
 40
1
 40
1
 10
48.4309
 20
23.3835
 30
7
 10
48.595
 20
23.9776
 30
7
 10
48.6559
 20
24.6157
 30
7
 10
48.6562
 20
25.2628
 30
7
  0
LINE
  5
B4B
330
A02
100
AcDbEntity
  8
Body006
100
AcDbLine
 10
48.6562
 20
25.2628
 30
8
 11
48.6562
 21
25.2628
 31
7
  0
SPLINE
  5
B4C
330
A02
100
AcDbEntity
  8
Body006
100
AcDbSpline
210
0
220
0
230
1
 70
8
 71
3
 72
8
 73
4
 74
0
 40
0
 40
0
 40
0
 40
0
 40
1
 40
1
 40
1
 40
1
 10
48.6562
 20
25.2628
 30
8
 10
48.6555
 20
25.9944
 30
8
 10
48.5817
 20
26.7204
 30
8
 10
48.3621
 20
27.3827
 30
8
  0
LINE
  5
B4D
330
A02
100
AcDbEntity
  8
Body006
100
AcDbLine
 10
48.6562
 20
25.2628
 30
8
 11
48.6562
 21
25.2628
 31
7
  0
SPLINE
  5
B4E
330
A02
100
AcDbEntity
  8
Body006
100
AcDbSpline
210
0
220
0
230
1
 70
8
 71
3
 72
8
 73
4
 74
0
 40
0
 40
0
 40
0
 40
0
 40
1
 40
1
 40
1
 40
1
 10
48.6562
 20
25.2628
 30
7
 10
48.6555
 20
25.9944
 30
7
 10
48.5817
 20
26.7204
 30
7
 10
48.3621
 20
27.3827
 30
7
  0
LINE
  5
B4F
330
A02
100
AcDbEntity
  8
Body006
100
AcDbLine
 10
48.3621
 20
27.3827
 30
8
 11
48.3621
 21
27.3827
 31
7
  0
SPLINE
  5
B50
330
A02
100
AcDbEntity
  8
Body006
100
AcDbSpline
210
0
220
0
230
1
 70
8
 71
3
 72
8
 73
4
 74
0
 40
0
 40
0
 40
0
 40
0
 40
1
 40
1
 40
1
 40
1
 10
40.6654
 20
21.1948
 30
8
 10
40.8246
 20
21.3525
 30
8
 10
40.9071
 20
21.5536
 30
8
 10
40.906
 20
21.7792
 30
8
  0
LINE
  5
B51
330
A02
100
AcDbEntity
  8
Body006
100
AcDbLine
 10
40.6654
 20
21.1948
 30
8
 11
40.6654
 21
21.1948
 31
7
  0
SPLINE
  5
B52
330
A02
100
AcDbEntity
  8
Body006
100
AcDbSpline
210
0
220
0
230
1
 70
8
 71
3
 72
8
 73
4
 74
0
 40
0
 40
0
 40
0
 40
0
 40
1
 40
1
 40
1
 40
1
 10
40.6654
 20
21.1948
 30
7
 10
40.8246
 20
21.3525
 30
7
 10
40.9071
 20
21.5536
 30
7
 10
40.906
 20
21.7792
 30
7
  0
LINE
  5
B53
330
A02
100
AcDbEntity
  8
Body006
100
AcDbLine
 10
40.906
 20
21.7792
 30
8
 11
40.906
 21
21.7792
 31
7
  0
SPLINE
  5
B54
330
A02
100
AcDbEntity
  8
Body006
100
AcDbSpline
210
0
220
0
230
1
 70
8
 71
3
 72
8
 73
4
 74
0
 40
0
 40
0
 40
0
 40
0
 40
1
 40
1
 40
1
 40
1
 10
40.906
 20
21.7792
 30
8
 10
40.9072
 20
22.0042
 30
8
 10
40.825
 20
22.2031
 30
8
 10
40.6654
 20
22.356
 30
8
  0
LINE
  5
B55
330
A02
100
AcDbEntity
  8
Body006
100
AcDbLine
 10
40.906
 20
21.7792
 30
8
 11
40.906
 21
21.7792
 31
7
  0
SPLINE
  5
B56
330
A02
100
AcDbEntity
  8
Body006
100
AcDbSpline
210
0
220
0
230
1
 70
8
 71
3
 72
8
 73
4
 74
0
 40
0
 40
0
 40
0
 40
0
 40
1
 40
1
 40
1
 40
1
 10
40.906
 20
21.7792
 30
7
 10
40.9072
 20
22.0042
 30
7
 10
40.825
 20
22.2031
 30
7
 10
40.6654
 20
22.356
 30
7
  0
LINE
  5
B57
330
A02
100
AcDbEntity
  8
Body006
100
AcDbLine
 10
40.6654
 20
22.356
 30
8
 11
40.6654
 21
22.356
 31
7
  0
SPLINE
  5
B58
330
A02
100
AcDbEntity
  8
Body006
100
AcDbSpline
210
0
220
0
230
1
 70
8
 71
3
 72
8
 73
4
 74
0
 40
0
 40
0
 40
0
 40
0
 40
1
 40
1
 40
1
 40
1
 10
40.6654
 20
22.356
 30
8
 10
40.5075
 20
22.5129
 30
8
 10
40.3064
 20
22.5939
 30
8
 10
40.081
 20
22.5928
 30
8
  0
LINE
  5
B59
330
A02
100
AcDbEntity
  8
Body006
100
AcDbLine
 10
40.6654
 20
22.356
 30
8
 11
40.6654
 21
22.356
 31
7
  0
SPLINE
  5
B5A
330
A02
100
AcDbEntity
  8
Body006
100
AcDbSpline
210
0
220
0
230
1
 70
8
 71
3
 72
8
 73
4
 74
0
 40
0
 40
0
 40
0
 40
0
 40
1
 40
1
 40
1
 40
1
 10
40.6654
 20
22.356
 30
7
 10
40.5075
 20
22.5129
 30
7
 10
40.3064
 20
22.5939
 30
7
 10
40.081
 20
22.5928
 30
7
  0
LINE
  5
B5B
330
A02
100
AcDbEntity
  8
Body006
100
AcDbLine
 10
40.081
 20
22.5928
 30
8
 11
40.081
 21
22.5928
 31
7
  0
SPLINE
  5
B5C
330
A02
100
AcDbEntity
  8
Body006
100
AcDbSpline
210
0
220
0
230
1
 70
8
 71
3
 72
8
 73
4
 74
0
 40
0
 40
0
 40
0
 40
0
 40
1
 40
1
 40
1
 40
1
 10
40.081
 20
22.5928
 30
8
 10
39.8619
 20
22.5939
 30
8
 10
39.6652
 20
22.5121
 30
8
 10
39.508
 20
22.356
 30
8
  0
LINE
  5
B5D
330
A02
100
AcDbEntity
  8
Body006
100
AcDbLine
 10
40.081
 20
22.5928
 30
8
 11
40.081
 21
22.5928
 31
7
  0
SPLINE
  5
B5E
330
A02
100
AcDbEntity
  8
Body006
100
AcDbSpline
210
0
220
0
230
1
 70
8
 71
3
 72
8
 73
4
 74
0
 40
0
 40
0
 40
0
 40
0
 40
1
 40
1
 40
1
 40
1
 10
40.081
 20
22.5928
 30
7
 10
39.8619
 20
22.5939
 30
7
 10
39.6652
 20
22.5121
 30
7
 10
39.508
 20
22.356
 30
7
  0
LINE
  5
B5F
330
A02
100
AcDbEntity
  8
Body006
100
AcDbLine
 10
39.508
 20
22.356
 30
8
 11
39.508
 21
22.356
 31
7
  0
SPLINE
  5
B60
330
A02
100
AcDbEntity
  8
Body006
100
AcDbSpline
210
0
220
0
230
1
 70
8
 71
3
 72
8
 73
4
 74
0
 40
0
 40
0
 40
0
 40
0
 40
1
 40
1
 40
1
 40
1
 10
39.508
 20
22.356
 30
8
 10
39.3484
 20
22.2031
 30
8
 10
39.2662
 20
22.0042
 30
8
 10
39.2674
 20
21.7792
 30
8
  0
LINE
  5
B61
330
A02
100
AcDbEntity
  8
Body006
100
AcDbLine
 10
39.508
 20
22.356
 30
8
 11
39.508
 21
22.356
 31
7
  0
SPLINE
  5
B62
330
A02
100
AcDbEntity
  8
Body006
100
AcDbSpline
210
0
220
0
230
1
 70
8
 71
3
 72
8
 73
4
 74
0
 40
0
 40
0
 40
0
 40
0
 40
1
 40
1
 40
1
 40
1
 10
39.508
 20
22.356
 30
7
 10
39.3484
 20
22.2031
 30
7
 10
39.2662
 20
22.0042
 30
7
 10
39.2674
 20
21.7792
 30
7
  0
LINE
  5
B63
330
A02
100
AcDbEntity
  8
Body006
100
AcDbLine
 10
39.2674
 20
21.7792
 30
8
 11
39.2674
 21
21.7792
 31
7
  0
SPLINE
  5
B64
330
A02
100
AcDbEntity
  8
Body006
100
AcDbSpline
210
0
220
0
230
1
 70
8
 71
3
 72
8
 73
4
 74
0
 40
0
 40
0
 40
0
 40
0
 40
1
 40
1
 40
1
 40
1
 10
39.2674
 20
21.7792
 30
8
 10
39.2664
 20
21.554
 30
8
 10
39.3457
 20
21.353
 30
8
 10
39.5004
 20
21.1948
 30
8
  0
LINE
  5
B65
330
A02
100
AcDbEntity
  8
Body006
100
AcDbLine
 10
39.2674
 20
21.7792
 30
8
 11
39.2674
 21
21.7792
 31
7
  0
SPLINE
  5
B66
330
A02
100
AcDbEntity
  8
Body006
100
AcDbSpline
210
0
220
0
230
1
 70
8
 71
3
 72
8
 73
4
 74
0
 40
0
 40
0
 40
0
 40
0
 40
1
 40
1
 40
1
 40
1
 10
39.2674
 20
21.7792
 30
7
 10
39.2664
 20
21.554
 30
7
 10
39.3457
 20
21.353
 30
7
 10
39.5004
 20
21.1948
 30
7
  0
LINE
  5
B67
330
A02
100
AcDbEntity
  8
Body006
100
AcDbLine
 10
39.5004
 20
21.1948
 30
8
 11
39.5004
 21
21.1948
 31
7
  0
SPLINE
  5
B68
330
A02
100
AcDbEntity
  8
Body006
100
AcDbSpline
210
0
220
0
230
1
 70
8
 71
3
 72
8
 73
4
 74
0
 40
0
 40
0
 40
0
 40
0
 40
1
 40
1
 40
1
 40
1
 10
39.5004
 20
21.1948
 30
8
 10
39.6557
 20
21.0354
 30
8
 10
39.8557
 20
20.953
 30
8
 10
40.081
 20
20.9542
 30
8
  0
LINE
  5
B69
330
A02
100
AcDbEntity
  8
Body006
100
AcDbLine
 10
39.5004
 20
21.1948
 30
8
 11
39.5004
 21
21.1948
 31
7
  0
SPLINE
  5
B6A
330
A02
100
AcDbEntity
  8
Body006
100
AcDbSpline
210
0
220
0
230
1
 70
8
 71
3
 72
8
 73
4
 74
0
 40
0
 40
0
 40
0
 40
0
 40
1
 40
1
 40
1
 40
1
 10
39.5004
 20
21.1948
 30
7
 10
39.6557
 20
21.0354
 30
7
 10
39.8557
 20
20.953
 30
7
 10
40.081
 20
20.9542
 30
7
  0
LINE
  5
B6B
330
A02
100
AcDbEntity
  8
Body006
100
AcDbLine
 10
40.081
 20
20.9542
 30
8
 11
40.081
 21
20.9542
 31
7
  0
SPLINE
  5
B6C
330
A02
100
AcDbEntity
  8
Body006
100
AcDbSpline
210
0
220
0
230
1
 70
8
 71
3
 72
8
 73
4
 74
0
 40
0
 40
0
 40
0
 40
0
 40
1
 40
1
 40
1
 40
1
 10
40.081
 20
20.9542
 30
8
 10
40.3066
 20
20.9531
 30
8
 10
40.5077
 20
21.0356
 30
8
 10
40.6654
 20
21.1948
 30
8
  0
LINE
  5
B6D
330
A02
100
AcDbEntity
  8
Body006
100
AcDbLine
 10
40.081
 20
20.9542
 30
8
 11
40.081
 21
20.9542
 31
7
  0
SPLINE
  5
B6E
330
A02
100
AcDbEntity
  8
Body006
100
AcDbSpline
210
0
220
0
230
1
 70
8
 71
3
 72
8
 73
4
 74
0
 40
0
 40
0
 40
0
 40
0
 40
1
 40
1
 40
1
 40
1
 10
40.081
 20
20.9542
 30
7
 10
40.3066
 20
20.9531
 30
7
 10
40.5077
 20
21.0356
 30
7
 10
40.6654
 20
21.1948
 30
7
  0
LINE
  5
B6F
330
A02
100
AcDbEntity
  8
Body006
100
AcDbLine
 10
40.6654
 20
21.1948
 30
8
 11
40.6654
 21
21.1948
 31
7
  0
CIRCLE
  5
B70
330
A02
100
AcDbEntity
  8
Body006
100
AcDbCircle
 10
9
 20
4
 40
2
  0
LINE
  5
B71
330
A02
100
AcDbEntity
  8
Body006
100
AcDbLine
 10
11
 20
4
 30
8
 11
11
 21
4
 31
7
  0
CIRCLE
  5
B72
330
A02
100
AcDbEntity
  8
Body006
100
AcDbCircle
 10
9
 20
4
 40
2
  0
LINE
  5
B73
330
A02
100
AcDbEntity
  8
Body006
100
AcDbLine
 10
11
 20
4
 30
8
 11
11
 21
4
 31
7
  0
CIRCLE
  5
B74
330
A02
100
AcDbEntity
  8
Body006
100
AcDbCircle
 10
96
 20
21
 40
18
  0
LINE
  5
B75
330
A02
100
AcDbEntity
  8
Body006
100
AcDbLine
 10
114
 20
21
 30
8
 11
114
 21
21
 31
7
  0
CIRCLE
  5
B76
330
A02
100
AcDbEntity
  8
Body006
100
AcDbCircle
 10
96
 20
21
 40
18
  0
LINE
  5
B77
330
A02
100
AcDbEntity
  8
Body006
100
AcDbLine
 10
114
 20
21
 30
8
 11
114
 21
21
 31
7
  0
CIRCLE
  5
B78
330
A02
100
AcDbEntity
  8
Body006
100
AcDbCircle
 10
80
 20
5
 40
2
  0
LINE
  5
B79
330
A02
100
AcDbEntity
  8
Body006
100
AcDbLine
 10
82
 20
5
 30
8
 11
82
 21
5
 31
7
  0
CIRCLE
  5
B7A
330
A02
100
AcDbEntity
  8
Body006
100
AcDbCircle
 10
80
 20
5
 40
2
  0
LINE
  5
B7B
330
A02
100
AcDbEntity
  8
Body006
100
AcDbLine
 10
82
 20
5
 30
8
 11
82
 21
5
 31
7
  0
CIRCLE
  5
B7C
330
A02
100
AcDbEntity
  8
Body006
100
AcDbCircle
 10
121
 20
55
 40
2
  0
LINE
  5
B7D
330
A02
100
AcDbEntity
  8
Body006
100
AcDbLine
 10
123
 20
55
 30
8
 11
123
 21
55
 31
7
  0
CIRCLE
  5
B7E
330
A02
100
AcDbEntity
  8
Body006
100
AcDbCircle
 10
121
 20
55
 40
2
  0
LINE
  5
B7F
330
A02
100
AcDbEntity
  8
Body006
100
AcDbLine
 10
123
 20
55
 30
8
 11
123
 21
55
 31
7
  0
CIRCLE
  5
B80
330
A02
100
AcDbEntity
  8
Body006
100
AcDbCircle
 10
112
 20
37
 40
2
  0
LINE
  5
B81
330
A02
100
AcDbEntity
  8
Body006
100
AcDbLine
 10
114
 20
37
 30
8
 11
114
 21
37
 31
7
  0
CIRCLE
  5
B82
330
A02
100
AcDbEntity
  8
Body006
100
AcDbCircle
 10
112
 20
37
 40
2
  0
LINE
  5
B83
330
A02
100
AcDbEntity
  8
Body006
100
AcDbLine
 10
114
 20
37
 30
8
 11
114
 21
37
 31
7
  0
CIRCLE
  5
B84
330
A02
100
AcDbEntity
  8
Body006
100
AcDbCircle
 10
171
 20
55
 40
2
  0
LINE
  5
B85
330
A02
100
AcDbEntity
  8
Body006
100
AcDbLine
 10
173
 20
55
 30
8
 11
173
 21
55
 31
7
  0
CIRCLE
  5
B86
330
A02
100
AcDbEntity
  8
Body006
100
AcDbCircle
 10
171
 20
55
 40
2
  0
LINE
  5
B87
330
A02
100
AcDbEntity
  8
Body006
100
AcDbLine
 10
173
 20
55
 30
8
 11
173
 21
55
 31
7
  0
CIRCLE
  5
B88
330
A02
100
AcDbEntity
  8
Body006
100
AcDbCircle
 10
184
 20
44
 40
2
  0
LINE
  5
B89
330
A02
100
AcDbEntity
  8
Body006
100
AcDbLine
 10
186
 20
44
 30
8
 11
186
 21
44
 31
7
  0
CIRCLE
  5
B8A
330
A02
100
AcDbEntity
  8
Body006
100
AcDbCircle
 10
184
 20
44
 40
2
  0
LINE
  5
B8B
330
A02
100
AcDbEntity
  8
Body006
100
AcDbLine
 10
186
 20
44
 30
8
 11
186
 21
44
 31
7
  0
CIRCLE
  5
B8C
330
A02
100
AcDbEntity
  8
Body006
100
AcDbCircle
 10
112
 20
5
 40
2
  0
LINE
  5
B8D
330
A02
100
AcDbEntity
  8
Body006
100
AcDbLine
 10
114
 20
5
 30
8
 11
114
 21
5
 31
7
  0
CIRCLE
  5
B8E
330
A02
100
AcDbEntity
  8
Body006
100
AcDbCircle
 10
112
 20
5
 40
2
  0
LINE
  5
B8F
330
A02
100
AcDbEntity
  8
Body006
100
AcDbLine
 10
114
 20
5
 30
8
 11
114
 21
5
 31
7
  0
CIRCLE
  5
B90
330
A02
100
AcDbEntity
  8
Body006
100
AcDbCircle
 10
121
 20
5
 40
2
  0
LINE
  5
B91
330
A02
100
AcDbEntity
  8
Body006
100
AcDbLine
 10
123
 20
5
 30
8
 11
123
 21
5
 31
7
  0
CIRCLE
  5
B92
330
A02
100
AcDbEntity
  8
Body006
100
AcDbCircle
 10
121
 20
5
 40
2
  0
LINE
  5
B93
330
A02
100
AcDbEntity
  8
Body006
100
AcDbLine
 10
123
 20
5
 30
8
 11
123
 21
5
 31
7
  0
CIRCLE
  5
B94
330
A02
100
AcDbEntity
  8
Body006
100
AcDbCircle
 10
146
 20
30
 40
28
  0
LINE
  5
B95
330
A02
100
AcDbEntity
  8
Body006
100
AcDbLine
 10
174
 20
30
 30
8
 11
174
 21
30
 31
7
  0
CIRCLE
  5
B96
330
A02
100
AcDbEntity
  8
Body006
100
AcDbCircle
 10
146
 20
30
 40
28
  0
LINE
  5
B97
330
A02
100
AcDbEntity
  8
Body006
100
AcDbLine
 10
174
 20
30
 30
8
 11
174
 21
30
 31
7
  0
CIRCLE
  5
B98
330
A02
100
AcDbEntity
  8
Body006
100
AcDbCircle
 10
171
 20
5
 40
2
  0
LINE
  5
B99
330
A02
100
AcDbEntity
  8
Body006
100
AcDbLine
 10
173
 20
5
 30
8
 11
173
 21
5
 31
7
  0
CIRCLE
  5
B9A
330
A02
100
AcDbEntity
  8
Body006
100
AcDbCircle
 10
171
 20
5
 40
2
  0
LINE
  5
B9B
330
A02
100
AcDbEntity
  8
Body006
100
AcDbLine
 10
173
 20
5
 30
8
 11
173
 21
5
 31
7
  0
CIRCLE
  5
B9C
330
A02
100
AcDbEntity
  8
Body006
100
AcDbCircle
 10
184
 20
4
 40
2
  0
LINE
  5
B9D
330
A02
100
AcDbEntity
  8
Body006
100
AcDbLine
 10
186
 20
4
 30
8
 11
186
 21
4
 31
7
  0
CIRCLE
  5
B9E
330
A02
100
AcDbEntity
  8
Body006
100
AcDbCircle
 10
184
 20
4
 40
2
  0
LINE
  5
B9F
330
A02
100
AcDbEntity
  8
Body006
100
AcDbLine
 10
186
 20
4
 30
8
 11
186
 21
4
 31
7
  0
ENDSEC
  0
SECTION
  2
OBJECTS
  0
DICTIONARY
  5
F000
330
0
100
AcDbDictionary
  3
ACAD_GROUP
350
F001
  0
DICTIONARY
  5
F001
330
F000
100
AcDbDictionary
  0
ENDSEC
  0
EOF